<?xml version="1.0" standalone="no"?>
<!DOCTYPE svg PUBLIC "-//W3C//DTD SVG 1.1//EN" "http://www.w3.org/Graphics/SVG/1.1/DTD/svg11.dtd" >
<svg xmlns="http://www.w3.org/2000/svg" xmlns:xlink="http://www.w3.org/1999/xlink" version="1.1">
<metadata>
Created by FontForge 20170731 at Fri Sep 10 06:17:29 2021
 By Aleksey,,,
Safira March Personal Use (c) Din Studio. 2020. All Rights Reserved
</metadata>
<defs>
<font id="SafiraMarchPersonalUse" horiz-adv-x="275" >
  <font-face 
    font-family="Safira March Personal Use"
    font-weight="400"
    font-stretch="normal"
    units-per-em="1000"
    panose-1="2 0 5 3 0 0 0 2 0 3"
    ascent="800"
    descent="-200"
    x-height="1070"
    cap-height="1434"
    bbox="-260 -562 2594 1786"
    underline-thickness="150"
    underline-position="-517"
    unicode-range="U+0020-E1D4"
  />
<missing-glyph horiz-adv-x="70" 
 />
    <glyph glyph-name="dollar" unicode="SafiraMarch" horiz-adv-x="2613" 
d="M347 1281q0 -38 23 -65t60 -43t81.5 -28.5t89.5 -27t82 -34t60 -54t23 -82.5q0 -191 -267 -191q-57 0 -104.5 13.5t-76 34t-43 36t-22.5 29.5l40 65q3 -12 11 -28.5t25 -41t39 -44t56.5 -33.5t74.5 -14q96 0 144 44t48 122q0 40 -22.5 68t-58 44t-78.5 28.5t-86 27
t-78.5 34t-58 55t-22.5 84.5q0 11 4 26.5t18 38t36 41t63.5 32t94.5 13.5q52 0 104.5 -12.5t78.5 -24.5l26 -12l-18 -104q-1 5 -4 14.5t-17 32.5t-33.5 41t-57.5 32.5t-86 14.5q-58 0 -103.5 -32t-45.5 -100zM995 756q-54 0 -95 15t-61.5 39t-30 47t-9.5 45q0 53 25.5 90.5
t64.5 54.5t86 27.5t89 14t75 11t42 19.5q-5 -14 -40.5 -23.5t-81.5 -18.5t-92 -24t-77 -49t-31 -84q0 -67 39.5 -102t109.5 -35q81 0 128.5 54t47.5 129v127q0 33 -4 56.5t-16 47t-38.5 36t-66.5 12.5q-61 0 -106 -37.5t-59 -100.5l-50 33q57 120 215 120q57 0 95 -13
t56 -38t24.5 -52t6.5 -63v-276q0 -25 5 -40.5t10 -18.5l5 -3q-37 0 -57 12t-20 51v63q-56 -126 -189 -126zM1631 1260v-442q0 -25 5 -40.5t10 -18.5l5 -3h-97q20 6 20 62v346q0 25 -5 41.5t-10 20.5l-5 4zM1361 818v423h-67v18h67q0 77 42 124.5t116 47.5q45 0 85.5 -23.5
t40.5 -68.5q0 -20 -14 -33.5t-34 -13.5q-19 0 -33 14t-14 33q0 1 2.5 16t2 25t-11 20.5t-32.5 11.5q-14 1 -28 -4.5t-29.5 -20t-25.5 -48t-10 -80.5h115v-18h-115v-423q0 -25 5 -40.5t10 -18.5l5 -3h-97q20 6 20 62zM2220 1257q-97 0 -133 -76q6 33 32.5 55t54 29.5
t55.5 7.5q46 0 78 -11.5t49 -27t26 -42.5t11 -47.5t2 -52.5v-275q0 -25 5 -40.5t10 -18.5l5 -3q-38 0 -57.5 11.5t-19.5 50.5v63q-56 -125 -189 -125q-54 0 -95 15t-61.5 39t-30 47t-9.5 45q0 64 35.5 104t88 55t106 22.5t98 14.5t54.5 21q-5 -14 -40.5 -23.5t-81.5 -18.5
t-92 -24t-77 -49t-31 -84q0 -67 39 -102t109 -35q81 0 129 55.5t48 126.5v128q0 28 -1.5 47t-8 43.5t-18.5 39t-35 25t-55 10.5zM1684 755q20 6 20 62v347q0 25 -5 41t-10 20l-5 4l77 30v-442q0 -25 4.5 -40.5t9.5 -18.5l5 -3h-96zM2020 1134q27 52 -13 87q-41 36 -105 21
q-88 -20 -139 -124q30 104 124 139q76 28 142 -2q56 -26 56 -76q0 -23 -21 -36.5t-44 -8.5zM748 690q-20 -6 -20 -62v-547q0 -25 5 -41.5t10 -20.5l5 -4h-97q20 10 20 66v585q-35 0 -62.5 -67t-46.5 -163t-38.5 -191.5t-49.5 -162.5t-69 -67q-271 623 -274 628v-562
q0 -25 4.5 -41.5t9.5 -20.5l5 -4h-49q19 10 19 66v546q0 22 -7 38t-14 21l-7 4h77l272 -636q25 24 46 99.5t37 164t34 174t45.5 142t63.5 56.5h81zM1450 487q72 46 148.5 25.5t95.5 -96.5l-51 -12q-13 47 -42 70t-63 22t-64.5 -12t-52.5 -28q-9 -6 -27 -20v-359
q0 -25 5 -40.5t10 -18.5l5 -3h-97q20 7 20 63v317q-44 -29 -81 -46q-6 -2 -17 -6.5t-16 -7.5v-257q0 -25 4.5 -40.5t9.5 -19.5l5 -3q-37 0 -56.5 12t-19.5 51v63q-56 -126 -189 -126q-54 0 -95 15t-61.5 39t-30 47t-9.5 45v6q0 45 21 72t62.5 39t84.5 17.5t107 14t110 20.5
v12q0 25 -2.5 45.5t-11 43t-21.5 38t-36.5 25.5t-54.5 10q-60 0 -105 -37.5t-59 -99.5l-51 32q57 119 216 121q52 0 90 -14t57 -39t27 -51t8 -55v-12q3 1 34 14q32 16 80 46v15q0 25 -5 41.5t-10 20.5l-5 4l77 29v-70q48 33 56 38zM1166 229v90q-39 -9 -94 -16t-91 -12
t-71 -16t-52.5 -34.5t-17.5 -61.5q0 -67 39.5 -102t109.5 -35q84 0 130 51.5t47 135.5zM2497 14q20 7 20 63v299q0 44 -22 76.5t-55.5 43t-69.5 5.5t-67.5 -37t-46.5 -83q-1 -3 -13 -42v-269q0 -33 -18.5 -44.5t-58.5 -11.5q19 7 19 63v128q-105 -191 -263 -191
q-103 0 -172.5 68t-69.5 183q0 105 71 179t171 74q64 0 120 -26.5t79 -67.5l-38 -48q-18 61 -61.5 90.5t-99.5 29.5q-76 0 -129.5 -67t-53.5 -161t55.5 -158.5t132.5 -63.5q156 0 258 181v412q0 25 -4.5 41t-9.5 20l-5 4l76 30l1 -370q2 12 3 13q9 43 31.5 75t52 46.5
t63.5 19.5t65.5 -4t57.5 -25t42 -43t16 -59v-311q0 -25 5 -40.5t10 -18.5l5 -3h-97z" />
    <glyph glyph-name="r_i" unicode="ri" horiz-adv-x="830" 
d="M615 -2q2 1 4.5 2.5t10 10t13 21.5t10 39t4.5 59v584q0 53 -10.5 88t-20.5 44l-10 8l162 63l1 -787q0 -53 10.5 -86t20.5 -40l10 -6h-205zM224 130q0 -34 4 -60t10 -39t12.5 -21t10.5 -10l4 -2h-205q2 1 4.5 2.5t10 10t13 21.5t10 39t4.5 59v736q0 53 -10.5 88t-21.5 44
l-10 8l163 63zM707 955q-39 0 -67 25.5t-33 63.5q-8 60 -66 70q-69 11 -151 -51q-112 -86 -152 -248q-5 -23 -9 -46q0 198 142 318q104 88 235 99q114 10 170 -47q32 -33 32 -83q0 -41 -29.5 -71t-71.5 -30z" />
    <glyph glyph-name="r_a" unicode="ra" horiz-adv-x="1623" 
d="M775 803q47 93 -10 165q-52 65 -154 72q-132 8 -247 -91q-80 -68 -135 -180q55 192 217 275q128 66 267 40q120 -22 172 -98q27 -40 27 -88q0 -49 -44 -78t-93 -17zM224 129q0 -33 4 -59t10 -39t12.5 -21.5t10.5 -10.5l4 -2h-205q2 1 4.5 2.5t10 10.5t13 22t10 39t4.5 59
v736q0 53 -10.5 87.5t-21.5 42.5l-10 9l164 64v-940zM1571 129q0 -33 4.5 -59t10.5 -39t12 -21.5t10 -10.5l5 -2q-30 0 -51 2t-44 10t-37 22t-23 39t-9 60v134q-24 -54 -56.5 -98.5t-80.5 -84t-115.5 -62t-148.5 -22.5q-79 0 -144.5 15t-109 41t-76.5 57.5t-51 67.5
t-26.5 67.5t-8.5 61.5q0 87 31.5 153.5t83 106t119.5 67.5t139.5 41t143.5 23.5t131 17t103.5 20t59.5 33.5q-8 -23 -51 -39.5t-103.5 -28.5t-132 -26t-141.5 -38.5t-127.5 -59.5t-93 -94.5t-35.5 -137.5q0 -142 83.5 -216.5t231.5 -74.5q87 0 160 34t119 89.5t71 124
t25 140.5v271q0 42 -1 71.5t-6.5 69t-15.5 67t-28.5 57t-44 47t-64.5 29t-89 11.5q-90 0 -166.5 -39t-116.5 -124q11 54 45 94t80 61t90.5 31t86.5 10q70 0 125 -12.5t92 -31.5t63 -50.5t40 -61t21.5 -73t9 -76t1.5 -79.5v-585z" />
    <glyph glyph-name="g_i" unicode="gi" horiz-adv-x="1384" 
d="M960 969q-39 0 -67.5 26t-33.5 64q0 112 -87 129q-76 15 -171 -44q-89 -55 -119 -130l-9 -32q92 -65 145 -167.5t53 -222.5q0 -128 -60.5 -237t-165 -172t-227.5 -63q-137 0 -254 80q-57 -5 -99.5 -30t-42.5 -69q0 -29 19 -50t59 -21q60 0 193.5 33t228.5 33
q32 0 68.5 -4.5t86.5 -15t94 -33t83 -54.5t62 -84t23 -116q0 -160 -136 -255.5t-371 -95.5q-277 0 -407 138q-84 89 -78 199q4 90 63 135q56 42 132 16q-41 -10 -65 -76q-32 -90 3 -183q49 -130 208 -172q67 -18 150 -18q166 0 267 83.5t101 220.5q0 133 -93.5 206.5
t-236.5 70.5q-72 -2 -147.5 -26.5t-142.5 -47.5t-120 -23q-56 0 -91 31t-35 77t34 79t80 47t97 15q-87 66 -138 166.5t-51 215.5q0 128 61.5 236.5t166.5 172t228 63.5q134 0 234 -67q53 151 194 222q121 62 243 38q113 -22 154 -106q18 -36 18 -81q0 -41 -30 -71t-71 -30z
M550 589q0 179 -96 307t-236 128t-237 -125t-97 -303q0 -117 44 -217t121 -159t169 -59q141 0 236.5 125t95.5 303zM868 -5q2 1 4.5 2.5t10 10t13 21.5t10 39t4.5 60v570q0 53 -10.5 88t-21.5 44l-10 8l163 63l1 -774q0 -33 4 -59t10 -39t12.5 -21.5t10.5 -10.5l4 -2h-205z
" />
    <glyph glyph-name="a_m" unicode="am" horiz-adv-x="2494" 
d="M1855 132q0 -53 10.5 -86t20.5 -40l10 -6h-205q2 1 4.5 2.5t10 10.5t13 22t10 39t4.5 59v684q0 38 -9.5 75t-29 72t-56 57t-84.5 22q-53 0 -90.5 -9.5t-63 -28t-45 -42t-44 -54.5t-52.5 -62t-77.5 -68t-112.5 -70q-32 -17 -70 -31l1 -546q0 -53 10.5 -86t20.5 -40l10 -6
q-38 0 -63 4t-50 16.5t-37.5 40.5t-12.5 72v133q-24 -54 -57 -98.5t-80.5 -84t-115 -61.5t-148.5 -22q-79 0 -144.5 15t-109.5 41t-77 57.5t-51 67.5t-26.5 67.5t-8.5 61.5v12q0 68 24 117t70.5 77.5t103 45.5t134 28t151 18.5t166.5 22.5t168 35v27q0 54 -5.5 97.5
t-22 91.5t-44.5 80.5t-77 54t-116 21.5q-130 0 -225 -79.5t-125 -212.5l-107 71q64 133 185 193t273 61q90 1 159.5 -19.5t111.5 -53.5t68.5 -79t36.5 -90.5t10 -93.5v-29q38 16 71 33q31 15 77 45v83q0 53 -10.5 88t-20.5 43l-11 9l163 63v-179q15 17 38.5 46.5t36 44
t35 34.5t44 29.5t54.5 16.5t75 7q133 0 218.5 -70t85.5 -192v-675zM877 451v189q-64 -16 -143.5 -27.5t-141 -18t-127.5 -16t-113 -25t-86 -40t-59 -66t-20 -99.5q0 -142 84 -216.5t232 -74.5q177 0 274.5 108.5t99.5 285.5zM2279 0q5 2 11.5 7.5t18 39t11.5 86.5v684
q0 127 -89 179q-78 45 -176 11q-104 -36 -159 -140q-23 -44 -33 -95q7 181 132 258q98 60 222 32q117 -26 180 -114q45 -62 45 -141v-675q0 -33 4.5 -59t10.5 -39t12 -21.5t11 -10.5l4 -2h-205zM1147 717q68 42 121 108v-707q0 -69 -38 -93.5t-125 -24.5q5 2 11.5 7.5t18 39
t11.5 86.5z" />
    <glyph glyph-name="a_n" unicode="an" horiz-adv-x="2025" 
d="M1146 133l1 584q97 72 121 95v-694q0 -69 -38 -93.5t-125 -24.5q5 2 11.5 7.5t18 39t11.5 86.5zM1810 0q2 1 4.5 2.5t10 10.5t13 22t10 39t4.5 59q1 1 1 643q0 130 -41 198.5t-138 68.5q-73 0 -129.5 -18.5t-104.5 -53t-93 -73.5t-119.5 -92.5t-158.5 -96.5
q-31 -16 -69 -31v-546q0 -53 10.5 -86t20.5 -40l10 -6q-38 0 -63 4t-50 16.5t-37.5 41t-12.5 71.5v134q-24 -54 -57 -98.5t-80.5 -84t-115 -62t-148.5 -22.5q-79 0 -144.5 15t-109.5 41t-77 57.5t-51 67.5t-26.5 67.5t-8.5 61.5q0 2 0.5 6t0.5 6q0 68 24 117t70 77.5t103 46
t134.5 28t151 18.5t166.5 22.5t168 34.5v27q-1 54 -6 97.5t-22 91.5t-45 80.5t-77 54t-116 21.5q-130 0 -224.5 -80t-125.5 -212l-107 70q33 69 83.5 120t112 79.5t126 42t136.5 14.5q90 1 159.5 -20t111.5 -54t69 -79t37 -90.5t10 -93.5v-29q30 12 71 33q42 22 76 43v85
q0 53 -10.5 88t-20.5 43l-11 9l163 63v-203q23 18 64.5 51.5t62 49.5t57 39.5t65 34t69 19t85.5 8.5q56 0 98.5 -7t82.5 -27t66 -53t41.5 -87.5t15.5 -128.5l-1 -634q0 -33 4 -59t10 -39t12.5 -21.5t10.5 -10.5l4 -2h-205zM503 57q178 0 275.5 109t99.5 287v187
q-64 -16 -143.5 -27.5t-141.5 -18t-128 -16t-113 -25t-86 -40t-59 -66t-20 -99.5q0 -142 84 -216.5t232 -74.5z" />
    <glyph glyph-name="a_h" unicode="ah" horiz-adv-x="2025" 
d="M1148 132v597q42 23 122 83v-695q0 -69 -38 -93.5t-125 -24.5q5 2 11.5 7.5t18 39t11.5 86.5zM1811 0q5 2 11.5 7.5t18 39t11.5 86.5q1 1 1 643q0 130 -41 198.5t-138 68.5q-73 0 -129.5 -18.5t-104.5 -53t-93 -73.5t-119.5 -92.5t-158.5 -96.5q-31 -16 -69 -31v-546
q0 -53 10.5 -86t20.5 -40l10 -6q-38 0 -63 4t-50 16.5t-37.5 41t-12.5 71.5v134q-24 -54 -57 -98.5t-80.5 -84t-115 -62t-148.5 -22.5q-79 0 -144.5 15t-109.5 41t-77 57.5t-51 67.5t-26.5 67.5t-8.5 61.5q0 2 0.5 6t0.5 6q0 68 24 117t70 77.5t103 46t134.5 28t151 18.5
t166.5 22.5t168 34.5v27q-1 54 -6 97.5t-22 91.5t-45 80.5t-77 54t-116 21.5q-130 0 -224.5 -80t-125.5 -212l-107 70q33 69 83.5 120t112 79.5t126 42t136.5 14.5q90 1 159.5 -20t111.5 -54t69 -79t37 -90.5t10 -93.5v-29q30 12 71 33q33 16 77 44v544q0 53 -10 87.5
t-20 43.5l-11 8l163 63v-661q23 18 64.5 51.5t61.5 49.5t56.5 39t65 33.5t68.5 19t85 8.5q56 0 98.5 -7t82.5 -27t66 -53t41.5 -87.5t15.5 -128.5l-1 -634q0 -33 4 -59t10 -39t12.5 -21.5t10.5 -10.5l4 -2h-204zM503 57q178 0 275.5 109.5t99.5 287.5v186
q-64 -16 -143.5 -27.5t-141 -18t-127.5 -16t-113.5 -25t-86.5 -40t-59 -66t-20 -99.5q0 -142 84 -216.5t232 -74.5z" />
    <glyph glyph-name="c_h" unicode="ch" horiz-adv-x="2011" 
d="M1796 -3q2 1 4.5 2.5t10 10.5t13 22t10 39t4.5 59v636q0 59 -19.5 109t-52 83.5t-75.5 54t-89.5 24.5t-94.5 -10.5t-90.5 -44.5t-78 -83.5t-55.5 -122.5q-5 -18 -15.5 -49.5t-12.5 -39.5v-572q0 -69 -38.5 -93.5t-124.5 -24.5q5 2 11.5 7.5t18 39t11.5 86.5v272
q-114 -208 -259 -307t-300 -99q-143 0 -258.5 62.5t-185.5 186t-70 286.5q0 146 69 269.5t187.5 195t257.5 71.5q136 0 254.5 -56t167.5 -142l-80 -102q-38 128 -130.5 191.5t-211.5 63.5q-160 0 -274 -142.5t-114 -343.5q0 -131 54 -240.5t145.5 -171t198.5 -60.5
q78 1 150.5 24t129.5 59.5t108.5 88t89 103t71.5 111.5v874q0 53 -10.5 88t-20.5 44l-10 8l162 63l1 -786q2 6 3.5 13t2.5 10t1 4q26 128 107 206t179 89.5t191.5 -12t156.5 -96t63 -166.5l1 -660q0 -33 4 -59t10 -39t12.5 -21.5t10.5 -10.5l4 -2h-205z" />
    <glyph glyph-name="a_r" unicode="ar" horiz-adv-x="2011" 
d="M1482 1003q101 63 211.5 66.5t195.5 -54.5t112 -163l-108 -26q-23 81 -68.5 128.5t-98.5 59.5t-112 3.5t-108 -30.5t-86 -50q-19 -13 -57 -43v-763q0 -33 4.5 -59t10.5 -39t12 -21.5t10 -10.5l5 -2h-205q5 2 11.5 7.5t18 39t11.5 86.5v674q-82 -55 -172 -97
q-23 -11 -69 -29v-548q0 -53 10.5 -86t20.5 -40l10 -6q-38 0 -63 4t-50 16.5t-37.5 41t-12.5 71.5v134q-24 -54 -57 -98.5t-80.5 -84t-115 -62t-148.5 -22.5q-79 0 -144.5 15t-109.5 41t-77 57.5t-51 67.5t-26.5 67.5t-8.5 61.5q0 2 0.5 6t0.5 6q0 60 19.5 105.5t52 73.5
t83 48.5t105.5 30.5t125.5 20t136.5 16.5t147 20t148 31.5v25q-1 54 -6 97.5t-22 91.5t-45 80.5t-77 54t-116 21.5q-130 0 -224.5 -80t-125.5 -212l-107 70q33 69 83.5 120t112 79.5t126 42t136.5 14.5q90 1 159.5 -20t111.5 -54t69 -79t37 -90.5t10 -93.5v-27q36 14 71 31
q89 44 170 98v31q0 53 -10.5 88t-20.5 44l-10 8l163 63v-150q75 55 119 82zM503 57q178 0 275.5 109.5t99.5 287.5v191q-64 -15 -144.5 -26.5t-141.5 -18.5t-127.5 -17t-113 -26t-86 -41.5t-59 -67.5t-19.5 -100q0 -142 84 -216.5t232 -74.5z" />
    <glyph glyph-name="f_f" unicode="ff" horiz-adv-x="996" 
d="M1177 1326q17 -37 -23 -57q-38 -18 -72 -2q-17 9 -24 25q-38 96 -127 101q-22 1 -45 -4.5t-51.5 -26t-50 -54t-36.5 -95.5t-15 -144h244v-39h-244v-899q0 -33 4.5 -59t10.5 -39t12 -21.5t10 -10.5l5 -2h-205q2 1 4.5 2.5t10 10.5t13 22t10 39t4.5 59v898h-288v-899
q0 -33 4.5 -59t10.5 -39t12 -21.5t11 -10.5l4 -2h-205q5 2 11.5 7.5t18 39t11.5 86.5v898h-142v39h142q0 163 89.5 264t246.5 101q135 0 201 -66q85 66 208 66q86 0 147 -28.5t83 -79.5zM612 1069q0 118 49 207q-9 7 -12 16q-38 96 -127 101q-18 1 -37 -3t-42.5 -15
t-43.5 -35t-37.5 -58t-27.5 -89t-10 -124h288z" />
    <glyph glyph-name="f_f_i" unicode="ffi" horiz-adv-x="1244" 
d="M1029 -1q2 1 4.5 2.5t10 10.5t13 22t10 39t4.5 59v735q0 53 -10.5 88t-20.5 43l-11 9l163 63l1 -939q0 -53 10.5 -86t20.5 -39l10 -7h-205zM1121 1138q-42 0 -71.5 30t-29.5 71q0 4 4.5 24.5t5 39t-4.5 39.5t-27.5 35t-60.5 16q-22 1 -45 -4.5t-51.5 -26t-50 -54
t-36.5 -95.5t-15 -144h245v-39h-245l1 -899q0 -33 4.5 -59t10.5 -39t12 -21.5t11 -10.5l4 -2h-206q2 1 4.5 2.5t10 10.5t13 22t10 39t4.5 59v898h-294v-899q0 -33 4.5 -59t10.5 -39t12 -21.5t11 -10.5l4 -2h-205q5 2 11.5 7.5t18 39t11.5 86.5v898h-142v39h142
q0 163 89.5 264t246.5 101q138 0 204 -69q85 69 211 69q42 0 86.5 -11t86.5 -33t68.5 -61.5t26.5 -89.5q0 -42 -29 -71.5t-71 -29.5zM618 1069q0 117 47 203q-12 8 -16 20q-38 95 -127 101q-18 1 -37 -3t-42.5 -15t-43.5 -35t-37.5 -58t-27.5 -89t-10 -124h294z" />
    <glyph glyph-name="f_i" unicode="fi" horiz-adv-x="829" 
d="M705 1138q-41 0 -71 30t-30 71q0 4 4.5 24.5t5 39t-4.5 39.5t-27 35t-60 16q-18 1 -37 -3t-42.5 -15t-43.5 -35t-37.5 -58t-27.5 -89t-10 -124h244v-39h-244v-899q0 -33 4.5 -59t10.5 -39t12 -21.5t11 -10.5l4 -2h-205q5 2 11.5 7.5t18 39t11.5 86.5v898h-142v39h142
q0 163 89.5 264t246.5 101q42 0 86.5 -11t86.5 -33t68.5 -61.5t26.5 -89.5q0 -41 -29.5 -71t-71.5 -30zM614 -1q2 1 4.5 2.5t10 10.5t13 22t10 39t4.5 59v735q0 53 -10.5 88t-21.5 43l-10 9l163 63v-939q0 -33 4.5 -59t10.5 -39t12 -21.5t10 -10.5l5 -2h-205z" />
    <glyph glyph-name="v_i" unicode="vi" horiz-adv-x="1345" 
d="M1324 1136q0 -42 -30.5 -73.5t-72.5 -31.5q-19 0 -50.5 11.5t-58 21.5t-63 6t-69.5 -28.5t-73.5 -89.5t-79.5 -169l-307 -783l-364 930q-13 33 -27.5 60t-26 41t-21.5 23.5t-15 12.5l-6 3h205l-3 -3t-5.5 -12t-3.5 -24t6 -41t19 -60l292 -746l278 748q20 54 51 105
t75 100t105.5 78.5t130.5 29.5q45 0 79.5 -33.5t34.5 -75.5zM1129 0q2 1 4.5 2.5t10 10.5t13 22t10 39t4.5 59v636q0 53 -10.5 87.5t-20.5 43.5l-10 8l162 63l1 -839q0 -33 4.5 -59t10.5 -39t12 -21.5t10 -10.5l5 -2h-206z" />
    <glyph glyph-name="w_i" unicode="wi" horiz-adv-x="1883" 
d="M1863 1136q0 -42 -30.5 -73.5t-72.5 -31.5q-19 0 -50.5 11.5t-58 21.5t-63 6t-69.5 -28.5t-73.5 -89.5t-78.5 -169l-307 -782l-270 687l-270 -687l-364 930q-20 53 -44 87.5t-38 43.5l-14 8h205l-3 -3t-5.5 -12t-3.5 -23.5t6 -40.5t19 -60l292 -747l209 534l-84 213
q-20 53 -44 87.5t-38 43.5l-14 8h205l-3 -3t-5.5 -12t-3.5 -23.5t6 -40.5t19 -60l292 -747l278 748q20 54 50.5 105t75 100t106.5 78.5t131 29.5q45 0 79 -33.5t34 -75.5zM1669 0q5 2 11.5 7.5t18 39t11.5 86.5v636q0 53 -10 87.5t-20 43.5l-11 8l163 63v-839q0 -33 4 -59
t10 -39t12.5 -21.5t10.5 -10.5l4 -2h-204z" />
    <glyph glyph-name="x_i" unicode="xi" horiz-adv-x="1314" 
d="M1191 1031q-22 -1 -53 14.5t-59 27.5t-65 12t-88 -37t-111 -115l-257 -371l284 -430q35 -53 67 -86t47 -40l15 -7h-205q33 13 -46 132l-226 343l-243 -335q-39 -53 -54 -88t-11 -43l5 -9h-105q6 2 17.5 9t48.5 42.5t76 88.5l255 352l-289 439q-35 52 -68.5 87t-49.5 43
l-16 9h206q-3 -2 -5.5 -9t9 -42.5t46.5 -87.5l231 -351l256 380q100 150 190 218t188 68q45 0 79 -33.5t34 -75.5t-30.5 -72.5t-72.5 -32.5zM1100 0q5 2 11.5 7.5t18 39t11.5 86.5v636q0 53 -10.5 87.5t-20.5 43.5l-10 8l163 63v-839q0 -53 10.5 -86t20.5 -40l10 -6h-204z
" />
    <glyph glyph-name=".notdef" horiz-adv-x="70" 
 />
    <glyph glyph-name=".null" horiz-adv-x="0" 
 />
    <glyph glyph-name="nonmarkingreturn" horiz-adv-x="333" 
 />
    <glyph glyph-name="space" unicode=" " horiz-adv-x="520" 
 />
    <glyph glyph-name="space" unicode="&#xa0;" horiz-adv-x="520" 
 />
    <glyph glyph-name="exclam" unicode="!" horiz-adv-x="281" 
d="M108 1300q0 53 -10.5 86t-21.5 40l-10 7h205q-2 -1 -4.5 -2.5t-9.5 -10t-12.5 -21.5t-10 -39t-4.5 -59l-51 -1059h-41zM160 212q41 0 70 -29t29 -70t-29 -70t-70 -29t-70.5 29t-29.5 70t29.5 70t70.5 29z" />
    <glyph glyph-name="quotedbl" unicode="&#x22;" horiz-adv-x="317" 
d="M96 1686h88l-124 -123zM219 1686h88l-124 -123z" />
    <glyph glyph-name="numbersign" unicode="#" horiz-adv-x="755" 
d="M745 1066l-131 -225h94l-32 -56h-95l-76 -130l99 1l-32 -56l-99 -1l-134 -229h-81l134 229h-117l-134 -229h-81l134 229l-91 -1l32 56h92l76 130h-96l32 56h96l133 226h80l-132 -226l117 1l132 225h80zM425 655l76 130l-118 -1l-76 -129h118z" />
    <glyph glyph-name="percent" unicode="%" horiz-adv-x="1850" 
d="M61 1106l-10 -46h-26l22 123q10 2 34 2q21 0 34 -8q14 -8 14 -26q0 -20 -18 -36q-13 -9 -40 -9h-10zM71 1162l-5 -35q2 -2 9 -2q26 0 26 24q0 16 -20 16q-8 0 -10 -3zM222 1160h-48l-4 -25h46l-6 -22h-44l-5 -30h49l-3 -23h-78l24 125h73zM262 1110l-9 -50h-27l24 123
q7 2 32 2q18 0 34 -6q14 -11 14 -24q0 -25 -30 -36q10 -6 13 -24q0 -8 1.5 -20.5t1.5 -14.5h-26q0 1 -4 29q0 21 -16 21h-8zM272 1162l-6 -33h10q11 0 18.5 6.5t7.5 15.5q0 14 -20 14q-8 0 -10 -3zM367 1081q21 0 21 14q0 11 -17 18q-25 14 -25 32q0 20 13.5 31t34.5 11
q11 0 29 -6l-8 -22q-18 4 -23 3q-19 0 -19 -11q0 -9 19 -18q25 -13 25 -31q0 -44 -52 -44q-24 0 -35 9l10 20q18 -6 27 -6zM500 1187q24 0 37 -14.5t13 -37.5q0 -39 -23 -60q-19 -17 -44 -17q-23 0 -37.5 15t-14.5 37q0 33 24 59q18 18 45 18zM507 1089q16 16 16 46t-27 30
q-9 0 -21 -10q-14 -14 -14 -43q0 -31 26 -31q11 0 20 8zM590 1104l-9 -44h-25l25 125h31l17 -48q3 -8 6 -22t5 -20q0 17 6 44l8 46h24l-22 -125h-27l-19 50q-4 10 -7.5 25.5t-4.5 17.5q-1 -4 -2 -13t-2.5 -18.5t-3.5 -17.5zM716 1091l-16 -31h-28l59 125h35l15 -125h-29
l-3 31h-33zM735 1139l-13 -26h27l-4 26v26q-7 -14 -10 -26zM820 1185h25l-20 -102h47l-3 -23h-74zM968 1185l-13 -72v-16q0 -16 15 -16q23 0 28 32l14 72h28l-14 -72q-6 -29 -19 -42t-39 -13q-42 0 -42 39q0 13 2 18l13 70h27zM1074 1081q20 0 20 14q0 10 -16 18
q-28 16 -28 32q0 20 14.5 31t35.5 11q18 0 30 -6l-9 -22q-18 5 -23 3q-20 0 -20 -11q0 -6 20 -18q23 -14 23 -31q0 -22 -14 -33t-35 -11q-29 0 -36 9l8 20q24 -6 30 -6zM1227 1160h-48l-4 -25h44l-4 -22h-46l-4 -30h50l-6 -23h-75l23 125h74zM1364 1075q-23 -17 -45 -17
q-23 0 -36.5 14.5t-13.5 37.5q0 38 24 59q13 18 44 18q24 0 37 -14.5t13 -37.5q0 -41 -23 -60zM1296 1112q0 -31 27 -31q15 0 19 8q18 18 18 46q0 12 -7 21t-20 9q-8 0 -20 -10q-17 -15 -17 -43zM1435 1153q0 -6 -9 -49l-8 -44h-26l24 125h32l16 -48q6 -16 14 -42q0 14 5 44
l6 46h27l-25 -125h-27l-18 50q-10 42 -10 43h-1zM1541 1185h27l-21 -102h48l-4 -23h-73zM1649 1112l-8 -52h-28l11 52l-27 73h30l8 -32q2 -10 6 -22q4 6 12 22l17 32h33zM1728 1073q0 18 19 18q14 0 14 -16q0 -7 -5.5 -12t-13.5 -5q-14 0 -14 15zM1778 1185l-19 -83h-21
l13 83h27zM91 588h-44v-34h40v-11h-40v-48h-14v104h58v-11zM172 534q0 -20 -11 -29.5t-26 -9.5q-16 0 -26 10t-10 27q0 19 10 29.5t26 10.5q37 0 37 -38zM113 532q0 -28 22 -28q11 0 17.5 8.5t6.5 21.5q0 28 -24 28q-22 0 -22 -30zM203 495h-15v53v24h13l2 -16q6 16 19 16h4
v-14q0 2 -4 2q-13 0 -17 -17q-2 -3 -2 -7v-41zM268 548q0 24 15.5 38.5t40.5 14.5q16 0 24 -4l-4 -11q-12 6 -20 6q-19 0 -30.5 -12t-11.5 -32q0 -44 42 -44q8 0 20 6l4 -11q-8 -4 -28 -4q-24 0 -38 13.5t-14 39.5zM394 495q-17 0 -28 10t-11 27q0 19 11 29.5t28 10.5
q16 0 26.5 -10t10.5 -28q0 -19 -11 -29t-26 -10zM394 562q-12 0 -18.5 -8.5t-6.5 -21.5q0 -12 7 -20t18 -8q10 0 16.5 8.5t6.5 21.5q0 11 -6 19.5t-17 8.5zM554 495h-14v43q0 24 -15 24q-13 0 -16 -14q-2 -3 -2 -5v-48h-13v48q0 19 -15 19q-13 0 -18 -14v-5v-48h-14v55v22
h12v-14h2q3 14 24 14q11 0 20 -14l10 10q2 4 16 4q23 0 23 -32v-45zM685 540v-45h-13v43q0 24 -16 24q-11 0 -18 -14v-5v-48h-14v48q0 19 -16 19q-9 0 -18 -14v-5v-48h-11v55q0 14 -2 22h11v-14h2q7 14 24 14q18 0 20 -14l10 10q4 4 16 4q25 0 25 -32zM770 538q0 -2 -1 -4.5
t-1 -3.5h-52q0 -26 25 -26q9 0 21 4l2 -9q-8 -4 -25 -4q-37 0 -37 37q0 17 10 28.5t25 11.5q17 0 25 -10.5t8 -23.5zM716 540h40q0 22 -21 22q-19 0 -19 -22zM785 548v24h10l2 -16q6 16 23 16h3v-14q-1 2 -5 2q-15 0 -19 -17v-7v-41h-14v53zM889 499q-8 -4 -22 -4
q-18 0 -28 10t-10 27q0 18 11 29t29 11q12 0 20 -4l-4 -10q-4 4 -16 4t-19 -9t-7 -21t7 -20t19 -8q4 0 10 2t8 2zM911 601q9 0 9 -9q0 -8 -9 -8q-8 0 -8 8q0 9 8 9zM905 495v77h13v-77h-13zM957 495q-10 0 -16.5 5.5t-6.5 13.5q0 31 46 31q0 17 -16 17q-11 0 -19 -4l-4 8
q9 6 23 6q30 0 30 -29v-29v-19h-12l-2 9q-7 -9 -23 -9zM980 534q-31 0 -31 -16q0 -14 12 -14q11 0 19 12v4v14zM1016 495v111h14v-111h-14zM1050 514h18q-3 -8 -16 -38h-10q8 18 8 38zM1117 495v102q14 4 25 4q18 0 29 -9q10 -5 10 -20q0 -16 -8 -24q-12 -12 -31 -12
q-8 0 -12 2v-43h-13zM1130 590v-42h12q25 0 25 22q0 20 -23 20h-14zM1199 495v111h12v-111h-12zM1293 499q-12 -4 -26 -4q-38 0 -38 37q0 17 10 28.5t26 11.5q31 0 31 -34v-8h-53q0 -26 26 -26q12 0 20 4zM1263 562q-20 0 -20 -22h40q0 22 -20 22zM1366 495h-12l-2 9
q-4 -9 -23 -9q-10 0 -16.5 5.5t-6.5 13.5q0 31 46 31q0 17 -15 17q-12 0 -20 -4l-4 8q9 6 24 6q29 0 29 -29v-29v-19zM1352 520v14q-31 0 -31 -16q0 -14 12 -14q15 0 19 12v4zM1432 516q0 -21 -28 -21q-11 0 -21 4l4 11q9 -6 17 -6q14 0 14 10q0 8 -14 14q-19 8 -19 22
q0 22 25 22q12 0 20 -4l-4 -10q-4 4 -16 4t-12 -10q0 -7 14 -14q20 -6 20 -22zM1510 538v-8h-52q0 -26 25 -26q13 0 21 4l4 -9q-12 -4 -28 -4q-36 0 -36 37q0 17 10 28.5t26 11.5q30 0 30 -34zM1458 540h40q0 22 -20 22t-20 -22zM1617 599h14l-38 -104h-16l-34 104h17
l16 -51q5 -23 11 -38q1 6 5.5 19t6.5 19zM1647 601q8 0 8 -9q0 -8 -10 -8q-6 0 -6 8q0 9 8 9zM1639 495v77h14v-77h-14zM1693 504q14 0 14 10q0 8 -14 14q-21 8 -21 22q0 9 7.5 15.5t19.5 6.5q10 0 18 -4l-2 -10q-8 4 -16 4q-14 0 -14 -10q0 -6 16 -14q19 -6 19 -22
q0 -9 -7.5 -15t-19.5 -6q-15 0 -23 4l4 11q12 -6 19 -6zM1744 601q9 0 9 -9q0 -8 -9 -8q-10 0 -10 8q0 9 10 9zM1753 572v-77h-15v77h15zM1811 560h-21v-40q0 -16 10 -16q2 0 5 1t6 1v-9q-5 -2 -15 -2q-7 0 -14 5q-6 6 -6 18v42h-10v12h10v16l14 4v-20h21v-12zM491 267h-28
v16q-13 -18 -34 -18q-33 0 -33 41q0 29 19 50t48 21q10 0 14 -2l10 48h32l-23 -113q-3 -24 -5 -43zM444 289q17 0 23 30l6 30q-4 4 -12 4q-14 0 -24 -13.5t-10 -29.5q0 -21 17 -21zM575 406q0 -19 -19 -19q-16 0 -16 16q0 7 5.5 12.5t12.5 5.5q17 0 17 -15zM569 375
l-21 -108h-33l22 108h32zM640 267l12 60v12q0 12 -10 12q-8 0 -16.5 -9.5t-11.5 -26.5l-10 -48h-29l13 72q1 6 2 18.5t2 17.5h30l-4 -17h2q16 19 38 19q27 0 27 -30q0 -6 -4 -18l-9 -62h-32zM700 313l6 24h56l-4 -24h-58zM823 353q-14 0 -14 -8q0 -6 14 -12q24 -12 24 -29
q0 -39 -50 -39q-19 0 -31 8l8 23q22 -9 25 -9q15 0 15 11q0 6 -13 14q-24 10 -24 27q0 18 13.5 28t34.5 10q19 0 28 -6l-8 -22q-8 4 -22 4zM911 349l-8 -36q0 -1 -1 -6t-1 -7q0 -9 10 -9h9l-4 -24q-5 -2 -19 -2q-28 0 -28 22q0 13 1 21l9 41h-12l2 26h14l6 22l31 8l-5 -30
h22l-5 -26h-21zM1034 267h-27l2 18q-16 -20 -39 -20q-27 0 -27 31q0 3 1 9t1 10l12 60h29l-10 -58q0 -2 -1 -7t-1 -6q0 -15 12 -15q9 0 16.5 10t9.5 26l8 50h34l-14 -71q-1 -6 -3.5 -19.5t-2.5 -17.5zM1157 267h-27l2 16q-14 -18 -36 -18q-14 0 -24 11t-10 30q0 29 19.5 50
t48.5 21q10 0 16 -2l7 48h33l-23 -113q-1 -4 -3 -20t-3 -23zM1109 289q8 0 16 8t11 22l4 30q-4 4 -12 4q-15 0 -23.5 -13t-8.5 -30q0 -21 13 -21zM1243 406q0 -8 -6 -13.5t-14 -5.5q-16 0 -16 16q0 7 5.5 12.5t12.5 5.5t12.5 -4.5t5.5 -10.5zM1235 375l-20 -108h-34l22 108
h32zM1289 265q-20 0 -32 12.5t-12 32.5q0 28 18 47.5t45 19.5q21 0 33.5 -12.5t12.5 -31.5q0 -29 -18.5 -48.5t-46.5 -19.5zM1304 353q-12 0 -19.5 -14t-7.5 -29q0 -21 17 -21q13 0 21 13.5t8 30.5q0 20 -19 20zM1381 265q-19 0 -19 18q0 23 21 23q19 0 19 -21
q0 -9 -6 -14.5t-15 -5.5zM1489 351q-15 0 -25 -11.5t-10 -26.5q0 -11 6.5 -17.5t15.5 -6.5q4 0 12.5 3.5t9.5 3.5v-27q-18 -4 -30 -4q-21 0 -33.5 12t-12.5 33q0 28 19.5 47.5t49.5 19.5q11 0 23 -4l-8 -24q-1 0 -6.5 1t-10.5 1zM1562 265q-22 0 -34 12.5t-12 32.5
q0 28 17.5 47.5t45.5 19.5q21 0 33.5 -12.5t12.5 -31.5q0 -29 -18.5 -48.5t-44.5 -19.5zM1576 353q-13 0 -21 -14t-8 -29q0 -21 17 -21q12 0 19.5 14t7.5 30q0 20 -15 20zM1761 267l9 60q2 2 2 12q0 12 -9 12q-8 0 -16 -10t-11 -24l-8 -50h-31l12 60v12q0 12 -10 12
q-17 0 -27 -36l-7 -48h-30l14 72q1 6 2 18.5t2 17.5h27l-2 -17q16 19 37 19q12 0 18.5 -6t6.5 -13q16 19 38 19q26 0 26 -28q0 -3 -1 -10t-1 -10l-12 -62h-29zM147 659q-59 1 -93 30t-34 72q0 31 13.5 44.5t27.5 13.5q24 0 32.5 -19.5t-4.5 -30.5q0 18 -19 21q-22 3 -29 -19
q-2 -6 -2 -14q0 -36 29.5 -56.5t78.5 -20.5q30 0 51.5 13.5t31.5 37t14 46.5t4 50v26.5t-1.5 28t-5.5 31.5t-10 24.5t-17 20t-26 6.5q-10 0 -10 -24v-67v-2v-112q0 -11 4 -17.5t8 -7.5h5v-9h-94v9q14 0 15 21v189q0 29 -23 29q-9 0 -14.5 -4t-5.5 -9q0 -7 4.5 -10.5
t8.5 -3.5h5q0 -27 -25 -27q-12 0 -19 6.5t-8.5 11.5t-1.5 9q0 19 18.5 30.5t37.5 11.5q18 0 45 -7.5t50 -7.5q121 0 121 -146q0 -67 -41.5 -119t-120.5 -49zM423 734v-9h-93v9q14 0 16 21v100q-1 10 -5 15.5t-7 5.5l-4 1v7l75 14v-139q0 -11 4.5 -17.5t8.5 -7.5h5zM378 968
q12 0 19.5 -8.5t7.5 -19.5q0 -12 -7.5 -21t-19.5 -9t-20 9t-8 21q0 11 8 19.5t20 8.5zM521 877q20 23 50 23q22 0 36.5 -14t14.5 -40v-87q0 -25 16 -25v-9h-94v9q14 0 16 21v98q0 18 -16 19t-22 -17q-1 -4 -1 -9v-87q0 -11 4 -17.5t8 -7.5h4v-9h-93v9q13 0 15 21v100
q-1 10 -4.5 15.5t-6.5 5.5l-4 1v7l77 14v-21zM803 910q0 3 0.5 7t5.5 15t14 19t28.5 15t45.5 7q18 0 35 -4.5t21 -5.5t17 5q6 3 12 3v-63l-8 -2q0 2 -1 5.5t-6 12.5t-13 16t-23 12.5t-34 5.5q-21 0 -34 -13.5t-12 -29t16 -21.5q7 -3 37.5 -11.5t51 -16t38.5 -29t17 -51.5
q-2 -27 -28.5 -44t-75.5 -17q-21 0 -38.5 2.5t-24 4.5t-12 0.5t-9.5 -7.5h-9v66h9q0 -20 25.5 -33t56.5 -13t44.5 15t4 32.5t-33.5 24.5q-3 1 -17 5t-20 6t-18.5 7t-19 9t-16 11t-14.5 14.5t-8.5 18t-3.5 22.5zM1115 890h-3.5t-7 -4.5t-6.5 -12.5v-118q1 -9 5 -14.5t8 -6.5
h4v-9h-25q-15 0 -23.5 1.5t-18.5 13t-10 33.5v98q-1 9 -5.5 14t-8.5 5h-4v8q24 0 46 11.5t32 11.5v-23h17v-8zM1132 890v10h89v-10h-3t-5.5 -5t-3.5 -14v-92q0 -19 10 -24t20 3t10 21v88q0 11 -3.5 17t-7.5 6h-3v10h92v-10h-4.5t-8 -5t-6.5 -14v-116q1 -9 6 -14.5t9 -6.5h4
v-9h-44q-14 0 -24 9.5t-10 18.5q-17 -28 -44 -28q-22 0 -39.5 14.5t-17.5 39.5v88q0 23 -16 23zM1585 686q0 -27 -34 -27q-15 0 -32.5 4t-38.5 22t-26 47q-18 -7 -30 -7q-34 0 -59.5 26t-25.5 62t25.5 61.5t59.5 25.5q4 0 28 -6v79l77 -13v-8h-1q-2 0 -4.5 -1t-4.5 -3
t-4 -6.5t-3 -11.5v-181q3 -71 41 -77q-6 6 -6 14q0 7 6 13t15 6q7 0 12 -6t5 -13zM1424 739q28 0 28 74q0 75 -28 75q-26 0 -26 -75q0 -74 26 -74zM1633 734v-9h-94v9q14 0 16 21v100q-1 10 -5 15.5t-8 5.5l-3 1v7l78 14v-139q0 -11 4 -17.5t8 -7.5h4zM1560 940q0 11 8 19.5
t19 8.5q12 0 20 -8.5t8 -19.5q0 -12 -8 -21t-20 -9q-11 0 -19 9t-8 21zM1806 813q0 -36 -25 -62t-61 -26t-60.5 26t-24.5 62t24.5 60.5t60.5 24.5t61 -24.5t25 -60.5zM1720 739q27 0 27 74q0 37 -5 55t-22 18q-16 0 -20.5 -18t-4.5 -55t4.5 -55.5t20.5 -18.5zM33 289v44h322
v-44h-322zM941 1239h-196l148 187h197zM1809 1239h-185l148 187h37v-187zM355 1239h-196l150 187h196zM1233 1239h-195l150 187h195zM212 1426l-151 -187h-28v187h179zM648 1239h-195l149 187h195zM1528 1239h-197l149 187h194zM893 210h197l-149 -187h-196zM1624 23
l148 187h37v-187h-185zM309 210h196l-150 -187h-196zM1188 210h195l-150 -187h-195zM33 210h179l-151 -187h-28v187zM602 210h195l-149 -187h-195zM1480 210h194l-146 -187h-197z" />
    <glyph glyph-name="ampersand" unicode="&#x26;" horiz-adv-x="1850" 
d="M61 1106l-10 -46h-26l22 123q10 2 34 2q21 0 34 -8q14 -8 14 -26q0 -20 -18 -36q-13 -9 -40 -9h-10zM71 1162l-5 -35q2 -2 9 -2q26 0 26 24q0 16 -20 16q-8 0 -10 -3zM222 1160h-48l-4 -25h46l-6 -22h-44l-5 -30h49l-3 -23h-78l24 125h73zM262 1110l-9 -50h-27l24 123
q7 2 32 2q18 0 34 -6q14 -11 14 -24q0 -25 -30 -36q10 -6 13 -24q0 -8 1.5 -20.5t1.5 -14.5h-26q0 1 -4 29q0 21 -16 21h-8zM272 1162l-6 -33h10q11 0 18.5 6.5t7.5 15.5q0 14 -20 14q-8 0 -10 -3zM367 1081q21 0 21 14q0 11 -17 18q-25 14 -25 32q0 20 13.5 31t34.5 11
q11 0 29 -6l-8 -22q-18 4 -23 3q-19 0 -19 -11q0 -9 19 -18q25 -13 25 -31q0 -44 -52 -44q-24 0 -35 9l10 20q18 -6 27 -6zM500 1187q24 0 37 -14.5t13 -37.5q0 -39 -23 -60q-19 -17 -44 -17q-23 0 -37.5 15t-14.5 37q0 33 24 59q18 18 45 18zM507 1089q16 16 16 46t-27 30
q-9 0 -21 -10q-14 -14 -14 -43q0 -31 26 -31q11 0 20 8zM590 1104l-9 -44h-25l25 125h31l17 -48q3 -8 6 -22t5 -20q0 17 6 44l8 46h24l-22 -125h-27l-19 50q-4 10 -7.5 25.5t-4.5 17.5q-1 -4 -2 -13t-2.5 -18.5t-3.5 -17.5zM716 1091l-16 -31h-28l59 125h35l15 -125h-29
l-3 31h-33zM735 1139l-13 -26h27l-4 26v26q-7 -14 -10 -26zM820 1185h25l-20 -102h47l-3 -23h-74zM968 1185l-13 -72v-16q0 -16 15 -16q23 0 28 32l14 72h28l-14 -72q-6 -29 -19 -42t-39 -13q-42 0 -42 39q0 13 2 18l13 70h27zM1074 1081q20 0 20 14q0 10 -16 18
q-28 16 -28 32q0 20 14.5 31t35.5 11q18 0 30 -6l-9 -22q-18 5 -23 3q-20 0 -20 -11q0 -6 20 -18q23 -14 23 -31q0 -22 -14 -33t-35 -11q-29 0 -36 9l8 20q24 -6 30 -6zM1227 1160h-48l-4 -25h44l-4 -22h-46l-4 -30h50l-6 -23h-75l23 125h74zM1364 1075q-23 -17 -45 -17
q-23 0 -36.5 14.5t-13.5 37.5q0 38 24 59q13 18 44 18q24 0 37 -14.5t13 -37.5q0 -41 -23 -60zM1296 1112q0 -31 27 -31q15 0 19 8q18 18 18 46q0 12 -7 21t-20 9q-8 0 -20 -10q-17 -15 -17 -43zM1435 1153q0 -6 -9 -49l-8 -44h-26l24 125h32l16 -48q6 -16 14 -42q0 14 5 44
l6 46h27l-25 -125h-27l-18 50q-10 42 -10 43h-1zM1541 1185h27l-21 -102h48l-4 -23h-73zM1649 1112l-8 -52h-28l11 52l-27 73h30l8 -32q2 -10 6 -22q4 6 12 22l17 32h33zM1728 1073q0 18 19 18q14 0 14 -16q0 -7 -5.5 -12t-13.5 -5q-14 0 -14 15zM1778 1185l-19 -83h-21
l13 83h27zM91 588h-44v-34h40v-11h-40v-48h-14v104h58v-11zM172 534q0 -20 -11 -29.5t-26 -9.5q-16 0 -26 10t-10 27q0 19 10 29.5t26 10.5q37 0 37 -38zM113 532q0 -28 22 -28q11 0 17.5 8.5t6.5 21.5q0 28 -24 28q-22 0 -22 -30zM203 495h-15v53v24h13l2 -16q6 16 19 16h4
v-14q0 2 -4 2q-13 0 -17 -17q-2 -3 -2 -7v-41zM268 548q0 24 15.5 38.5t40.5 14.5q16 0 24 -4l-4 -11q-12 6 -20 6q-19 0 -30.5 -12t-11.5 -32q0 -44 42 -44q8 0 20 6l4 -11q-8 -4 -28 -4q-24 0 -38 13.5t-14 39.5zM394 495q-17 0 -28 10t-11 27q0 19 11 29.5t28 10.5
q16 0 26.5 -10t10.5 -28q0 -19 -11 -29t-26 -10zM394 562q-12 0 -18.5 -8.5t-6.5 -21.5q0 -12 7 -20t18 -8q10 0 16.5 8.5t6.5 21.5q0 11 -6 19.5t-17 8.5zM554 495h-14v43q0 24 -15 24q-13 0 -16 -14q-2 -3 -2 -5v-48h-13v48q0 19 -15 19q-13 0 -18 -14v-5v-48h-14v55v22
h12v-14h2q3 14 24 14q11 0 20 -14l10 10q2 4 16 4q23 0 23 -32v-45zM685 540v-45h-13v43q0 24 -16 24q-11 0 -18 -14v-5v-48h-14v48q0 19 -16 19q-9 0 -18 -14v-5v-48h-11v55q0 14 -2 22h11v-14h2q7 14 24 14q18 0 20 -14l10 10q4 4 16 4q25 0 25 -32zM770 538q0 -2 -1 -4.5
t-1 -3.5h-52q0 -26 25 -26q9 0 21 4l2 -9q-8 -4 -25 -4q-37 0 -37 37q0 17 10 28.5t25 11.5q17 0 25 -10.5t8 -23.5zM716 540h40q0 22 -21 22q-19 0 -19 -22zM785 548v24h10l2 -16q6 16 23 16h3v-14q-1 2 -5 2q-15 0 -19 -17v-7v-41h-14v53zM889 499q-8 -4 -22 -4
q-18 0 -28 10t-10 27q0 18 11 29t29 11q12 0 20 -4l-4 -10q-4 4 -16 4t-19 -9t-7 -21t7 -20t19 -8q4 0 10 2t8 2zM911 601q9 0 9 -9q0 -8 -9 -8q-8 0 -8 8q0 9 8 9zM905 495v77h13v-77h-13zM957 495q-10 0 -16.5 5.5t-6.5 13.5q0 31 46 31q0 17 -16 17q-11 0 -19 -4l-4 8
q9 6 23 6q30 0 30 -29v-29v-19h-12l-2 9q-7 -9 -23 -9zM980 534q-31 0 -31 -16q0 -14 12 -14q11 0 19 12v4v14zM1016 495v111h14v-111h-14zM1050 514h18q-3 -8 -16 -38h-10q8 18 8 38zM1117 495v102q14 4 25 4q18 0 29 -9q10 -5 10 -20q0 -16 -8 -24q-12 -12 -31 -12
q-8 0 -12 2v-43h-13zM1130 590v-42h12q25 0 25 22q0 20 -23 20h-14zM1199 495v111h12v-111h-12zM1293 499q-12 -4 -26 -4q-38 0 -38 37q0 17 10 28.5t26 11.5q31 0 31 -34v-8h-53q0 -26 26 -26q12 0 20 4zM1263 562q-20 0 -20 -22h40q0 22 -20 22zM1366 495h-12l-2 9
q-4 -9 -23 -9q-10 0 -16.5 5.5t-6.5 13.5q0 31 46 31q0 17 -15 17q-12 0 -20 -4l-4 8q9 6 24 6q29 0 29 -29v-29v-19zM1352 520v14q-31 0 -31 -16q0 -14 12 -14q15 0 19 12v4zM1432 516q0 -21 -28 -21q-11 0 -21 4l4 11q9 -6 17 -6q14 0 14 10q0 8 -14 14q-19 8 -19 22
q0 22 25 22q12 0 20 -4l-4 -10q-4 4 -16 4t-12 -10q0 -7 14 -14q20 -6 20 -22zM1510 538v-8h-52q0 -26 25 -26q13 0 21 4l4 -9q-12 -4 -28 -4q-36 0 -36 37q0 17 10 28.5t26 11.5q30 0 30 -34zM1458 540h40q0 22 -20 22t-20 -22zM1617 599h14l-38 -104h-16l-34 104h17
l16 -51q5 -23 11 -38q1 6 5.5 19t6.5 19zM1647 601q8 0 8 -9q0 -8 -10 -8q-6 0 -6 8q0 9 8 9zM1639 495v77h14v-77h-14zM1693 504q14 0 14 10q0 8 -14 14q-21 8 -21 22q0 9 7.5 15.5t19.5 6.5q10 0 18 -4l-2 -10q-8 4 -16 4q-14 0 -14 -10q0 -6 16 -14q19 -6 19 -22
q0 -9 -7.5 -15t-19.5 -6q-15 0 -23 4l4 11q12 -6 19 -6zM1744 601q9 0 9 -9q0 -8 -9 -8q-10 0 -10 8q0 9 10 9zM1753 572v-77h-15v77h15zM1811 560h-21v-40q0 -16 10 -16q2 0 5 1t6 1v-9q-5 -2 -15 -2q-7 0 -14 5q-6 6 -6 18v42h-10v12h10v16l14 4v-20h21v-12zM491 267h-28
v16q-13 -18 -34 -18q-33 0 -33 41q0 29 19 50t48 21q10 0 14 -2l10 48h32l-23 -113q-3 -24 -5 -43zM444 289q17 0 23 30l6 30q-4 4 -12 4q-14 0 -24 -13.5t-10 -29.5q0 -21 17 -21zM575 406q0 -19 -19 -19q-16 0 -16 16q0 7 5.5 12.5t12.5 5.5q17 0 17 -15zM569 375
l-21 -108h-33l22 108h32zM640 267l12 60v12q0 12 -10 12q-8 0 -16.5 -9.5t-11.5 -26.5l-10 -48h-29l13 72q1 6 2 18.5t2 17.5h30l-4 -17h2q16 19 38 19q27 0 27 -30q0 -6 -4 -18l-9 -62h-32zM700 313l6 24h56l-4 -24h-58zM823 353q-14 0 -14 -8q0 -6 14 -12q24 -12 24 -29
q0 -39 -50 -39q-19 0 -31 8l8 23q22 -9 25 -9q15 0 15 11q0 6 -13 14q-24 10 -24 27q0 18 13.5 28t34.5 10q19 0 28 -6l-8 -22q-8 4 -22 4zM911 349l-8 -36q0 -1 -1 -6t-1 -7q0 -9 10 -9h9l-4 -24q-5 -2 -19 -2q-28 0 -28 22q0 13 1 21l9 41h-12l2 26h14l6 22l31 8l-5 -30
h22l-5 -26h-21zM1034 267h-27l2 18q-16 -20 -39 -20q-27 0 -27 31q0 3 1 9t1 10l12 60h29l-10 -58q0 -2 -1 -7t-1 -6q0 -15 12 -15q9 0 16.5 10t9.5 26l8 50h34l-14 -71q-1 -6 -3.5 -19.5t-2.5 -17.5zM1157 267h-27l2 16q-14 -18 -36 -18q-14 0 -24 11t-10 30q0 29 19.5 50
t48.5 21q10 0 16 -2l7 48h33l-23 -113q-1 -4 -3 -20t-3 -23zM1109 289q8 0 16 8t11 22l4 30q-4 4 -12 4q-15 0 -23.5 -13t-8.5 -30q0 -21 13 -21zM1243 406q0 -8 -6 -13.5t-14 -5.5q-16 0 -16 16q0 7 5.5 12.5t12.5 5.5t12.5 -4.5t5.5 -10.5zM1235 375l-20 -108h-34l22 108
h32zM1289 265q-20 0 -32 12.5t-12 32.5q0 28 18 47.5t45 19.5q21 0 33.5 -12.5t12.5 -31.5q0 -29 -18.5 -48.5t-46.5 -19.5zM1304 353q-12 0 -19.5 -14t-7.5 -29q0 -21 17 -21q13 0 21 13.5t8 30.5q0 20 -19 20zM1381 265q-19 0 -19 18q0 23 21 23q19 0 19 -21
q0 -9 -6 -14.5t-15 -5.5zM1489 351q-15 0 -25 -11.5t-10 -26.5q0 -11 6.5 -17.5t15.5 -6.5q4 0 12.5 3.5t9.5 3.5v-27q-18 -4 -30 -4q-21 0 -33.5 12t-12.5 33q0 28 19.5 47.5t49.5 19.5q11 0 23 -4l-8 -24q-1 0 -6.5 1t-10.5 1zM1562 265q-22 0 -34 12.5t-12 32.5
q0 28 17.5 47.5t45.5 19.5q21 0 33.5 -12.5t12.5 -31.5q0 -29 -18.5 -48.5t-44.5 -19.5zM1576 353q-13 0 -21 -14t-8 -29q0 -21 17 -21q12 0 19.5 14t7.5 30q0 20 -15 20zM1761 267l9 60q2 2 2 12q0 12 -9 12q-8 0 -16 -10t-11 -24l-8 -50h-31l12 60v12q0 12 -10 12
q-17 0 -27 -36l-7 -48h-30l14 72q1 6 2 18.5t2 17.5h27l-2 -17q16 19 37 19q12 0 18.5 -6t6.5 -13q16 19 38 19q26 0 26 -28q0 -3 -1 -10t-1 -10l-12 -62h-29zM147 659q-59 1 -93 30t-34 72q0 31 13.5 44.5t27.5 13.5q24 0 32.5 -19.5t-4.5 -30.5q0 18 -19 21q-22 3 -29 -19
q-2 -6 -2 -14q0 -36 29.5 -56.5t78.5 -20.5q30 0 51.5 13.5t31.5 37t14 46.5t4 50v26.5t-1.5 28t-5.5 31.5t-10 24.5t-17 20t-26 6.5q-10 0 -10 -24v-67v-2v-112q0 -11 4 -17.5t8 -7.5h5v-9h-94v9q14 0 15 21v189q0 29 -23 29q-9 0 -14.5 -4t-5.5 -9q0 -7 4.5 -10.5
t8.5 -3.5h5q0 -27 -25 -27q-12 0 -19 6.5t-8.5 11.5t-1.5 9q0 19 18.5 30.5t37.5 11.5q18 0 45 -7.5t50 -7.5q121 0 121 -146q0 -67 -41.5 -119t-120.5 -49zM423 734v-9h-93v9q14 0 16 21v100q-1 10 -5 15.5t-7 5.5l-4 1v7l75 14v-139q0 -11 4.5 -17.5t8.5 -7.5h5zM378 968
q12 0 19.5 -8.5t7.5 -19.5q0 -12 -7.5 -21t-19.5 -9t-20 9t-8 21q0 11 8 19.5t20 8.5zM521 877q20 23 50 23q22 0 36.5 -14t14.5 -40v-87q0 -25 16 -25v-9h-94v9q14 0 16 21v98q0 18 -16 19t-22 -17q-1 -4 -1 -9v-87q0 -11 4 -17.5t8 -7.5h4v-9h-93v9q13 0 15 21v100
q-1 10 -4.5 15.5t-6.5 5.5l-4 1v7l77 14v-21zM803 910q0 3 0.5 7t5.5 15t14 19t28.5 15t45.5 7q18 0 35 -4.5t21 -5.5t17 5q6 3 12 3v-63l-8 -2q0 2 -1 5.5t-6 12.5t-13 16t-23 12.5t-34 5.5q-21 0 -34 -13.5t-12 -29t16 -21.5q7 -3 37.5 -11.5t51 -16t38.5 -29t17 -51.5
q-2 -27 -28.5 -44t-75.5 -17q-21 0 -38.5 2.5t-24 4.5t-12 0.5t-9.5 -7.5h-9v66h9q0 -20 25.5 -33t56.5 -13t44.5 15t4 32.5t-33.5 24.5q-3 1 -17 5t-20 6t-18.5 7t-19 9t-16 11t-14.5 14.5t-8.5 18t-3.5 22.5zM1115 890h-3.5t-7 -4.5t-6.5 -12.5v-118q1 -9 5 -14.5t8 -6.5
h4v-9h-25q-15 0 -23.5 1.5t-18.5 13t-10 33.5v98q-1 9 -5.5 14t-8.5 5h-4v8q24 0 46 11.5t32 11.5v-23h17v-8zM1132 890v10h89v-10h-3t-5.5 -5t-3.5 -14v-92q0 -19 10 -24t20 3t10 21v88q0 11 -3.5 17t-7.5 6h-3v10h92v-10h-4.5t-8 -5t-6.5 -14v-116q1 -9 6 -14.5t9 -6.5h4
v-9h-44q-14 0 -24 9.5t-10 18.5q-17 -28 -44 -28q-22 0 -39.5 14.5t-17.5 39.5v88q0 23 -16 23zM1585 686q0 -27 -34 -27q-15 0 -32.5 4t-38.5 22t-26 47q-18 -7 -30 -7q-34 0 -59.5 26t-25.5 62t25.5 61.5t59.5 25.5q4 0 28 -6v79l77 -13v-8h-1q-2 0 -4.5 -1t-4.5 -3
t-4 -6.5t-3 -11.5v-181q3 -71 41 -77q-6 6 -6 14q0 7 6 13t15 6q7 0 12 -6t5 -13zM1424 739q28 0 28 74q0 75 -28 75q-26 0 -26 -75q0 -74 26 -74zM1633 734v-9h-94v9q14 0 16 21v100q-1 10 -5 15.5t-8 5.5l-3 1v7l78 14v-139q0 -11 4 -17.5t8 -7.5h4zM1560 940q0 11 8 19.5
t19 8.5q12 0 20 -8.5t8 -19.5q0 -12 -8 -21t-20 -9q-11 0 -19 9t-8 21zM1806 813q0 -36 -25 -62t-61 -26t-60.5 26t-24.5 62t24.5 60.5t60.5 24.5t61 -24.5t25 -60.5zM1720 739q27 0 27 74q0 37 -5 55t-22 18q-16 0 -20.5 -18t-4.5 -55t4.5 -55.5t20.5 -18.5zM33 289v44h322
v-44h-322zM941 1239h-196l148 187h197zM1809 1239h-185l148 187h37v-187zM355 1239h-196l150 187h196zM1233 1239h-195l150 187h195zM212 1426l-151 -187h-28v187h179zM648 1239h-195l149 187h195zM1528 1239h-197l149 187h194zM893 210h197l-149 -187h-196zM1624 23
l148 187h37v-187h-185zM309 210h196l-150 -187h-196zM1188 210h195l-150 -187h-195zM33 210h179l-151 -187h-28v187zM602 210h195l-149 -187h-195zM1480 210h194l-146 -187h-197z" />
    <glyph glyph-name="quotesingle" unicode="'" horiz-adv-x="194" 
d="M96 1686h88l-124 -123z" />
    <glyph glyph-name="parenleft" unicode="(" horiz-adv-x="686" 
d="M676 1390q-133 -5 -245.5 -96t-178 -243.5t-65.5 -331.5t65.5 -332t178 -244t245.5 -96v-44q-168 4 -309.5 100.5t-224 259t-82.5 353.5t82.5 353.5t224 259.5t309.5 101v-40z" />
    <glyph glyph-name="parenright" unicode=")" horiz-adv-x="686" 
d="M60 1430q168 -4 310 -101t224 -259.5t82 -353.5t-82 -353.5t-224 -259t-310 -100.5v44q134 5 246.5 96t177.5 243.5t65 332.5q0 179 -65 331.5t-177.5 243.5t-246.5 96v40z" />
    <glyph glyph-name="asterisk" unicode="*" horiz-adv-x="257" 
d="M247 1277l-77 -19l77 -18l-25 -43l-57 39l15 -62h-53l16 62l-58 -39l-25 43l78 18l-78 19l25 42l59 -35l-17 58h53l-16 -58l58 35z" />
    <glyph glyph-name="plus" unicode="+" horiz-adv-x="497" 
d="M320 752h167v-70h-167v-126h-93v126h-167v70h167v127h93v-127z" />
    <glyph glyph-name="comma" unicode="," horiz-adv-x="1850" 
d="M61 1106l-10 -46h-26l22 123q10 2 34 2q21 0 34 -8q14 -8 14 -26q0 -20 -18 -36q-13 -9 -40 -9h-10zM71 1162l-5 -35q2 -2 9 -2q26 0 26 24q0 16 -20 16q-8 0 -10 -3zM222 1160h-48l-4 -25h46l-6 -22h-44l-5 -30h49l-3 -23h-78l24 125h73zM262 1110l-9 -50h-27l24 123
q7 2 32 2q18 0 34 -6q14 -11 14 -24q0 -25 -30 -36q10 -6 13 -24q0 -8 1.5 -20.5t1.5 -14.5h-26q0 1 -4 29q0 21 -16 21h-8zM272 1162l-6 -33h10q11 0 18.5 6.5t7.5 15.5q0 14 -20 14q-8 0 -10 -3zM367 1081q21 0 21 14q0 11 -17 18q-25 14 -25 32q0 20 13.5 31t34.5 11
q11 0 29 -6l-8 -22q-18 4 -23 3q-19 0 -19 -11q0 -9 19 -18q25 -13 25 -31q0 -44 -52 -44q-24 0 -35 9l10 20q18 -6 27 -6zM500 1187q24 0 37 -14.5t13 -37.5q0 -39 -23 -60q-19 -17 -44 -17q-23 0 -37.5 15t-14.5 37q0 33 24 59q18 18 45 18zM507 1089q16 16 16 46t-27 30
q-9 0 -21 -10q-14 -14 -14 -43q0 -31 26 -31q11 0 20 8zM590 1104l-9 -44h-25l25 125h31l17 -48q3 -8 6 -22t5 -20q0 17 6 44l8 46h24l-22 -125h-27l-19 50q-4 10 -7.5 25.5t-4.5 17.5q-1 -4 -2 -13t-2.5 -18.5t-3.5 -17.5zM716 1091l-16 -31h-28l59 125h35l15 -125h-29
l-3 31h-33zM735 1139l-13 -26h27l-4 26v26q-7 -14 -10 -26zM820 1185h25l-20 -102h47l-3 -23h-74zM968 1185l-13 -72v-16q0 -16 15 -16q23 0 28 32l14 72h28l-14 -72q-6 -29 -19 -42t-39 -13q-42 0 -42 39q0 13 2 18l13 70h27zM1074 1081q20 0 20 14q0 10 -16 18
q-28 16 -28 32q0 20 14.5 31t35.5 11q18 0 30 -6l-9 -22q-18 5 -23 3q-20 0 -20 -11q0 -6 20 -18q23 -14 23 -31q0 -22 -14 -33t-35 -11q-29 0 -36 9l8 20q24 -6 30 -6zM1227 1160h-48l-4 -25h44l-4 -22h-46l-4 -30h50l-6 -23h-75l23 125h74zM1364 1075q-23 -17 -45 -17
q-23 0 -36.5 14.5t-13.5 37.5q0 38 24 59q13 18 44 18q24 0 37 -14.5t13 -37.5q0 -41 -23 -60zM1296 1112q0 -31 27 -31q15 0 19 8q18 18 18 46q0 12 -7 21t-20 9q-8 0 -20 -10q-17 -15 -17 -43zM1435 1153q0 -6 -9 -49l-8 -44h-26l24 125h32l16 -48q6 -16 14 -42q0 14 5 44
l6 46h27l-25 -125h-27l-18 50q-10 42 -10 43h-1zM1541 1185h27l-21 -102h48l-4 -23h-73zM1649 1112l-8 -52h-28l11 52l-27 73h30l8 -32q2 -10 6 -22q4 6 12 22l17 32h33zM1728 1073q0 18 19 18q14 0 14 -16q0 -7 -5.5 -12t-13.5 -5q-14 0 -14 15zM1778 1185l-19 -83h-21
l13 83h27zM91 588h-44v-34h40v-11h-40v-48h-14v104h58v-11zM172 534q0 -20 -11 -29.5t-26 -9.5q-16 0 -26 10t-10 27q0 19 10 29.5t26 10.5q37 0 37 -38zM113 532q0 -28 22 -28q11 0 17.5 8.5t6.5 21.5q0 28 -24 28q-22 0 -22 -30zM203 495h-15v53v24h13l2 -16q6 16 19 16h4
v-14q0 2 -4 2q-13 0 -17 -17q-2 -3 -2 -7v-41zM268 548q0 24 15.5 38.5t40.5 14.5q16 0 24 -4l-4 -11q-12 6 -20 6q-19 0 -30.5 -12t-11.5 -32q0 -44 42 -44q8 0 20 6l4 -11q-8 -4 -28 -4q-24 0 -38 13.5t-14 39.5zM394 495q-17 0 -28 10t-11 27q0 19 11 29.5t28 10.5
q16 0 26.5 -10t10.5 -28q0 -19 -11 -29t-26 -10zM394 562q-12 0 -18.5 -8.5t-6.5 -21.5q0 -12 7 -20t18 -8q10 0 16.5 8.5t6.5 21.5q0 11 -6 19.5t-17 8.5zM554 495h-14v43q0 24 -15 24q-13 0 -16 -14q-2 -3 -2 -5v-48h-13v48q0 19 -15 19q-13 0 -18 -14v-5v-48h-14v55v22
h12v-14h2q3 14 24 14q11 0 20 -14l10 10q2 4 16 4q23 0 23 -32v-45zM685 540v-45h-13v43q0 24 -16 24q-11 0 -18 -14v-5v-48h-14v48q0 19 -16 19q-9 0 -18 -14v-5v-48h-11v55q0 14 -2 22h11v-14h2q7 14 24 14q18 0 20 -14l10 10q4 4 16 4q25 0 25 -32zM770 538q0 -2 -1 -4.5
t-1 -3.5h-52q0 -26 25 -26q9 0 21 4l2 -9q-8 -4 -25 -4q-37 0 -37 37q0 17 10 28.5t25 11.5q17 0 25 -10.5t8 -23.5zM716 540h40q0 22 -21 22q-19 0 -19 -22zM785 548v24h10l2 -16q6 16 23 16h3v-14q-1 2 -5 2q-15 0 -19 -17v-7v-41h-14v53zM889 499q-8 -4 -22 -4
q-18 0 -28 10t-10 27q0 18 11 29t29 11q12 0 20 -4l-4 -10q-4 4 -16 4t-19 -9t-7 -21t7 -20t19 -8q4 0 10 2t8 2zM911 601q9 0 9 -9q0 -8 -9 -8q-8 0 -8 8q0 9 8 9zM905 495v77h13v-77h-13zM957 495q-10 0 -16.5 5.5t-6.5 13.5q0 31 46 31q0 17 -16 17q-11 0 -19 -4l-4 8
q9 6 23 6q30 0 30 -29v-29v-19h-12l-2 9q-7 -9 -23 -9zM980 534q-31 0 -31 -16q0 -14 12 -14q11 0 19 12v4v14zM1016 495v111h14v-111h-14zM1050 514h18q-3 -8 -16 -38h-10q8 18 8 38zM1117 495v102q14 4 25 4q18 0 29 -9q10 -5 10 -20q0 -16 -8 -24q-12 -12 -31 -12
q-8 0 -12 2v-43h-13zM1130 590v-42h12q25 0 25 22q0 20 -23 20h-14zM1199 495v111h12v-111h-12zM1293 499q-12 -4 -26 -4q-38 0 -38 37q0 17 10 28.5t26 11.5q31 0 31 -34v-8h-53q0 -26 26 -26q12 0 20 4zM1263 562q-20 0 -20 -22h40q0 22 -20 22zM1366 495h-12l-2 9
q-4 -9 -23 -9q-10 0 -16.5 5.5t-6.5 13.5q0 31 46 31q0 17 -15 17q-12 0 -20 -4l-4 8q9 6 24 6q29 0 29 -29v-29v-19zM1352 520v14q-31 0 -31 -16q0 -14 12 -14q15 0 19 12v4zM1432 516q0 -21 -28 -21q-11 0 -21 4l4 11q9 -6 17 -6q14 0 14 10q0 8 -14 14q-19 8 -19 22
q0 22 25 22q12 0 20 -4l-4 -10q-4 4 -16 4t-12 -10q0 -7 14 -14q20 -6 20 -22zM1510 538v-8h-52q0 -26 25 -26q13 0 21 4l4 -9q-12 -4 -28 -4q-36 0 -36 37q0 17 10 28.5t26 11.5q30 0 30 -34zM1458 540h40q0 22 -20 22t-20 -22zM1617 599h14l-38 -104h-16l-34 104h17
l16 -51q5 -23 11 -38q1 6 5.5 19t6.5 19zM1647 601q8 0 8 -9q0 -8 -10 -8q-6 0 -6 8q0 9 8 9zM1639 495v77h14v-77h-14zM1693 504q14 0 14 10q0 8 -14 14q-21 8 -21 22q0 9 7.5 15.5t19.5 6.5q10 0 18 -4l-2 -10q-8 4 -16 4q-14 0 -14 -10q0 -6 16 -14q19 -6 19 -22
q0 -9 -7.5 -15t-19.5 -6q-15 0 -23 4l4 11q12 -6 19 -6zM1744 601q9 0 9 -9q0 -8 -9 -8q-10 0 -10 8q0 9 10 9zM1753 572v-77h-15v77h15zM1811 560h-21v-40q0 -16 10 -16q2 0 5 1t6 1v-9q-5 -2 -15 -2q-7 0 -14 5q-6 6 -6 18v42h-10v12h10v16l14 4v-20h21v-12zM491 267h-28
v16q-13 -18 -34 -18q-33 0 -33 41q0 29 19 50t48 21q10 0 14 -2l10 48h32l-23 -113q-3 -24 -5 -43zM444 289q17 0 23 30l6 30q-4 4 -12 4q-14 0 -24 -13.5t-10 -29.5q0 -21 17 -21zM575 406q0 -19 -19 -19q-16 0 -16 16q0 7 5.5 12.5t12.5 5.5q17 0 17 -15zM569 375
l-21 -108h-33l22 108h32zM640 267l12 60v12q0 12 -10 12q-8 0 -16.5 -9.5t-11.5 -26.5l-10 -48h-29l13 72q1 6 2 18.5t2 17.5h30l-4 -17h2q16 19 38 19q27 0 27 -30q0 -6 -4 -18l-9 -62h-32zM700 313l6 24h56l-4 -24h-58zM823 353q-14 0 -14 -8q0 -6 14 -12q24 -12 24 -29
q0 -39 -50 -39q-19 0 -31 8l8 23q22 -9 25 -9q15 0 15 11q0 6 -13 14q-24 10 -24 27q0 18 13.5 28t34.5 10q19 0 28 -6l-8 -22q-8 4 -22 4zM911 349l-8 -36q0 -1 -1 -6t-1 -7q0 -9 10 -9h9l-4 -24q-5 -2 -19 -2q-28 0 -28 22q0 13 1 21l9 41h-12l2 26h14l6 22l31 8l-5 -30
h22l-5 -26h-21zM1034 267h-27l2 18q-16 -20 -39 -20q-27 0 -27 31q0 3 1 9t1 10l12 60h29l-10 -58q0 -2 -1 -7t-1 -6q0 -15 12 -15q9 0 16.5 10t9.5 26l8 50h34l-14 -71q-1 -6 -3.5 -19.5t-2.5 -17.5zM1157 267h-27l2 16q-14 -18 -36 -18q-14 0 -24 11t-10 30q0 29 19.5 50
t48.5 21q10 0 16 -2l7 48h33l-23 -113q-1 -4 -3 -20t-3 -23zM1109 289q8 0 16 8t11 22l4 30q-4 4 -12 4q-15 0 -23.5 -13t-8.5 -30q0 -21 13 -21zM1243 406q0 -8 -6 -13.5t-14 -5.5q-16 0 -16 16q0 7 5.5 12.5t12.5 5.5t12.5 -4.5t5.5 -10.5zM1235 375l-20 -108h-34l22 108
h32zM1289 265q-20 0 -32 12.5t-12 32.5q0 28 18 47.5t45 19.5q21 0 33.5 -12.5t12.5 -31.5q0 -29 -18.5 -48.5t-46.5 -19.5zM1304 353q-12 0 -19.5 -14t-7.5 -29q0 -21 17 -21q13 0 21 13.5t8 30.5q0 20 -19 20zM1381 265q-19 0 -19 18q0 23 21 23q19 0 19 -21
q0 -9 -6 -14.5t-15 -5.5zM1489 351q-15 0 -25 -11.5t-10 -26.5q0 -11 6.5 -17.5t15.5 -6.5q4 0 12.5 3.5t9.5 3.5v-27q-18 -4 -30 -4q-21 0 -33.5 12t-12.5 33q0 28 19.5 47.5t49.5 19.5q11 0 23 -4l-8 -24q-1 0 -6.5 1t-10.5 1zM1562 265q-22 0 -34 12.5t-12 32.5
q0 28 17.5 47.5t45.5 19.5q21 0 33.5 -12.5t12.5 -31.5q0 -29 -18.5 -48.5t-44.5 -19.5zM1576 353q-13 0 -21 -14t-8 -29q0 -21 17 -21q12 0 19.5 14t7.5 30q0 20 -15 20zM1761 267l9 60q2 2 2 12q0 12 -9 12q-8 0 -16 -10t-11 -24l-8 -50h-31l12 60v12q0 12 -10 12
q-17 0 -27 -36l-7 -48h-30l14 72q1 6 2 18.5t2 17.5h27l-2 -17q16 19 37 19q12 0 18.5 -6t6.5 -13q16 19 38 19q26 0 26 -28q0 -3 -1 -10t-1 -10l-12 -62h-29zM147 659q-59 1 -93 30t-34 72q0 31 13.5 44.5t27.5 13.5q24 0 32.5 -19.5t-4.5 -30.5q0 18 -19 21q-22 3 -29 -19
q-2 -6 -2 -14q0 -36 29.5 -56.5t78.5 -20.5q30 0 51.5 13.5t31.5 37t14 46.5t4 50v26.5t-1.5 28t-5.5 31.5t-10 24.5t-17 20t-26 6.5q-10 0 -10 -24v-67v-2v-112q0 -11 4 -17.5t8 -7.5h5v-9h-94v9q14 0 15 21v189q0 29 -23 29q-9 0 -14.5 -4t-5.5 -9q0 -7 4.5 -10.5
t8.5 -3.5h5q0 -27 -25 -27q-12 0 -19 6.5t-8.5 11.5t-1.5 9q0 19 18.5 30.5t37.5 11.5q18 0 45 -7.5t50 -7.5q121 0 121 -146q0 -67 -41.5 -119t-120.5 -49zM423 734v-9h-93v9q14 0 16 21v100q-1 10 -5 15.5t-7 5.5l-4 1v7l75 14v-139q0 -11 4.5 -17.5t8.5 -7.5h5zM378 968
q12 0 19.5 -8.5t7.5 -19.5q0 -12 -7.5 -21t-19.5 -9t-20 9t-8 21q0 11 8 19.5t20 8.5zM521 877q20 23 50 23q22 0 36.5 -14t14.5 -40v-87q0 -25 16 -25v-9h-94v9q14 0 16 21v98q0 18 -16 19t-22 -17q-1 -4 -1 -9v-87q0 -11 4 -17.5t8 -7.5h4v-9h-93v9q13 0 15 21v100
q-1 10 -4.5 15.5t-6.5 5.5l-4 1v7l77 14v-21zM803 910q0 3 0.5 7t5.5 15t14 19t28.5 15t45.5 7q18 0 35 -4.5t21 -5.5t17 5q6 3 12 3v-63l-8 -2q0 2 -1 5.5t-6 12.5t-13 16t-23 12.5t-34 5.5q-21 0 -34 -13.5t-12 -29t16 -21.5q7 -3 37.5 -11.5t51 -16t38.5 -29t17 -51.5
q-2 -27 -28.5 -44t-75.5 -17q-21 0 -38.5 2.5t-24 4.5t-12 0.5t-9.5 -7.5h-9v66h9q0 -20 25.5 -33t56.5 -13t44.5 15t4 32.5t-33.5 24.5q-3 1 -17 5t-20 6t-18.5 7t-19 9t-16 11t-14.5 14.5t-8.5 18t-3.5 22.5zM1115 890h-3.5t-7 -4.5t-6.5 -12.5v-118q1 -9 5 -14.5t8 -6.5
h4v-9h-25q-15 0 -23.5 1.5t-18.5 13t-10 33.5v98q-1 9 -5.5 14t-8.5 5h-4v8q24 0 46 11.5t32 11.5v-23h17v-8zM1132 890v10h89v-10h-3t-5.5 -5t-3.5 -14v-92q0 -19 10 -24t20 3t10 21v88q0 11 -3.5 17t-7.5 6h-3v10h92v-10h-4.5t-8 -5t-6.5 -14v-116q1 -9 6 -14.5t9 -6.5h4
v-9h-44q-14 0 -24 9.5t-10 18.5q-17 -28 -44 -28q-22 0 -39.5 14.5t-17.5 39.5v88q0 23 -16 23zM1585 686q0 -27 -34 -27q-15 0 -32.5 4t-38.5 22t-26 47q-18 -7 -30 -7q-34 0 -59.5 26t-25.5 62t25.5 61.5t59.5 25.5q4 0 28 -6v79l77 -13v-8h-1q-2 0 -4.5 -1t-4.5 -3
t-4 -6.5t-3 -11.5v-181q3 -71 41 -77q-6 6 -6 14q0 7 6 13t15 6q7 0 12 -6t5 -13zM1424 739q28 0 28 74q0 75 -28 75q-26 0 -26 -75q0 -74 26 -74zM1633 734v-9h-94v9q14 0 16 21v100q-1 10 -5 15.5t-8 5.5l-3 1v7l78 14v-139q0 -11 4 -17.5t8 -7.5h4zM1560 940q0 11 8 19.5
t19 8.5q12 0 20 -8.5t8 -19.5q0 -12 -8 -21t-20 -9q-11 0 -19 9t-8 21zM1806 813q0 -36 -25 -62t-61 -26t-60.5 26t-24.5 62t24.5 60.5t60.5 24.5t61 -24.5t25 -60.5zM1720 739q27 0 27 74q0 37 -5 55t-22 18q-16 0 -20.5 -18t-4.5 -55t4.5 -55.5t20.5 -18.5zM33 289v44h322
v-44h-322zM941 1239h-196l148 187h197zM1809 1239h-185l148 187h37v-187zM355 1239h-196l150 187h196zM1233 1239h-195l150 187h195zM212 1426l-151 -187h-28v187h179zM648 1239h-195l149 187h195zM1528 1239h-197l149 187h194zM893 210h197l-149 -187h-196zM1624 23
l148 187h37v-187h-185zM309 210h196l-150 -187h-196zM1188 210h195l-150 -187h-195zM33 210h179l-151 -187h-28v187zM602 210h195l-149 -187h-195zM1480 210h194l-146 -187h-197z" />
    <glyph glyph-name="hyphenminus" unicode="-" horiz-adv-x="497" 
d="M487 682h-427v70h427v-70z" />
    <glyph glyph-name="hyphenminus" unicode="&#xad;" horiz-adv-x="497" 
d="M487 682h-427v70h427v-70z" />
    <glyph glyph-name="period" unicode="." horiz-adv-x="1850" 
d="M61 1106l-10 -46h-26l22 123q10 2 34 2q21 0 34 -8q14 -8 14 -26q0 -20 -18 -36q-13 -9 -40 -9h-10zM71 1162l-5 -35q2 -2 9 -2q26 0 26 24q0 16 -20 16q-8 0 -10 -3zM222 1160h-48l-4 -25h46l-6 -22h-44l-5 -30h49l-3 -23h-78l24 125h73zM262 1110l-9 -50h-27l24 123
q7 2 32 2q18 0 34 -6q14 -11 14 -24q0 -25 -30 -36q10 -6 13 -24q0 -8 1.5 -20.5t1.5 -14.5h-26q0 1 -4 29q0 21 -16 21h-8zM272 1162l-6 -33h10q11 0 18.5 6.5t7.5 15.5q0 14 -20 14q-8 0 -10 -3zM367 1081q21 0 21 14q0 11 -17 18q-25 14 -25 32q0 20 13.5 31t34.5 11
q11 0 29 -6l-8 -22q-18 4 -23 3q-19 0 -19 -11q0 -9 19 -18q25 -13 25 -31q0 -44 -52 -44q-24 0 -35 9l10 20q18 -6 27 -6zM500 1187q24 0 37 -14.5t13 -37.5q0 -39 -23 -60q-19 -17 -44 -17q-23 0 -37.5 15t-14.5 37q0 33 24 59q18 18 45 18zM507 1089q16 16 16 46t-27 30
q-9 0 -21 -10q-14 -14 -14 -43q0 -31 26 -31q11 0 20 8zM590 1104l-9 -44h-25l25 125h31l17 -48q3 -8 6 -22t5 -20q0 17 6 44l8 46h24l-22 -125h-27l-19 50q-4 10 -7.5 25.5t-4.5 17.5q-1 -4 -2 -13t-2.5 -18.5t-3.5 -17.5zM716 1091l-16 -31h-28l59 125h35l15 -125h-29
l-3 31h-33zM735 1139l-13 -26h27l-4 26v26q-7 -14 -10 -26zM820 1185h25l-20 -102h47l-3 -23h-74zM968 1185l-13 -72v-16q0 -16 15 -16q23 0 28 32l14 72h28l-14 -72q-6 -29 -19 -42t-39 -13q-42 0 -42 39q0 13 2 18l13 70h27zM1074 1081q20 0 20 14q0 10 -16 18
q-28 16 -28 32q0 20 14.5 31t35.5 11q18 0 30 -6l-9 -22q-18 5 -23 3q-20 0 -20 -11q0 -6 20 -18q23 -14 23 -31q0 -22 -14 -33t-35 -11q-29 0 -36 9l8 20q24 -6 30 -6zM1227 1160h-48l-4 -25h44l-4 -22h-46l-4 -30h50l-6 -23h-75l23 125h74zM1364 1075q-23 -17 -45 -17
q-23 0 -36.5 14.5t-13.5 37.5q0 38 24 59q13 18 44 18q24 0 37 -14.5t13 -37.5q0 -41 -23 -60zM1296 1112q0 -31 27 -31q15 0 19 8q18 18 18 46q0 12 -7 21t-20 9q-8 0 -20 -10q-17 -15 -17 -43zM1435 1153q0 -6 -9 -49l-8 -44h-26l24 125h32l16 -48q6 -16 14 -42q0 14 5 44
l6 46h27l-25 -125h-27l-18 50q-10 42 -10 43h-1zM1541 1185h27l-21 -102h48l-4 -23h-73zM1649 1112l-8 -52h-28l11 52l-27 73h30l8 -32q2 -10 6 -22q4 6 12 22l17 32h33zM1728 1073q0 18 19 18q14 0 14 -16q0 -7 -5.5 -12t-13.5 -5q-14 0 -14 15zM1778 1185l-19 -83h-21
l13 83h27zM91 588h-44v-34h40v-11h-40v-48h-14v104h58v-11zM172 534q0 -20 -11 -29.5t-26 -9.5q-16 0 -26 10t-10 27q0 19 10 29.5t26 10.5q37 0 37 -38zM113 532q0 -28 22 -28q11 0 17.5 8.5t6.5 21.5q0 28 -24 28q-22 0 -22 -30zM203 495h-15v53v24h13l2 -16q6 16 19 16h4
v-14q0 2 -4 2q-13 0 -17 -17q-2 -3 -2 -7v-41zM268 548q0 24 15.5 38.5t40.5 14.5q16 0 24 -4l-4 -11q-12 6 -20 6q-19 0 -30.5 -12t-11.5 -32q0 -44 42 -44q8 0 20 6l4 -11q-8 -4 -28 -4q-24 0 -38 13.5t-14 39.5zM394 495q-17 0 -28 10t-11 27q0 19 11 29.5t28 10.5
q16 0 26.5 -10t10.5 -28q0 -19 -11 -29t-26 -10zM394 562q-12 0 -18.5 -8.5t-6.5 -21.5q0 -12 7 -20t18 -8q10 0 16.5 8.5t6.5 21.5q0 11 -6 19.5t-17 8.5zM554 495h-14v43q0 24 -15 24q-13 0 -16 -14q-2 -3 -2 -5v-48h-13v48q0 19 -15 19q-13 0 -18 -14v-5v-48h-14v55v22
h12v-14h2q3 14 24 14q11 0 20 -14l10 10q2 4 16 4q23 0 23 -32v-45zM685 540v-45h-13v43q0 24 -16 24q-11 0 -18 -14v-5v-48h-14v48q0 19 -16 19q-9 0 -18 -14v-5v-48h-11v55q0 14 -2 22h11v-14h2q7 14 24 14q18 0 20 -14l10 10q4 4 16 4q25 0 25 -32zM770 538q0 -2 -1 -4.5
t-1 -3.5h-52q0 -26 25 -26q9 0 21 4l2 -9q-8 -4 -25 -4q-37 0 -37 37q0 17 10 28.5t25 11.5q17 0 25 -10.5t8 -23.5zM716 540h40q0 22 -21 22q-19 0 -19 -22zM785 548v24h10l2 -16q6 16 23 16h3v-14q-1 2 -5 2q-15 0 -19 -17v-7v-41h-14v53zM889 499q-8 -4 -22 -4
q-18 0 -28 10t-10 27q0 18 11 29t29 11q12 0 20 -4l-4 -10q-4 4 -16 4t-19 -9t-7 -21t7 -20t19 -8q4 0 10 2t8 2zM911 601q9 0 9 -9q0 -8 -9 -8q-8 0 -8 8q0 9 8 9zM905 495v77h13v-77h-13zM957 495q-10 0 -16.5 5.5t-6.5 13.5q0 31 46 31q0 17 -16 17q-11 0 -19 -4l-4 8
q9 6 23 6q30 0 30 -29v-29v-19h-12l-2 9q-7 -9 -23 -9zM980 534q-31 0 -31 -16q0 -14 12 -14q11 0 19 12v4v14zM1016 495v111h14v-111h-14zM1050 514h18q-3 -8 -16 -38h-10q8 18 8 38zM1117 495v102q14 4 25 4q18 0 29 -9q10 -5 10 -20q0 -16 -8 -24q-12 -12 -31 -12
q-8 0 -12 2v-43h-13zM1130 590v-42h12q25 0 25 22q0 20 -23 20h-14zM1199 495v111h12v-111h-12zM1293 499q-12 -4 -26 -4q-38 0 -38 37q0 17 10 28.5t26 11.5q31 0 31 -34v-8h-53q0 -26 26 -26q12 0 20 4zM1263 562q-20 0 -20 -22h40q0 22 -20 22zM1366 495h-12l-2 9
q-4 -9 -23 -9q-10 0 -16.5 5.5t-6.5 13.5q0 31 46 31q0 17 -15 17q-12 0 -20 -4l-4 8q9 6 24 6q29 0 29 -29v-29v-19zM1352 520v14q-31 0 -31 -16q0 -14 12 -14q15 0 19 12v4zM1432 516q0 -21 -28 -21q-11 0 -21 4l4 11q9 -6 17 -6q14 0 14 10q0 8 -14 14q-19 8 -19 22
q0 22 25 22q12 0 20 -4l-4 -10q-4 4 -16 4t-12 -10q0 -7 14 -14q20 -6 20 -22zM1510 538v-8h-52q0 -26 25 -26q13 0 21 4l4 -9q-12 -4 -28 -4q-36 0 -36 37q0 17 10 28.5t26 11.5q30 0 30 -34zM1458 540h40q0 22 -20 22t-20 -22zM1617 599h14l-38 -104h-16l-34 104h17
l16 -51q5 -23 11 -38q1 6 5.5 19t6.5 19zM1647 601q8 0 8 -9q0 -8 -10 -8q-6 0 -6 8q0 9 8 9zM1639 495v77h14v-77h-14zM1693 504q14 0 14 10q0 8 -14 14q-21 8 -21 22q0 9 7.5 15.5t19.5 6.5q10 0 18 -4l-2 -10q-8 4 -16 4q-14 0 -14 -10q0 -6 16 -14q19 -6 19 -22
q0 -9 -7.5 -15t-19.5 -6q-15 0 -23 4l4 11q12 -6 19 -6zM1744 601q9 0 9 -9q0 -8 -9 -8q-10 0 -10 8q0 9 10 9zM1753 572v-77h-15v77h15zM1811 560h-21v-40q0 -16 10 -16q2 0 5 1t6 1v-9q-5 -2 -15 -2q-7 0 -14 5q-6 6 -6 18v42h-10v12h10v16l14 4v-20h21v-12zM491 267h-28
v16q-13 -18 -34 -18q-33 0 -33 41q0 29 19 50t48 21q10 0 14 -2l10 48h32l-23 -113q-3 -24 -5 -43zM444 289q17 0 23 30l6 30q-4 4 -12 4q-14 0 -24 -13.5t-10 -29.5q0 -21 17 -21zM575 406q0 -19 -19 -19q-16 0 -16 16q0 7 5.5 12.5t12.5 5.5q17 0 17 -15zM569 375
l-21 -108h-33l22 108h32zM640 267l12 60v12q0 12 -10 12q-8 0 -16.5 -9.5t-11.5 -26.5l-10 -48h-29l13 72q1 6 2 18.5t2 17.5h30l-4 -17h2q16 19 38 19q27 0 27 -30q0 -6 -4 -18l-9 -62h-32zM700 313l6 24h56l-4 -24h-58zM823 353q-14 0 -14 -8q0 -6 14 -12q24 -12 24 -29
q0 -39 -50 -39q-19 0 -31 8l8 23q22 -9 25 -9q15 0 15 11q0 6 -13 14q-24 10 -24 27q0 18 13.5 28t34.5 10q19 0 28 -6l-8 -22q-8 4 -22 4zM911 349l-8 -36q0 -1 -1 -6t-1 -7q0 -9 10 -9h9l-4 -24q-5 -2 -19 -2q-28 0 -28 22q0 13 1 21l9 41h-12l2 26h14l6 22l31 8l-5 -30
h22l-5 -26h-21zM1034 267h-27l2 18q-16 -20 -39 -20q-27 0 -27 31q0 3 1 9t1 10l12 60h29l-10 -58q0 -2 -1 -7t-1 -6q0 -15 12 -15q9 0 16.5 10t9.5 26l8 50h34l-14 -71q-1 -6 -3.5 -19.5t-2.5 -17.5zM1157 267h-27l2 16q-14 -18 -36 -18q-14 0 -24 11t-10 30q0 29 19.5 50
t48.5 21q10 0 16 -2l7 48h33l-23 -113q-1 -4 -3 -20t-3 -23zM1109 289q8 0 16 8t11 22l4 30q-4 4 -12 4q-15 0 -23.5 -13t-8.5 -30q0 -21 13 -21zM1243 406q0 -8 -6 -13.5t-14 -5.5q-16 0 -16 16q0 7 5.5 12.5t12.5 5.5t12.5 -4.5t5.5 -10.5zM1235 375l-20 -108h-34l22 108
h32zM1289 265q-20 0 -32 12.5t-12 32.5q0 28 18 47.5t45 19.5q21 0 33.5 -12.5t12.5 -31.5q0 -29 -18.5 -48.5t-46.5 -19.5zM1304 353q-12 0 -19.5 -14t-7.5 -29q0 -21 17 -21q13 0 21 13.5t8 30.5q0 20 -19 20zM1381 265q-19 0 -19 18q0 23 21 23q19 0 19 -21
q0 -9 -6 -14.5t-15 -5.5zM1489 351q-15 0 -25 -11.5t-10 -26.5q0 -11 6.5 -17.5t15.5 -6.5q4 0 12.5 3.5t9.5 3.5v-27q-18 -4 -30 -4q-21 0 -33.5 12t-12.5 33q0 28 19.5 47.5t49.5 19.5q11 0 23 -4l-8 -24q-1 0 -6.5 1t-10.5 1zM1562 265q-22 0 -34 12.5t-12 32.5
q0 28 17.5 47.5t45.5 19.5q21 0 33.5 -12.5t12.5 -31.5q0 -29 -18.5 -48.5t-44.5 -19.5zM1576 353q-13 0 -21 -14t-8 -29q0 -21 17 -21q12 0 19.5 14t7.5 30q0 20 -15 20zM1761 267l9 60q2 2 2 12q0 12 -9 12q-8 0 -16 -10t-11 -24l-8 -50h-31l12 60v12q0 12 -10 12
q-17 0 -27 -36l-7 -48h-30l14 72q1 6 2 18.5t2 17.5h27l-2 -17q16 19 37 19q12 0 18.5 -6t6.5 -13q16 19 38 19q26 0 26 -28q0 -3 -1 -10t-1 -10l-12 -62h-29zM147 659q-59 1 -93 30t-34 72q0 31 13.5 44.5t27.5 13.5q24 0 32.5 -19.5t-4.5 -30.5q0 18 -19 21q-22 3 -29 -19
q-2 -6 -2 -14q0 -36 29.5 -56.5t78.5 -20.5q30 0 51.5 13.5t31.5 37t14 46.5t4 50v26.5t-1.5 28t-5.5 31.5t-10 24.5t-17 20t-26 6.5q-10 0 -10 -24v-67v-2v-112q0 -11 4 -17.5t8 -7.5h5v-9h-94v9q14 0 15 21v189q0 29 -23 29q-9 0 -14.5 -4t-5.5 -9q0 -7 4.5 -10.5
t8.5 -3.5h5q0 -27 -25 -27q-12 0 -19 6.5t-8.5 11.5t-1.5 9q0 19 18.5 30.5t37.5 11.5q18 0 45 -7.5t50 -7.5q121 0 121 -146q0 -67 -41.5 -119t-120.5 -49zM423 734v-9h-93v9q14 0 16 21v100q-1 10 -5 15.5t-7 5.5l-4 1v7l75 14v-139q0 -11 4.5 -17.5t8.5 -7.5h5zM378 968
q12 0 19.5 -8.5t7.5 -19.5q0 -12 -7.5 -21t-19.5 -9t-20 9t-8 21q0 11 8 19.5t20 8.5zM521 877q20 23 50 23q22 0 36.5 -14t14.5 -40v-87q0 -25 16 -25v-9h-94v9q14 0 16 21v98q0 18 -16 19t-22 -17q-1 -4 -1 -9v-87q0 -11 4 -17.5t8 -7.5h4v-9h-93v9q13 0 15 21v100
q-1 10 -4.5 15.5t-6.5 5.5l-4 1v7l77 14v-21zM803 910q0 3 0.5 7t5.5 15t14 19t28.5 15t45.5 7q18 0 35 -4.5t21 -5.5t17 5q6 3 12 3v-63l-8 -2q0 2 -1 5.5t-6 12.5t-13 16t-23 12.5t-34 5.5q-21 0 -34 -13.5t-12 -29t16 -21.5q7 -3 37.5 -11.5t51 -16t38.5 -29t17 -51.5
q-2 -27 -28.5 -44t-75.5 -17q-21 0 -38.5 2.5t-24 4.5t-12 0.5t-9.5 -7.5h-9v66h9q0 -20 25.5 -33t56.5 -13t44.5 15t4 32.5t-33.5 24.5q-3 1 -17 5t-20 6t-18.5 7t-19 9t-16 11t-14.5 14.5t-8.5 18t-3.5 22.5zM1115 890h-3.5t-7 -4.5t-6.5 -12.5v-118q1 -9 5 -14.5t8 -6.5
h4v-9h-25q-15 0 -23.5 1.5t-18.5 13t-10 33.5v98q-1 9 -5.5 14t-8.5 5h-4v8q24 0 46 11.5t32 11.5v-23h17v-8zM1132 890v10h89v-10h-3t-5.5 -5t-3.5 -14v-92q0 -19 10 -24t20 3t10 21v88q0 11 -3.5 17t-7.5 6h-3v10h92v-10h-4.5t-8 -5t-6.5 -14v-116q1 -9 6 -14.5t9 -6.5h4
v-9h-44q-14 0 -24 9.5t-10 18.5q-17 -28 -44 -28q-22 0 -39.5 14.5t-17.5 39.5v88q0 23 -16 23zM1585 686q0 -27 -34 -27q-15 0 -32.5 4t-38.5 22t-26 47q-18 -7 -30 -7q-34 0 -59.5 26t-25.5 62t25.5 61.5t59.5 25.5q4 0 28 -6v79l77 -13v-8h-1q-2 0 -4.5 -1t-4.5 -3
t-4 -6.5t-3 -11.5v-181q3 -71 41 -77q-6 6 -6 14q0 7 6 13t15 6q7 0 12 -6t5 -13zM1424 739q28 0 28 74q0 75 -28 75q-26 0 -26 -75q0 -74 26 -74zM1633 734v-9h-94v9q14 0 16 21v100q-1 10 -5 15.5t-8 5.5l-3 1v7l78 14v-139q0 -11 4 -17.5t8 -7.5h4zM1560 940q0 11 8 19.5
t19 8.5q12 0 20 -8.5t8 -19.5q0 -12 -8 -21t-20 -9q-11 0 -19 9t-8 21zM1806 813q0 -36 -25 -62t-61 -26t-60.5 26t-24.5 62t24.5 60.5t60.5 24.5t61 -24.5t25 -60.5zM1720 739q27 0 27 74q0 37 -5 55t-22 18q-16 0 -20.5 -18t-4.5 -55t4.5 -55.5t20.5 -18.5zM33 289v44h322
v-44h-322zM941 1239h-196l148 187h197zM1809 1239h-185l148 187h37v-187zM355 1239h-196l150 187h196zM1233 1239h-195l150 187h195zM212 1426l-151 -187h-28v187h179zM648 1239h-195l149 187h195zM1528 1239h-197l149 187h194zM893 210h197l-149 -187h-196zM1624 23
l148 187h37v-187h-185zM309 210h196l-150 -187h-196zM1188 210h195l-150 -187h-195zM33 210h179l-151 -187h-28v187zM602 210h195l-149 -187h-195zM1480 210h194l-146 -187h-197z" />
    <glyph glyph-name="slash" unicode="/" horiz-adv-x="660" 
d="M532 1437h118l-472 -1437h-118z" />
    <glyph glyph-name="zero" unicode="0" horiz-adv-x="1850" 
d="M61 1106l-10 -46h-26l22 123q10 2 34 2q21 0 34 -8q14 -8 14 -26q0 -20 -18 -36q-13 -9 -40 -9h-10zM71 1162l-5 -35q2 -2 9 -2q26 0 26 24q0 16 -20 16q-8 0 -10 -3zM222 1160h-48l-4 -25h46l-6 -22h-44l-5 -30h49l-3 -23h-78l24 125h73zM262 1110l-9 -50h-27l24 123
q7 2 32 2q18 0 34 -6q14 -11 14 -24q0 -25 -30 -36q10 -6 13 -24q0 -8 1.5 -20.5t1.5 -14.5h-26q0 1 -4 29q0 21 -16 21h-8zM272 1162l-6 -33h10q11 0 18.5 6.5t7.5 15.5q0 14 -20 14q-8 0 -10 -3zM367 1081q21 0 21 14q0 11 -17 18q-25 14 -25 32q0 20 13.5 31t34.5 11
q11 0 29 -6l-8 -22q-18 4 -23 3q-19 0 -19 -11q0 -9 19 -18q25 -13 25 -31q0 -44 -52 -44q-24 0 -35 9l10 20q18 -6 27 -6zM500 1187q24 0 37 -14.5t13 -37.5q0 -39 -23 -60q-19 -17 -44 -17q-23 0 -37.5 15t-14.5 37q0 33 24 59q18 18 45 18zM507 1089q16 16 16 46t-27 30
q-9 0 -21 -10q-14 -14 -14 -43q0 -31 26 -31q11 0 20 8zM590 1104l-9 -44h-25l25 125h31l17 -48q3 -8 6 -22t5 -20q0 17 6 44l8 46h24l-22 -125h-27l-19 50q-4 10 -7.5 25.5t-4.5 17.5q-1 -4 -2 -13t-2.5 -18.5t-3.5 -17.5zM716 1091l-16 -31h-28l59 125h35l15 -125h-29
l-3 31h-33zM735 1139l-13 -26h27l-4 26v26q-7 -14 -10 -26zM820 1185h25l-20 -102h47l-3 -23h-74zM968 1185l-13 -72v-16q0 -16 15 -16q23 0 28 32l14 72h28l-14 -72q-6 -29 -19 -42t-39 -13q-42 0 -42 39q0 13 2 18l13 70h27zM1074 1081q20 0 20 14q0 10 -16 18
q-28 16 -28 32q0 20 14.5 31t35.5 11q18 0 30 -6l-9 -22q-18 5 -23 3q-20 0 -20 -11q0 -6 20 -18q23 -14 23 -31q0 -22 -14 -33t-35 -11q-29 0 -36 9l8 20q24 -6 30 -6zM1227 1160h-48l-4 -25h44l-4 -22h-46l-4 -30h50l-6 -23h-75l23 125h74zM1364 1075q-23 -17 -45 -17
q-23 0 -36.5 14.5t-13.5 37.5q0 38 24 59q13 18 44 18q24 0 37 -14.5t13 -37.5q0 -41 -23 -60zM1296 1112q0 -31 27 -31q15 0 19 8q18 18 18 46q0 12 -7 21t-20 9q-8 0 -20 -10q-17 -15 -17 -43zM1435 1153q0 -6 -9 -49l-8 -44h-26l24 125h32l16 -48q6 -16 14 -42q0 14 5 44
l6 46h27l-25 -125h-27l-18 50q-10 42 -10 43h-1zM1541 1185h27l-21 -102h48l-4 -23h-73zM1649 1112l-8 -52h-28l11 52l-27 73h30l8 -32q2 -10 6 -22q4 6 12 22l17 32h33zM1728 1073q0 18 19 18q14 0 14 -16q0 -7 -5.5 -12t-13.5 -5q-14 0 -14 15zM1778 1185l-19 -83h-21
l13 83h27zM91 588h-44v-34h40v-11h-40v-48h-14v104h58v-11zM172 534q0 -20 -11 -29.5t-26 -9.5q-16 0 -26 10t-10 27q0 19 10 29.5t26 10.5q37 0 37 -38zM113 532q0 -28 22 -28q11 0 17.5 8.5t6.5 21.5q0 28 -24 28q-22 0 -22 -30zM203 495h-15v53v24h13l2 -16q6 16 19 16h4
v-14q0 2 -4 2q-13 0 -17 -17q-2 -3 -2 -7v-41zM268 548q0 24 15.5 38.5t40.5 14.5q16 0 24 -4l-4 -11q-12 6 -20 6q-19 0 -30.5 -12t-11.5 -32q0 -44 42 -44q8 0 20 6l4 -11q-8 -4 -28 -4q-24 0 -38 13.5t-14 39.5zM394 495q-17 0 -28 10t-11 27q0 19 11 29.5t28 10.5
q16 0 26.5 -10t10.5 -28q0 -19 -11 -29t-26 -10zM394 562q-12 0 -18.5 -8.5t-6.5 -21.5q0 -12 7 -20t18 -8q10 0 16.5 8.5t6.5 21.5q0 11 -6 19.5t-17 8.5zM554 495h-14v43q0 24 -15 24q-13 0 -16 -14q-2 -3 -2 -5v-48h-13v48q0 19 -15 19q-13 0 -18 -14v-5v-48h-14v55v22
h12v-14h2q3 14 24 14q11 0 20 -14l10 10q2 4 16 4q23 0 23 -32v-45zM685 540v-45h-13v43q0 24 -16 24q-11 0 -18 -14v-5v-48h-14v48q0 19 -16 19q-9 0 -18 -14v-5v-48h-11v55q0 14 -2 22h11v-14h2q7 14 24 14q18 0 20 -14l10 10q4 4 16 4q25 0 25 -32zM770 538q0 -2 -1 -4.5
t-1 -3.5h-52q0 -26 25 -26q9 0 21 4l2 -9q-8 -4 -25 -4q-37 0 -37 37q0 17 10 28.5t25 11.5q17 0 25 -10.5t8 -23.5zM716 540h40q0 22 -21 22q-19 0 -19 -22zM785 548v24h10l2 -16q6 16 23 16h3v-14q-1 2 -5 2q-15 0 -19 -17v-7v-41h-14v53zM889 499q-8 -4 -22 -4
q-18 0 -28 10t-10 27q0 18 11 29t29 11q12 0 20 -4l-4 -10q-4 4 -16 4t-19 -9t-7 -21t7 -20t19 -8q4 0 10 2t8 2zM911 601q9 0 9 -9q0 -8 -9 -8q-8 0 -8 8q0 9 8 9zM905 495v77h13v-77h-13zM957 495q-10 0 -16.5 5.5t-6.5 13.5q0 31 46 31q0 17 -16 17q-11 0 -19 -4l-4 8
q9 6 23 6q30 0 30 -29v-29v-19h-12l-2 9q-7 -9 -23 -9zM980 534q-31 0 -31 -16q0 -14 12 -14q11 0 19 12v4v14zM1016 495v111h14v-111h-14zM1050 514h18q-3 -8 -16 -38h-10q8 18 8 38zM1117 495v102q14 4 25 4q18 0 29 -9q10 -5 10 -20q0 -16 -8 -24q-12 -12 -31 -12
q-8 0 -12 2v-43h-13zM1130 590v-42h12q25 0 25 22q0 20 -23 20h-14zM1199 495v111h12v-111h-12zM1293 499q-12 -4 -26 -4q-38 0 -38 37q0 17 10 28.5t26 11.5q31 0 31 -34v-8h-53q0 -26 26 -26q12 0 20 4zM1263 562q-20 0 -20 -22h40q0 22 -20 22zM1366 495h-12l-2 9
q-4 -9 -23 -9q-10 0 -16.5 5.5t-6.5 13.5q0 31 46 31q0 17 -15 17q-12 0 -20 -4l-4 8q9 6 24 6q29 0 29 -29v-29v-19zM1352 520v14q-31 0 -31 -16q0 -14 12 -14q15 0 19 12v4zM1432 516q0 -21 -28 -21q-11 0 -21 4l4 11q9 -6 17 -6q14 0 14 10q0 8 -14 14q-19 8 -19 22
q0 22 25 22q12 0 20 -4l-4 -10q-4 4 -16 4t-12 -10q0 -7 14 -14q20 -6 20 -22zM1510 538v-8h-52q0 -26 25 -26q13 0 21 4l4 -9q-12 -4 -28 -4q-36 0 -36 37q0 17 10 28.5t26 11.5q30 0 30 -34zM1458 540h40q0 22 -20 22t-20 -22zM1617 599h14l-38 -104h-16l-34 104h17
l16 -51q5 -23 11 -38q1 6 5.5 19t6.5 19zM1647 601q8 0 8 -9q0 -8 -10 -8q-6 0 -6 8q0 9 8 9zM1639 495v77h14v-77h-14zM1693 504q14 0 14 10q0 8 -14 14q-21 8 -21 22q0 9 7.5 15.5t19.5 6.5q10 0 18 -4l-2 -10q-8 4 -16 4q-14 0 -14 -10q0 -6 16 -14q19 -6 19 -22
q0 -9 -7.5 -15t-19.5 -6q-15 0 -23 4l4 11q12 -6 19 -6zM1744 601q9 0 9 -9q0 -8 -9 -8q-10 0 -10 8q0 9 10 9zM1753 572v-77h-15v77h15zM1811 560h-21v-40q0 -16 10 -16q2 0 5 1t6 1v-9q-5 -2 -15 -2q-7 0 -14 5q-6 6 -6 18v42h-10v12h10v16l14 4v-20h21v-12zM491 267h-28
v16q-13 -18 -34 -18q-33 0 -33 41q0 29 19 50t48 21q10 0 14 -2l10 48h32l-23 -113q-3 -24 -5 -43zM444 289q17 0 23 30l6 30q-4 4 -12 4q-14 0 -24 -13.5t-10 -29.5q0 -21 17 -21zM575 406q0 -19 -19 -19q-16 0 -16 16q0 7 5.5 12.5t12.5 5.5q17 0 17 -15zM569 375
l-21 -108h-33l22 108h32zM640 267l12 60v12q0 12 -10 12q-8 0 -16.5 -9.5t-11.5 -26.5l-10 -48h-29l13 72q1 6 2 18.5t2 17.5h30l-4 -17h2q16 19 38 19q27 0 27 -30q0 -6 -4 -18l-9 -62h-32zM700 313l6 24h56l-4 -24h-58zM823 353q-14 0 -14 -8q0 -6 14 -12q24 -12 24 -29
q0 -39 -50 -39q-19 0 -31 8l8 23q22 -9 25 -9q15 0 15 11q0 6 -13 14q-24 10 -24 27q0 18 13.5 28t34.5 10q19 0 28 -6l-8 -22q-8 4 -22 4zM911 349l-8 -36q0 -1 -1 -6t-1 -7q0 -9 10 -9h9l-4 -24q-5 -2 -19 -2q-28 0 -28 22q0 13 1 21l9 41h-12l2 26h14l6 22l31 8l-5 -30
h22l-5 -26h-21zM1034 267h-27l2 18q-16 -20 -39 -20q-27 0 -27 31q0 3 1 9t1 10l12 60h29l-10 -58q0 -2 -1 -7t-1 -6q0 -15 12 -15q9 0 16.5 10t9.5 26l8 50h34l-14 -71q-1 -6 -3.5 -19.5t-2.5 -17.5zM1157 267h-27l2 16q-14 -18 -36 -18q-14 0 -24 11t-10 30q0 29 19.5 50
t48.5 21q10 0 16 -2l7 48h33l-23 -113q-1 -4 -3 -20t-3 -23zM1109 289q8 0 16 8t11 22l4 30q-4 4 -12 4q-15 0 -23.5 -13t-8.5 -30q0 -21 13 -21zM1243 406q0 -8 -6 -13.5t-14 -5.5q-16 0 -16 16q0 7 5.5 12.5t12.5 5.5t12.5 -4.5t5.5 -10.5zM1235 375l-20 -108h-34l22 108
h32zM1289 265q-20 0 -32 12.5t-12 32.5q0 28 18 47.5t45 19.5q21 0 33.5 -12.5t12.5 -31.5q0 -29 -18.5 -48.5t-46.5 -19.5zM1304 353q-12 0 -19.5 -14t-7.5 -29q0 -21 17 -21q13 0 21 13.5t8 30.5q0 20 -19 20zM1381 265q-19 0 -19 18q0 23 21 23q19 0 19 -21
q0 -9 -6 -14.5t-15 -5.5zM1489 351q-15 0 -25 -11.5t-10 -26.5q0 -11 6.5 -17.5t15.5 -6.5q4 0 12.5 3.5t9.5 3.5v-27q-18 -4 -30 -4q-21 0 -33.5 12t-12.5 33q0 28 19.5 47.5t49.5 19.5q11 0 23 -4l-8 -24q-1 0 -6.5 1t-10.5 1zM1562 265q-22 0 -34 12.5t-12 32.5
q0 28 17.5 47.5t45.5 19.5q21 0 33.5 -12.5t12.5 -31.5q0 -29 -18.5 -48.5t-44.5 -19.5zM1576 353q-13 0 -21 -14t-8 -29q0 -21 17 -21q12 0 19.5 14t7.5 30q0 20 -15 20zM1761 267l9 60q2 2 2 12q0 12 -9 12q-8 0 -16 -10t-11 -24l-8 -50h-31l12 60v12q0 12 -10 12
q-17 0 -27 -36l-7 -48h-30l14 72q1 6 2 18.5t2 17.5h27l-2 -17q16 19 37 19q12 0 18.5 -6t6.5 -13q16 19 38 19q26 0 26 -28q0 -3 -1 -10t-1 -10l-12 -62h-29zM147 659q-59 1 -93 30t-34 72q0 31 13.5 44.5t27.5 13.5q24 0 32.5 -19.5t-4.5 -30.5q0 18 -19 21q-22 3 -29 -19
q-2 -6 -2 -14q0 -36 29.5 -56.5t78.5 -20.5q30 0 51.5 13.5t31.5 37t14 46.5t4 50v26.5t-1.5 28t-5.5 31.5t-10 24.5t-17 20t-26 6.5q-10 0 -10 -24v-67v-2v-112q0 -11 4 -17.5t8 -7.5h5v-9h-94v9q14 0 15 21v189q0 29 -23 29q-9 0 -14.5 -4t-5.5 -9q0 -7 4.5 -10.5
t8.5 -3.5h5q0 -27 -25 -27q-12 0 -19 6.5t-8.5 11.5t-1.5 9q0 19 18.5 30.5t37.5 11.5q18 0 45 -7.5t50 -7.5q121 0 121 -146q0 -67 -41.5 -119t-120.5 -49zM423 734v-9h-93v9q14 0 16 21v100q-1 10 -5 15.5t-7 5.5l-4 1v7l75 14v-139q0 -11 4.5 -17.5t8.5 -7.5h5zM378 968
q12 0 19.5 -8.5t7.5 -19.5q0 -12 -7.5 -21t-19.5 -9t-20 9t-8 21q0 11 8 19.5t20 8.5zM521 877q20 23 50 23q22 0 36.5 -14t14.5 -40v-87q0 -25 16 -25v-9h-94v9q14 0 16 21v98q0 18 -16 19t-22 -17q-1 -4 -1 -9v-87q0 -11 4 -17.5t8 -7.5h4v-9h-93v9q13 0 15 21v100
q-1 10 -4.5 15.5t-6.5 5.5l-4 1v7l77 14v-21zM803 910q0 3 0.5 7t5.5 15t14 19t28.5 15t45.5 7q18 0 35 -4.5t21 -5.5t17 5q6 3 12 3v-63l-8 -2q0 2 -1 5.5t-6 12.5t-13 16t-23 12.5t-34 5.5q-21 0 -34 -13.5t-12 -29t16 -21.5q7 -3 37.5 -11.5t51 -16t38.5 -29t17 -51.5
q-2 -27 -28.5 -44t-75.5 -17q-21 0 -38.5 2.5t-24 4.5t-12 0.5t-9.5 -7.5h-9v66h9q0 -20 25.5 -33t56.5 -13t44.5 15t4 32.5t-33.5 24.5q-3 1 -17 5t-20 6t-18.5 7t-19 9t-16 11t-14.5 14.5t-8.5 18t-3.5 22.5zM1115 890h-3.5t-7 -4.5t-6.5 -12.5v-118q1 -9 5 -14.5t8 -6.5
h4v-9h-25q-15 0 -23.5 1.5t-18.5 13t-10 33.5v98q-1 9 -5.5 14t-8.5 5h-4v8q24 0 46 11.5t32 11.5v-23h17v-8zM1132 890v10h89v-10h-3t-5.5 -5t-3.5 -14v-92q0 -19 10 -24t20 3t10 21v88q0 11 -3.5 17t-7.5 6h-3v10h92v-10h-4.5t-8 -5t-6.5 -14v-116q1 -9 6 -14.5t9 -6.5h4
v-9h-44q-14 0 -24 9.5t-10 18.5q-17 -28 -44 -28q-22 0 -39.5 14.5t-17.5 39.5v88q0 23 -16 23zM1585 686q0 -27 -34 -27q-15 0 -32.5 4t-38.5 22t-26 47q-18 -7 -30 -7q-34 0 -59.5 26t-25.5 62t25.5 61.5t59.5 25.5q4 0 28 -6v79l77 -13v-8h-1q-2 0 -4.5 -1t-4.5 -3
t-4 -6.5t-3 -11.5v-181q3 -71 41 -77q-6 6 -6 14q0 7 6 13t15 6q7 0 12 -6t5 -13zM1424 739q28 0 28 74q0 75 -28 75q-26 0 -26 -75q0 -74 26 -74zM1633 734v-9h-94v9q14 0 16 21v100q-1 10 -5 15.5t-8 5.5l-3 1v7l78 14v-139q0 -11 4 -17.5t8 -7.5h4zM1560 940q0 11 8 19.5
t19 8.5q12 0 20 -8.5t8 -19.5q0 -12 -8 -21t-20 -9q-11 0 -19 9t-8 21zM1806 813q0 -36 -25 -62t-61 -26t-60.5 26t-24.5 62t24.5 60.5t60.5 24.5t61 -24.5t25 -60.5zM1720 739q27 0 27 74q0 37 -5 55t-22 18q-16 0 -20.5 -18t-4.5 -55t4.5 -55.5t20.5 -18.5zM33 289v44h322
v-44h-322zM941 1239h-196l148 187h197zM1809 1239h-185l148 187h37v-187zM355 1239h-196l150 187h196zM1233 1239h-195l150 187h195zM212 1426l-151 -187h-28v187h179zM648 1239h-195l149 187h195zM1528 1239h-197l149 187h194zM893 210h197l-149 -187h-196zM1624 23
l148 187h37v-187h-185zM309 210h196l-150 -187h-196zM1188 210h195l-150 -187h-195zM33 210h179l-151 -187h-28v187zM602 210h195l-149 -187h-195zM1480 210h194l-146 -187h-197z" />
    <glyph glyph-name="one" unicode="1" horiz-adv-x="1850" 
d="M61 1106l-10 -46h-26l22 123q10 2 34 2q21 0 34 -8q14 -8 14 -26q0 -20 -18 -36q-13 -9 -40 -9h-10zM71 1162l-5 -35q2 -2 9 -2q26 0 26 24q0 16 -20 16q-8 0 -10 -3zM222 1160h-48l-4 -25h46l-6 -22h-44l-5 -30h49l-3 -23h-78l24 125h73zM262 1110l-9 -50h-27l24 123
q7 2 32 2q18 0 34 -6q14 -11 14 -24q0 -25 -30 -36q10 -6 13 -24q0 -8 1.5 -20.5t1.5 -14.5h-26q0 1 -4 29q0 21 -16 21h-8zM272 1162l-6 -33h10q11 0 18.5 6.5t7.5 15.5q0 14 -20 14q-8 0 -10 -3zM367 1081q21 0 21 14q0 11 -17 18q-25 14 -25 32q0 20 13.5 31t34.5 11
q11 0 29 -6l-8 -22q-18 4 -23 3q-19 0 -19 -11q0 -9 19 -18q25 -13 25 -31q0 -44 -52 -44q-24 0 -35 9l10 20q18 -6 27 -6zM500 1187q24 0 37 -14.5t13 -37.5q0 -39 -23 -60q-19 -17 -44 -17q-23 0 -37.5 15t-14.5 37q0 33 24 59q18 18 45 18zM507 1089q16 16 16 46t-27 30
q-9 0 -21 -10q-14 -14 -14 -43q0 -31 26 -31q11 0 20 8zM590 1104l-9 -44h-25l25 125h31l17 -48q3 -8 6 -22t5 -20q0 17 6 44l8 46h24l-22 -125h-27l-19 50q-4 10 -7.5 25.5t-4.5 17.5q-1 -4 -2 -13t-2.5 -18.5t-3.5 -17.5zM716 1091l-16 -31h-28l59 125h35l15 -125h-29
l-3 31h-33zM735 1139l-13 -26h27l-4 26v26q-7 -14 -10 -26zM820 1185h25l-20 -102h47l-3 -23h-74zM968 1185l-13 -72v-16q0 -16 15 -16q23 0 28 32l14 72h28l-14 -72q-6 -29 -19 -42t-39 -13q-42 0 -42 39q0 13 2 18l13 70h27zM1074 1081q20 0 20 14q0 10 -16 18
q-28 16 -28 32q0 20 14.5 31t35.5 11q18 0 30 -6l-9 -22q-18 5 -23 3q-20 0 -20 -11q0 -6 20 -18q23 -14 23 -31q0 -22 -14 -33t-35 -11q-29 0 -36 9l8 20q24 -6 30 -6zM1227 1160h-48l-4 -25h44l-4 -22h-46l-4 -30h50l-6 -23h-75l23 125h74zM1364 1075q-23 -17 -45 -17
q-23 0 -36.5 14.5t-13.5 37.5q0 38 24 59q13 18 44 18q24 0 37 -14.5t13 -37.5q0 -41 -23 -60zM1296 1112q0 -31 27 -31q15 0 19 8q18 18 18 46q0 12 -7 21t-20 9q-8 0 -20 -10q-17 -15 -17 -43zM1435 1153q0 -6 -9 -49l-8 -44h-26l24 125h32l16 -48q6 -16 14 -42q0 14 5 44
l6 46h27l-25 -125h-27l-18 50q-10 42 -10 43h-1zM1541 1185h27l-21 -102h48l-4 -23h-73zM1649 1112l-8 -52h-28l11 52l-27 73h30l8 -32q2 -10 6 -22q4 6 12 22l17 32h33zM1728 1073q0 18 19 18q14 0 14 -16q0 -7 -5.5 -12t-13.5 -5q-14 0 -14 15zM1778 1185l-19 -83h-21
l13 83h27zM91 588h-44v-34h40v-11h-40v-48h-14v104h58v-11zM172 534q0 -20 -11 -29.5t-26 -9.5q-16 0 -26 10t-10 27q0 19 10 29.5t26 10.5q37 0 37 -38zM113 532q0 -28 22 -28q11 0 17.5 8.5t6.5 21.5q0 28 -24 28q-22 0 -22 -30zM203 495h-15v53v24h13l2 -16q6 16 19 16h4
v-14q0 2 -4 2q-13 0 -17 -17q-2 -3 -2 -7v-41zM268 548q0 24 15.5 38.5t40.5 14.5q16 0 24 -4l-4 -11q-12 6 -20 6q-19 0 -30.5 -12t-11.5 -32q0 -44 42 -44q8 0 20 6l4 -11q-8 -4 -28 -4q-24 0 -38 13.5t-14 39.5zM394 495q-17 0 -28 10t-11 27q0 19 11 29.5t28 10.5
q16 0 26.5 -10t10.5 -28q0 -19 -11 -29t-26 -10zM394 562q-12 0 -18.5 -8.5t-6.5 -21.5q0 -12 7 -20t18 -8q10 0 16.5 8.5t6.5 21.5q0 11 -6 19.5t-17 8.5zM554 495h-14v43q0 24 -15 24q-13 0 -16 -14q-2 -3 -2 -5v-48h-13v48q0 19 -15 19q-13 0 -18 -14v-5v-48h-14v55v22
h12v-14h2q3 14 24 14q11 0 20 -14l10 10q2 4 16 4q23 0 23 -32v-45zM685 540v-45h-13v43q0 24 -16 24q-11 0 -18 -14v-5v-48h-14v48q0 19 -16 19q-9 0 -18 -14v-5v-48h-11v55q0 14 -2 22h11v-14h2q7 14 24 14q18 0 20 -14l10 10q4 4 16 4q25 0 25 -32zM770 538q0 -2 -1 -4.5
t-1 -3.5h-52q0 -26 25 -26q9 0 21 4l2 -9q-8 -4 -25 -4q-37 0 -37 37q0 17 10 28.5t25 11.5q17 0 25 -10.5t8 -23.5zM716 540h40q0 22 -21 22q-19 0 -19 -22zM785 548v24h10l2 -16q6 16 23 16h3v-14q-1 2 -5 2q-15 0 -19 -17v-7v-41h-14v53zM889 499q-8 -4 -22 -4
q-18 0 -28 10t-10 27q0 18 11 29t29 11q12 0 20 -4l-4 -10q-4 4 -16 4t-19 -9t-7 -21t7 -20t19 -8q4 0 10 2t8 2zM911 601q9 0 9 -9q0 -8 -9 -8q-8 0 -8 8q0 9 8 9zM905 495v77h13v-77h-13zM957 495q-10 0 -16.5 5.5t-6.5 13.5q0 31 46 31q0 17 -16 17q-11 0 -19 -4l-4 8
q9 6 23 6q30 0 30 -29v-29v-19h-12l-2 9q-7 -9 -23 -9zM980 534q-31 0 -31 -16q0 -14 12 -14q11 0 19 12v4v14zM1016 495v111h14v-111h-14zM1050 514h18q-3 -8 -16 -38h-10q8 18 8 38zM1117 495v102q14 4 25 4q18 0 29 -9q10 -5 10 -20q0 -16 -8 -24q-12 -12 -31 -12
q-8 0 -12 2v-43h-13zM1130 590v-42h12q25 0 25 22q0 20 -23 20h-14zM1199 495v111h12v-111h-12zM1293 499q-12 -4 -26 -4q-38 0 -38 37q0 17 10 28.5t26 11.5q31 0 31 -34v-8h-53q0 -26 26 -26q12 0 20 4zM1263 562q-20 0 -20 -22h40q0 22 -20 22zM1366 495h-12l-2 9
q-4 -9 -23 -9q-10 0 -16.5 5.5t-6.5 13.5q0 31 46 31q0 17 -15 17q-12 0 -20 -4l-4 8q9 6 24 6q29 0 29 -29v-29v-19zM1352 520v14q-31 0 -31 -16q0 -14 12 -14q15 0 19 12v4zM1432 516q0 -21 -28 -21q-11 0 -21 4l4 11q9 -6 17 -6q14 0 14 10q0 8 -14 14q-19 8 -19 22
q0 22 25 22q12 0 20 -4l-4 -10q-4 4 -16 4t-12 -10q0 -7 14 -14q20 -6 20 -22zM1510 538v-8h-52q0 -26 25 -26q13 0 21 4l4 -9q-12 -4 -28 -4q-36 0 -36 37q0 17 10 28.5t26 11.5q30 0 30 -34zM1458 540h40q0 22 -20 22t-20 -22zM1617 599h14l-38 -104h-16l-34 104h17
l16 -51q5 -23 11 -38q1 6 5.5 19t6.5 19zM1647 601q8 0 8 -9q0 -8 -10 -8q-6 0 -6 8q0 9 8 9zM1639 495v77h14v-77h-14zM1693 504q14 0 14 10q0 8 -14 14q-21 8 -21 22q0 9 7.5 15.5t19.5 6.5q10 0 18 -4l-2 -10q-8 4 -16 4q-14 0 -14 -10q0 -6 16 -14q19 -6 19 -22
q0 -9 -7.5 -15t-19.5 -6q-15 0 -23 4l4 11q12 -6 19 -6zM1744 601q9 0 9 -9q0 -8 -9 -8q-10 0 -10 8q0 9 10 9zM1753 572v-77h-15v77h15zM1811 560h-21v-40q0 -16 10 -16q2 0 5 1t6 1v-9q-5 -2 -15 -2q-7 0 -14 5q-6 6 -6 18v42h-10v12h10v16l14 4v-20h21v-12zM491 267h-28
v16q-13 -18 -34 -18q-33 0 -33 41q0 29 19 50t48 21q10 0 14 -2l10 48h32l-23 -113q-3 -24 -5 -43zM444 289q17 0 23 30l6 30q-4 4 -12 4q-14 0 -24 -13.5t-10 -29.5q0 -21 17 -21zM575 406q0 -19 -19 -19q-16 0 -16 16q0 7 5.5 12.5t12.5 5.5q17 0 17 -15zM569 375
l-21 -108h-33l22 108h32zM640 267l12 60v12q0 12 -10 12q-8 0 -16.5 -9.5t-11.5 -26.5l-10 -48h-29l13 72q1 6 2 18.5t2 17.5h30l-4 -17h2q16 19 38 19q27 0 27 -30q0 -6 -4 -18l-9 -62h-32zM700 313l6 24h56l-4 -24h-58zM823 353q-14 0 -14 -8q0 -6 14 -12q24 -12 24 -29
q0 -39 -50 -39q-19 0 -31 8l8 23q22 -9 25 -9q15 0 15 11q0 6 -13 14q-24 10 -24 27q0 18 13.5 28t34.5 10q19 0 28 -6l-8 -22q-8 4 -22 4zM911 349l-8 -36q0 -1 -1 -6t-1 -7q0 -9 10 -9h9l-4 -24q-5 -2 -19 -2q-28 0 -28 22q0 13 1 21l9 41h-12l2 26h14l6 22l31 8l-5 -30
h22l-5 -26h-21zM1034 267h-27l2 18q-16 -20 -39 -20q-27 0 -27 31q0 3 1 9t1 10l12 60h29l-10 -58q0 -2 -1 -7t-1 -6q0 -15 12 -15q9 0 16.5 10t9.5 26l8 50h34l-14 -71q-1 -6 -3.5 -19.5t-2.5 -17.5zM1157 267h-27l2 16q-14 -18 -36 -18q-14 0 -24 11t-10 30q0 29 19.5 50
t48.5 21q10 0 16 -2l7 48h33l-23 -113q-1 -4 -3 -20t-3 -23zM1109 289q8 0 16 8t11 22l4 30q-4 4 -12 4q-15 0 -23.5 -13t-8.5 -30q0 -21 13 -21zM1243 406q0 -8 -6 -13.5t-14 -5.5q-16 0 -16 16q0 7 5.5 12.5t12.5 5.5t12.5 -4.5t5.5 -10.5zM1235 375l-20 -108h-34l22 108
h32zM1289 265q-20 0 -32 12.5t-12 32.5q0 28 18 47.5t45 19.5q21 0 33.5 -12.5t12.5 -31.5q0 -29 -18.5 -48.5t-46.5 -19.5zM1304 353q-12 0 -19.5 -14t-7.5 -29q0 -21 17 -21q13 0 21 13.5t8 30.5q0 20 -19 20zM1381 265q-19 0 -19 18q0 23 21 23q19 0 19 -21
q0 -9 -6 -14.5t-15 -5.5zM1489 351q-15 0 -25 -11.5t-10 -26.5q0 -11 6.5 -17.5t15.5 -6.5q4 0 12.5 3.5t9.5 3.5v-27q-18 -4 -30 -4q-21 0 -33.5 12t-12.5 33q0 28 19.5 47.5t49.5 19.5q11 0 23 -4l-8 -24q-1 0 -6.5 1t-10.5 1zM1562 265q-22 0 -34 12.5t-12 32.5
q0 28 17.5 47.5t45.5 19.5q21 0 33.5 -12.5t12.5 -31.5q0 -29 -18.5 -48.5t-44.5 -19.5zM1576 353q-13 0 -21 -14t-8 -29q0 -21 17 -21q12 0 19.5 14t7.5 30q0 20 -15 20zM1761 267l9 60q2 2 2 12q0 12 -9 12q-8 0 -16 -10t-11 -24l-8 -50h-31l12 60v12q0 12 -10 12
q-17 0 -27 -36l-7 -48h-30l14 72q1 6 2 18.5t2 17.5h27l-2 -17q16 19 37 19q12 0 18.5 -6t6.5 -13q16 19 38 19q26 0 26 -28q0 -3 -1 -10t-1 -10l-12 -62h-29zM147 659q-59 1 -93 30t-34 72q0 31 13.5 44.5t27.5 13.5q24 0 32.5 -19.5t-4.5 -30.5q0 18 -19 21q-22 3 -29 -19
q-2 -6 -2 -14q0 -36 29.5 -56.5t78.5 -20.5q30 0 51.5 13.5t31.5 37t14 46.5t4 50v26.5t-1.5 28t-5.5 31.5t-10 24.5t-17 20t-26 6.5q-10 0 -10 -24v-67v-2v-112q0 -11 4 -17.5t8 -7.5h5v-9h-94v9q14 0 15 21v189q0 29 -23 29q-9 0 -14.5 -4t-5.5 -9q0 -7 4.5 -10.5
t8.5 -3.5h5q0 -27 -25 -27q-12 0 -19 6.5t-8.5 11.5t-1.5 9q0 19 18.5 30.5t37.5 11.5q18 0 45 -7.5t50 -7.5q121 0 121 -146q0 -67 -41.5 -119t-120.5 -49zM423 734v-9h-93v9q14 0 16 21v100q-1 10 -5 15.5t-7 5.5l-4 1v7l75 14v-139q0 -11 4.5 -17.5t8.5 -7.5h5zM378 968
q12 0 19.5 -8.5t7.5 -19.5q0 -12 -7.5 -21t-19.5 -9t-20 9t-8 21q0 11 8 19.5t20 8.5zM521 877q20 23 50 23q22 0 36.5 -14t14.5 -40v-87q0 -25 16 -25v-9h-94v9q14 0 16 21v98q0 18 -16 19t-22 -17q-1 -4 -1 -9v-87q0 -11 4 -17.5t8 -7.5h4v-9h-93v9q13 0 15 21v100
q-1 10 -4.5 15.5t-6.5 5.5l-4 1v7l77 14v-21zM803 910q0 3 0.5 7t5.5 15t14 19t28.5 15t45.5 7q18 0 35 -4.5t21 -5.5t17 5q6 3 12 3v-63l-8 -2q0 2 -1 5.5t-6 12.5t-13 16t-23 12.5t-34 5.5q-21 0 -34 -13.5t-12 -29t16 -21.5q7 -3 37.5 -11.5t51 -16t38.5 -29t17 -51.5
q-2 -27 -28.5 -44t-75.5 -17q-21 0 -38.5 2.5t-24 4.5t-12 0.5t-9.5 -7.5h-9v66h9q0 -20 25.5 -33t56.5 -13t44.5 15t4 32.5t-33.5 24.5q-3 1 -17 5t-20 6t-18.5 7t-19 9t-16 11t-14.5 14.5t-8.5 18t-3.5 22.5zM1115 890h-3.5t-7 -4.5t-6.5 -12.5v-118q1 -9 5 -14.5t8 -6.5
h4v-9h-25q-15 0 -23.5 1.5t-18.5 13t-10 33.5v98q-1 9 -5.5 14t-8.5 5h-4v8q24 0 46 11.5t32 11.5v-23h17v-8zM1132 890v10h89v-10h-3t-5.5 -5t-3.5 -14v-92q0 -19 10 -24t20 3t10 21v88q0 11 -3.5 17t-7.5 6h-3v10h92v-10h-4.5t-8 -5t-6.5 -14v-116q1 -9 6 -14.5t9 -6.5h4
v-9h-44q-14 0 -24 9.5t-10 18.5q-17 -28 -44 -28q-22 0 -39.5 14.5t-17.5 39.5v88q0 23 -16 23zM1585 686q0 -27 -34 -27q-15 0 -32.5 4t-38.5 22t-26 47q-18 -7 -30 -7q-34 0 -59.5 26t-25.5 62t25.5 61.5t59.5 25.5q4 0 28 -6v79l77 -13v-8h-1q-2 0 -4.5 -1t-4.5 -3
t-4 -6.5t-3 -11.5v-181q3 -71 41 -77q-6 6 -6 14q0 7 6 13t15 6q7 0 12 -6t5 -13zM1424 739q28 0 28 74q0 75 -28 75q-26 0 -26 -75q0 -74 26 -74zM1633 734v-9h-94v9q14 0 16 21v100q-1 10 -5 15.5t-8 5.5l-3 1v7l78 14v-139q0 -11 4 -17.5t8 -7.5h4zM1560 940q0 11 8 19.5
t19 8.5q12 0 20 -8.5t8 -19.5q0 -12 -8 -21t-20 -9q-11 0 -19 9t-8 21zM1806 813q0 -36 -25 -62t-61 -26t-60.5 26t-24.5 62t24.5 60.5t60.5 24.5t61 -24.5t25 -60.5zM1720 739q27 0 27 74q0 37 -5 55t-22 18q-16 0 -20.5 -18t-4.5 -55t4.5 -55.5t20.5 -18.5zM33 289v44h322
v-44h-322zM941 1239h-196l148 187h197zM1809 1239h-185l148 187h37v-187zM355 1239h-196l150 187h196zM1233 1239h-195l150 187h195zM212 1426l-151 -187h-28v187h179zM648 1239h-195l149 187h195zM1528 1239h-197l149 187h194zM893 210h197l-149 -187h-196zM1624 23
l148 187h37v-187h-185zM309 210h196l-150 -187h-196zM1188 210h195l-150 -187h-195zM33 210h179l-151 -187h-28v187zM602 210h195l-149 -187h-195zM1480 210h194l-146 -187h-197z" />
    <glyph glyph-name="two" unicode="2" horiz-adv-x="1850" 
d="M61 1106l-10 -46h-26l22 123q10 2 34 2q21 0 34 -8q14 -8 14 -26q0 -20 -18 -36q-13 -9 -40 -9h-10zM71 1162l-5 -35q2 -2 9 -2q26 0 26 24q0 16 -20 16q-8 0 -10 -3zM222 1160h-48l-4 -25h46l-6 -22h-44l-5 -30h49l-3 -23h-78l24 125h73zM262 1110l-9 -50h-27l24 123
q7 2 32 2q18 0 34 -6q14 -11 14 -24q0 -25 -30 -36q10 -6 13 -24q0 -8 1.5 -20.5t1.5 -14.5h-26q0 1 -4 29q0 21 -16 21h-8zM272 1162l-6 -33h10q11 0 18.5 6.5t7.5 15.5q0 14 -20 14q-8 0 -10 -3zM367 1081q21 0 21 14q0 11 -17 18q-25 14 -25 32q0 20 13.5 31t34.5 11
q11 0 29 -6l-8 -22q-18 4 -23 3q-19 0 -19 -11q0 -9 19 -18q25 -13 25 -31q0 -44 -52 -44q-24 0 -35 9l10 20q18 -6 27 -6zM500 1187q24 0 37 -14.5t13 -37.5q0 -39 -23 -60q-19 -17 -44 -17q-23 0 -37.5 15t-14.5 37q0 33 24 59q18 18 45 18zM507 1089q16 16 16 46t-27 30
q-9 0 -21 -10q-14 -14 -14 -43q0 -31 26 -31q11 0 20 8zM590 1104l-9 -44h-25l25 125h31l17 -48q3 -8 6 -22t5 -20q0 17 6 44l8 46h24l-22 -125h-27l-19 50q-4 10 -7.5 25.5t-4.5 17.5q-1 -4 -2 -13t-2.5 -18.5t-3.5 -17.5zM716 1091l-16 -31h-28l59 125h35l15 -125h-29
l-3 31h-33zM735 1139l-13 -26h27l-4 26v26q-7 -14 -10 -26zM820 1185h25l-20 -102h47l-3 -23h-74zM968 1185l-13 -72v-16q0 -16 15 -16q23 0 28 32l14 72h28l-14 -72q-6 -29 -19 -42t-39 -13q-42 0 -42 39q0 13 2 18l13 70h27zM1074 1081q20 0 20 14q0 10 -16 18
q-28 16 -28 32q0 20 14.5 31t35.5 11q18 0 30 -6l-9 -22q-18 5 -23 3q-20 0 -20 -11q0 -6 20 -18q23 -14 23 -31q0 -22 -14 -33t-35 -11q-29 0 -36 9l8 20q24 -6 30 -6zM1227 1160h-48l-4 -25h44l-4 -22h-46l-4 -30h50l-6 -23h-75l23 125h74zM1364 1075q-23 -17 -45 -17
q-23 0 -36.5 14.5t-13.5 37.5q0 38 24 59q13 18 44 18q24 0 37 -14.5t13 -37.5q0 -41 -23 -60zM1296 1112q0 -31 27 -31q15 0 19 8q18 18 18 46q0 12 -7 21t-20 9q-8 0 -20 -10q-17 -15 -17 -43zM1435 1153q0 -6 -9 -49l-8 -44h-26l24 125h32l16 -48q6 -16 14 -42q0 14 5 44
l6 46h27l-25 -125h-27l-18 50q-10 42 -10 43h-1zM1541 1185h27l-21 -102h48l-4 -23h-73zM1649 1112l-8 -52h-28l11 52l-27 73h30l8 -32q2 -10 6 -22q4 6 12 22l17 32h33zM1728 1073q0 18 19 18q14 0 14 -16q0 -7 -5.5 -12t-13.5 -5q-14 0 -14 15zM1778 1185l-19 -83h-21
l13 83h27zM91 588h-44v-34h40v-11h-40v-48h-14v104h58v-11zM172 534q0 -20 -11 -29.5t-26 -9.5q-16 0 -26 10t-10 27q0 19 10 29.5t26 10.5q37 0 37 -38zM113 532q0 -28 22 -28q11 0 17.5 8.5t6.5 21.5q0 28 -24 28q-22 0 -22 -30zM203 495h-15v53v24h13l2 -16q6 16 19 16h4
v-14q0 2 -4 2q-13 0 -17 -17q-2 -3 -2 -7v-41zM268 548q0 24 15.5 38.5t40.5 14.5q16 0 24 -4l-4 -11q-12 6 -20 6q-19 0 -30.5 -12t-11.5 -32q0 -44 42 -44q8 0 20 6l4 -11q-8 -4 -28 -4q-24 0 -38 13.5t-14 39.5zM394 495q-17 0 -28 10t-11 27q0 19 11 29.5t28 10.5
q16 0 26.5 -10t10.5 -28q0 -19 -11 -29t-26 -10zM394 562q-12 0 -18.5 -8.5t-6.5 -21.5q0 -12 7 -20t18 -8q10 0 16.5 8.5t6.5 21.5q0 11 -6 19.5t-17 8.5zM554 495h-14v43q0 24 -15 24q-13 0 -16 -14q-2 -3 -2 -5v-48h-13v48q0 19 -15 19q-13 0 -18 -14v-5v-48h-14v55v22
h12v-14h2q3 14 24 14q11 0 20 -14l10 10q2 4 16 4q23 0 23 -32v-45zM685 540v-45h-13v43q0 24 -16 24q-11 0 -18 -14v-5v-48h-14v48q0 19 -16 19q-9 0 -18 -14v-5v-48h-11v55q0 14 -2 22h11v-14h2q7 14 24 14q18 0 20 -14l10 10q4 4 16 4q25 0 25 -32zM770 538q0 -2 -1 -4.5
t-1 -3.5h-52q0 -26 25 -26q9 0 21 4l2 -9q-8 -4 -25 -4q-37 0 -37 37q0 17 10 28.5t25 11.5q17 0 25 -10.5t8 -23.5zM716 540h40q0 22 -21 22q-19 0 -19 -22zM785 548v24h10l2 -16q6 16 23 16h3v-14q-1 2 -5 2q-15 0 -19 -17v-7v-41h-14v53zM889 499q-8 -4 -22 -4
q-18 0 -28 10t-10 27q0 18 11 29t29 11q12 0 20 -4l-4 -10q-4 4 -16 4t-19 -9t-7 -21t7 -20t19 -8q4 0 10 2t8 2zM911 601q9 0 9 -9q0 -8 -9 -8q-8 0 -8 8q0 9 8 9zM905 495v77h13v-77h-13zM957 495q-10 0 -16.5 5.5t-6.5 13.5q0 31 46 31q0 17 -16 17q-11 0 -19 -4l-4 8
q9 6 23 6q30 0 30 -29v-29v-19h-12l-2 9q-7 -9 -23 -9zM980 534q-31 0 -31 -16q0 -14 12 -14q11 0 19 12v4v14zM1016 495v111h14v-111h-14zM1050 514h18q-3 -8 -16 -38h-10q8 18 8 38zM1117 495v102q14 4 25 4q18 0 29 -9q10 -5 10 -20q0 -16 -8 -24q-12 -12 -31 -12
q-8 0 -12 2v-43h-13zM1130 590v-42h12q25 0 25 22q0 20 -23 20h-14zM1199 495v111h12v-111h-12zM1293 499q-12 -4 -26 -4q-38 0 -38 37q0 17 10 28.5t26 11.5q31 0 31 -34v-8h-53q0 -26 26 -26q12 0 20 4zM1263 562q-20 0 -20 -22h40q0 22 -20 22zM1366 495h-12l-2 9
q-4 -9 -23 -9q-10 0 -16.5 5.5t-6.5 13.5q0 31 46 31q0 17 -15 17q-12 0 -20 -4l-4 8q9 6 24 6q29 0 29 -29v-29v-19zM1352 520v14q-31 0 -31 -16q0 -14 12 -14q15 0 19 12v4zM1432 516q0 -21 -28 -21q-11 0 -21 4l4 11q9 -6 17 -6q14 0 14 10q0 8 -14 14q-19 8 -19 22
q0 22 25 22q12 0 20 -4l-4 -10q-4 4 -16 4t-12 -10q0 -7 14 -14q20 -6 20 -22zM1510 538v-8h-52q0 -26 25 -26q13 0 21 4l4 -9q-12 -4 -28 -4q-36 0 -36 37q0 17 10 28.5t26 11.5q30 0 30 -34zM1458 540h40q0 22 -20 22t-20 -22zM1617 599h14l-38 -104h-16l-34 104h17
l16 -51q5 -23 11 -38q1 6 5.5 19t6.5 19zM1647 601q8 0 8 -9q0 -8 -10 -8q-6 0 -6 8q0 9 8 9zM1639 495v77h14v-77h-14zM1693 504q14 0 14 10q0 8 -14 14q-21 8 -21 22q0 9 7.5 15.5t19.5 6.5q10 0 18 -4l-2 -10q-8 4 -16 4q-14 0 -14 -10q0 -6 16 -14q19 -6 19 -22
q0 -9 -7.5 -15t-19.5 -6q-15 0 -23 4l4 11q12 -6 19 -6zM1744 601q9 0 9 -9q0 -8 -9 -8q-10 0 -10 8q0 9 10 9zM1753 572v-77h-15v77h15zM1811 560h-21v-40q0 -16 10 -16q2 0 5 1t6 1v-9q-5 -2 -15 -2q-7 0 -14 5q-6 6 -6 18v42h-10v12h10v16l14 4v-20h21v-12zM491 267h-28
v16q-13 -18 -34 -18q-33 0 -33 41q0 29 19 50t48 21q10 0 14 -2l10 48h32l-23 -113q-3 -24 -5 -43zM444 289q17 0 23 30l6 30q-4 4 -12 4q-14 0 -24 -13.5t-10 -29.5q0 -21 17 -21zM575 406q0 -19 -19 -19q-16 0 -16 16q0 7 5.5 12.5t12.5 5.5q17 0 17 -15zM569 375
l-21 -108h-33l22 108h32zM640 267l12 60v12q0 12 -10 12q-8 0 -16.5 -9.5t-11.5 -26.5l-10 -48h-29l13 72q1 6 2 18.5t2 17.5h30l-4 -17h2q16 19 38 19q27 0 27 -30q0 -6 -4 -18l-9 -62h-32zM700 313l6 24h56l-4 -24h-58zM823 353q-14 0 -14 -8q0 -6 14 -12q24 -12 24 -29
q0 -39 -50 -39q-19 0 -31 8l8 23q22 -9 25 -9q15 0 15 11q0 6 -13 14q-24 10 -24 27q0 18 13.5 28t34.5 10q19 0 28 -6l-8 -22q-8 4 -22 4zM911 349l-8 -36q0 -1 -1 -6t-1 -7q0 -9 10 -9h9l-4 -24q-5 -2 -19 -2q-28 0 -28 22q0 13 1 21l9 41h-12l2 26h14l6 22l31 8l-5 -30
h22l-5 -26h-21zM1034 267h-27l2 18q-16 -20 -39 -20q-27 0 -27 31q0 3 1 9t1 10l12 60h29l-10 -58q0 -2 -1 -7t-1 -6q0 -15 12 -15q9 0 16.5 10t9.5 26l8 50h34l-14 -71q-1 -6 -3.5 -19.5t-2.5 -17.5zM1157 267h-27l2 16q-14 -18 -36 -18q-14 0 -24 11t-10 30q0 29 19.5 50
t48.5 21q10 0 16 -2l7 48h33l-23 -113q-1 -4 -3 -20t-3 -23zM1109 289q8 0 16 8t11 22l4 30q-4 4 -12 4q-15 0 -23.5 -13t-8.5 -30q0 -21 13 -21zM1243 406q0 -8 -6 -13.5t-14 -5.5q-16 0 -16 16q0 7 5.5 12.5t12.5 5.5t12.5 -4.5t5.5 -10.5zM1235 375l-20 -108h-34l22 108
h32zM1289 265q-20 0 -32 12.5t-12 32.5q0 28 18 47.5t45 19.5q21 0 33.5 -12.5t12.5 -31.5q0 -29 -18.5 -48.5t-46.5 -19.5zM1304 353q-12 0 -19.5 -14t-7.5 -29q0 -21 17 -21q13 0 21 13.5t8 30.5q0 20 -19 20zM1381 265q-19 0 -19 18q0 23 21 23q19 0 19 -21
q0 -9 -6 -14.5t-15 -5.5zM1489 351q-15 0 -25 -11.5t-10 -26.5q0 -11 6.5 -17.5t15.5 -6.5q4 0 12.5 3.5t9.5 3.5v-27q-18 -4 -30 -4q-21 0 -33.5 12t-12.5 33q0 28 19.5 47.5t49.5 19.5q11 0 23 -4l-8 -24q-1 0 -6.5 1t-10.5 1zM1562 265q-22 0 -34 12.5t-12 32.5
q0 28 17.5 47.5t45.5 19.5q21 0 33.5 -12.5t12.5 -31.5q0 -29 -18.5 -48.5t-44.5 -19.5zM1576 353q-13 0 -21 -14t-8 -29q0 -21 17 -21q12 0 19.5 14t7.5 30q0 20 -15 20zM1761 267l9 60q2 2 2 12q0 12 -9 12q-8 0 -16 -10t-11 -24l-8 -50h-31l12 60v12q0 12 -10 12
q-17 0 -27 -36l-7 -48h-30l14 72q1 6 2 18.5t2 17.5h27l-2 -17q16 19 37 19q12 0 18.5 -6t6.5 -13q16 19 38 19q26 0 26 -28q0 -3 -1 -10t-1 -10l-12 -62h-29zM147 659q-59 1 -93 30t-34 72q0 31 13.5 44.5t27.5 13.5q24 0 32.5 -19.5t-4.5 -30.5q0 18 -19 21q-22 3 -29 -19
q-2 -6 -2 -14q0 -36 29.5 -56.5t78.5 -20.5q30 0 51.5 13.5t31.5 37t14 46.5t4 50v26.5t-1.5 28t-5.5 31.5t-10 24.5t-17 20t-26 6.5q-10 0 -10 -24v-67v-2v-112q0 -11 4 -17.5t8 -7.5h5v-9h-94v9q14 0 15 21v189q0 29 -23 29q-9 0 -14.5 -4t-5.5 -9q0 -7 4.5 -10.5
t8.5 -3.5h5q0 -27 -25 -27q-12 0 -19 6.5t-8.5 11.5t-1.5 9q0 19 18.5 30.5t37.5 11.5q18 0 45 -7.5t50 -7.5q121 0 121 -146q0 -67 -41.5 -119t-120.5 -49zM423 734v-9h-93v9q14 0 16 21v100q-1 10 -5 15.5t-7 5.5l-4 1v7l75 14v-139q0 -11 4.5 -17.5t8.5 -7.5h5zM378 968
q12 0 19.5 -8.5t7.5 -19.5q0 -12 -7.5 -21t-19.5 -9t-20 9t-8 21q0 11 8 19.5t20 8.5zM521 877q20 23 50 23q22 0 36.5 -14t14.5 -40v-87q0 -25 16 -25v-9h-94v9q14 0 16 21v98q0 18 -16 19t-22 -17q-1 -4 -1 -9v-87q0 -11 4 -17.5t8 -7.5h4v-9h-93v9q13 0 15 21v100
q-1 10 -4.5 15.5t-6.5 5.5l-4 1v7l77 14v-21zM803 910q0 3 0.5 7t5.5 15t14 19t28.5 15t45.5 7q18 0 35 -4.5t21 -5.5t17 5q6 3 12 3v-63l-8 -2q0 2 -1 5.5t-6 12.5t-13 16t-23 12.5t-34 5.5q-21 0 -34 -13.5t-12 -29t16 -21.5q7 -3 37.5 -11.5t51 -16t38.5 -29t17 -51.5
q-2 -27 -28.5 -44t-75.5 -17q-21 0 -38.5 2.5t-24 4.5t-12 0.5t-9.5 -7.5h-9v66h9q0 -20 25.5 -33t56.5 -13t44.5 15t4 32.5t-33.5 24.5q-3 1 -17 5t-20 6t-18.5 7t-19 9t-16 11t-14.5 14.5t-8.5 18t-3.5 22.5zM1115 890h-3.5t-7 -4.5t-6.5 -12.5v-118q1 -9 5 -14.5t8 -6.5
h4v-9h-25q-15 0 -23.5 1.5t-18.5 13t-10 33.5v98q-1 9 -5.5 14t-8.5 5h-4v8q24 0 46 11.5t32 11.5v-23h17v-8zM1132 890v10h89v-10h-3t-5.5 -5t-3.5 -14v-92q0 -19 10 -24t20 3t10 21v88q0 11 -3.5 17t-7.5 6h-3v10h92v-10h-4.5t-8 -5t-6.5 -14v-116q1 -9 6 -14.5t9 -6.5h4
v-9h-44q-14 0 -24 9.5t-10 18.5q-17 -28 -44 -28q-22 0 -39.5 14.5t-17.5 39.5v88q0 23 -16 23zM1585 686q0 -27 -34 -27q-15 0 -32.5 4t-38.5 22t-26 47q-18 -7 -30 -7q-34 0 -59.5 26t-25.5 62t25.5 61.5t59.5 25.5q4 0 28 -6v79l77 -13v-8h-1q-2 0 -4.5 -1t-4.5 -3
t-4 -6.5t-3 -11.5v-181q3 -71 41 -77q-6 6 -6 14q0 7 6 13t15 6q7 0 12 -6t5 -13zM1424 739q28 0 28 74q0 75 -28 75q-26 0 -26 -75q0 -74 26 -74zM1633 734v-9h-94v9q14 0 16 21v100q-1 10 -5 15.5t-8 5.5l-3 1v7l78 14v-139q0 -11 4 -17.5t8 -7.5h4zM1560 940q0 11 8 19.5
t19 8.5q12 0 20 -8.5t8 -19.5q0 -12 -8 -21t-20 -9q-11 0 -19 9t-8 21zM1806 813q0 -36 -25 -62t-61 -26t-60.5 26t-24.5 62t24.5 60.5t60.5 24.5t61 -24.5t25 -60.5zM1720 739q27 0 27 74q0 37 -5 55t-22 18q-16 0 -20.5 -18t-4.5 -55t4.5 -55.5t20.5 -18.5zM33 289v44h322
v-44h-322zM941 1239h-196l148 187h197zM1809 1239h-185l148 187h37v-187zM355 1239h-196l150 187h196zM1233 1239h-195l150 187h195zM212 1426l-151 -187h-28v187h179zM648 1239h-195l149 187h195zM1528 1239h-197l149 187h194zM893 210h197l-149 -187h-196zM1624 23
l148 187h37v-187h-185zM309 210h196l-150 -187h-196zM1188 210h195l-150 -187h-195zM33 210h179l-151 -187h-28v187zM602 210h195l-149 -187h-195zM1480 210h194l-146 -187h-197z" />
    <glyph glyph-name="three" unicode="3" horiz-adv-x="1850" 
d="M61 1106l-10 -46h-26l22 123q10 2 34 2q21 0 34 -8q14 -8 14 -26q0 -20 -18 -36q-13 -9 -40 -9h-10zM71 1162l-5 -35q2 -2 9 -2q26 0 26 24q0 16 -20 16q-8 0 -10 -3zM222 1160h-48l-4 -25h46l-6 -22h-44l-5 -30h49l-3 -23h-78l24 125h73zM262 1110l-9 -50h-27l24 123
q7 2 32 2q18 0 34 -6q14 -11 14 -24q0 -25 -30 -36q10 -6 13 -24q0 -8 1.5 -20.5t1.5 -14.5h-26q0 1 -4 29q0 21 -16 21h-8zM272 1162l-6 -33h10q11 0 18.5 6.5t7.5 15.5q0 14 -20 14q-8 0 -10 -3zM367 1081q21 0 21 14q0 11 -17 18q-25 14 -25 32q0 20 13.5 31t34.5 11
q11 0 29 -6l-8 -22q-18 4 -23 3q-19 0 -19 -11q0 -9 19 -18q25 -13 25 -31q0 -44 -52 -44q-24 0 -35 9l10 20q18 -6 27 -6zM500 1187q24 0 37 -14.5t13 -37.5q0 -39 -23 -60q-19 -17 -44 -17q-23 0 -37.5 15t-14.5 37q0 33 24 59q18 18 45 18zM507 1089q16 16 16 46t-27 30
q-9 0 -21 -10q-14 -14 -14 -43q0 -31 26 -31q11 0 20 8zM590 1104l-9 -44h-25l25 125h31l17 -48q3 -8 6 -22t5 -20q0 17 6 44l8 46h24l-22 -125h-27l-19 50q-4 10 -7.5 25.5t-4.5 17.5q-1 -4 -2 -13t-2.5 -18.5t-3.5 -17.5zM716 1091l-16 -31h-28l59 125h35l15 -125h-29
l-3 31h-33zM735 1139l-13 -26h27l-4 26v26q-7 -14 -10 -26zM820 1185h25l-20 -102h47l-3 -23h-74zM968 1185l-13 -72v-16q0 -16 15 -16q23 0 28 32l14 72h28l-14 -72q-6 -29 -19 -42t-39 -13q-42 0 -42 39q0 13 2 18l13 70h27zM1074 1081q20 0 20 14q0 10 -16 18
q-28 16 -28 32q0 20 14.5 31t35.5 11q18 0 30 -6l-9 -22q-18 5 -23 3q-20 0 -20 -11q0 -6 20 -18q23 -14 23 -31q0 -22 -14 -33t-35 -11q-29 0 -36 9l8 20q24 -6 30 -6zM1227 1160h-48l-4 -25h44l-4 -22h-46l-4 -30h50l-6 -23h-75l23 125h74zM1364 1075q-23 -17 -45 -17
q-23 0 -36.5 14.5t-13.5 37.5q0 38 24 59q13 18 44 18q24 0 37 -14.5t13 -37.5q0 -41 -23 -60zM1296 1112q0 -31 27 -31q15 0 19 8q18 18 18 46q0 12 -7 21t-20 9q-8 0 -20 -10q-17 -15 -17 -43zM1435 1153q0 -6 -9 -49l-8 -44h-26l24 125h32l16 -48q6 -16 14 -42q0 14 5 44
l6 46h27l-25 -125h-27l-18 50q-10 42 -10 43h-1zM1541 1185h27l-21 -102h48l-4 -23h-73zM1649 1112l-8 -52h-28l11 52l-27 73h30l8 -32q2 -10 6 -22q4 6 12 22l17 32h33zM1728 1073q0 18 19 18q14 0 14 -16q0 -7 -5.5 -12t-13.5 -5q-14 0 -14 15zM1778 1185l-19 -83h-21
l13 83h27zM91 588h-44v-34h40v-11h-40v-48h-14v104h58v-11zM172 534q0 -20 -11 -29.5t-26 -9.5q-16 0 -26 10t-10 27q0 19 10 29.5t26 10.5q37 0 37 -38zM113 532q0 -28 22 -28q11 0 17.5 8.5t6.5 21.5q0 28 -24 28q-22 0 -22 -30zM203 495h-15v53v24h13l2 -16q6 16 19 16h4
v-14q0 2 -4 2q-13 0 -17 -17q-2 -3 -2 -7v-41zM268 548q0 24 15.5 38.5t40.5 14.5q16 0 24 -4l-4 -11q-12 6 -20 6q-19 0 -30.5 -12t-11.5 -32q0 -44 42 -44q8 0 20 6l4 -11q-8 -4 -28 -4q-24 0 -38 13.5t-14 39.5zM394 495q-17 0 -28 10t-11 27q0 19 11 29.5t28 10.5
q16 0 26.5 -10t10.5 -28q0 -19 -11 -29t-26 -10zM394 562q-12 0 -18.5 -8.5t-6.5 -21.5q0 -12 7 -20t18 -8q10 0 16.5 8.5t6.5 21.5q0 11 -6 19.5t-17 8.5zM554 495h-14v43q0 24 -15 24q-13 0 -16 -14q-2 -3 -2 -5v-48h-13v48q0 19 -15 19q-13 0 -18 -14v-5v-48h-14v55v22
h12v-14h2q3 14 24 14q11 0 20 -14l10 10q2 4 16 4q23 0 23 -32v-45zM685 540v-45h-13v43q0 24 -16 24q-11 0 -18 -14v-5v-48h-14v48q0 19 -16 19q-9 0 -18 -14v-5v-48h-11v55q0 14 -2 22h11v-14h2q7 14 24 14q18 0 20 -14l10 10q4 4 16 4q25 0 25 -32zM770 538q0 -2 -1 -4.5
t-1 -3.5h-52q0 -26 25 -26q9 0 21 4l2 -9q-8 -4 -25 -4q-37 0 -37 37q0 17 10 28.5t25 11.5q17 0 25 -10.5t8 -23.5zM716 540h40q0 22 -21 22q-19 0 -19 -22zM785 548v24h10l2 -16q6 16 23 16h3v-14q-1 2 -5 2q-15 0 -19 -17v-7v-41h-14v53zM889 499q-8 -4 -22 -4
q-18 0 -28 10t-10 27q0 18 11 29t29 11q12 0 20 -4l-4 -10q-4 4 -16 4t-19 -9t-7 -21t7 -20t19 -8q4 0 10 2t8 2zM911 601q9 0 9 -9q0 -8 -9 -8q-8 0 -8 8q0 9 8 9zM905 495v77h13v-77h-13zM957 495q-10 0 -16.5 5.5t-6.5 13.5q0 31 46 31q0 17 -16 17q-11 0 -19 -4l-4 8
q9 6 23 6q30 0 30 -29v-29v-19h-12l-2 9q-7 -9 -23 -9zM980 534q-31 0 -31 -16q0 -14 12 -14q11 0 19 12v4v14zM1016 495v111h14v-111h-14zM1050 514h18q-3 -8 -16 -38h-10q8 18 8 38zM1117 495v102q14 4 25 4q18 0 29 -9q10 -5 10 -20q0 -16 -8 -24q-12 -12 -31 -12
q-8 0 -12 2v-43h-13zM1130 590v-42h12q25 0 25 22q0 20 -23 20h-14zM1199 495v111h12v-111h-12zM1293 499q-12 -4 -26 -4q-38 0 -38 37q0 17 10 28.5t26 11.5q31 0 31 -34v-8h-53q0 -26 26 -26q12 0 20 4zM1263 562q-20 0 -20 -22h40q0 22 -20 22zM1366 495h-12l-2 9
q-4 -9 -23 -9q-10 0 -16.5 5.5t-6.5 13.5q0 31 46 31q0 17 -15 17q-12 0 -20 -4l-4 8q9 6 24 6q29 0 29 -29v-29v-19zM1352 520v14q-31 0 -31 -16q0 -14 12 -14q15 0 19 12v4zM1432 516q0 -21 -28 -21q-11 0 -21 4l4 11q9 -6 17 -6q14 0 14 10q0 8 -14 14q-19 8 -19 22
q0 22 25 22q12 0 20 -4l-4 -10q-4 4 -16 4t-12 -10q0 -7 14 -14q20 -6 20 -22zM1510 538v-8h-52q0 -26 25 -26q13 0 21 4l4 -9q-12 -4 -28 -4q-36 0 -36 37q0 17 10 28.5t26 11.5q30 0 30 -34zM1458 540h40q0 22 -20 22t-20 -22zM1617 599h14l-38 -104h-16l-34 104h17
l16 -51q5 -23 11 -38q1 6 5.5 19t6.5 19zM1647 601q8 0 8 -9q0 -8 -10 -8q-6 0 -6 8q0 9 8 9zM1639 495v77h14v-77h-14zM1693 504q14 0 14 10q0 8 -14 14q-21 8 -21 22q0 9 7.5 15.5t19.5 6.5q10 0 18 -4l-2 -10q-8 4 -16 4q-14 0 -14 -10q0 -6 16 -14q19 -6 19 -22
q0 -9 -7.5 -15t-19.5 -6q-15 0 -23 4l4 11q12 -6 19 -6zM1744 601q9 0 9 -9q0 -8 -9 -8q-10 0 -10 8q0 9 10 9zM1753 572v-77h-15v77h15zM1811 560h-21v-40q0 -16 10 -16q2 0 5 1t6 1v-9q-5 -2 -15 -2q-7 0 -14 5q-6 6 -6 18v42h-10v12h10v16l14 4v-20h21v-12zM491 267h-28
v16q-13 -18 -34 -18q-33 0 -33 41q0 29 19 50t48 21q10 0 14 -2l10 48h32l-23 -113q-3 -24 -5 -43zM444 289q17 0 23 30l6 30q-4 4 -12 4q-14 0 -24 -13.5t-10 -29.5q0 -21 17 -21zM575 406q0 -19 -19 -19q-16 0 -16 16q0 7 5.5 12.5t12.5 5.5q17 0 17 -15zM569 375
l-21 -108h-33l22 108h32zM640 267l12 60v12q0 12 -10 12q-8 0 -16.5 -9.5t-11.5 -26.5l-10 -48h-29l13 72q1 6 2 18.5t2 17.5h30l-4 -17h2q16 19 38 19q27 0 27 -30q0 -6 -4 -18l-9 -62h-32zM700 313l6 24h56l-4 -24h-58zM823 353q-14 0 -14 -8q0 -6 14 -12q24 -12 24 -29
q0 -39 -50 -39q-19 0 -31 8l8 23q22 -9 25 -9q15 0 15 11q0 6 -13 14q-24 10 -24 27q0 18 13.5 28t34.5 10q19 0 28 -6l-8 -22q-8 4 -22 4zM911 349l-8 -36q0 -1 -1 -6t-1 -7q0 -9 10 -9h9l-4 -24q-5 -2 -19 -2q-28 0 -28 22q0 13 1 21l9 41h-12l2 26h14l6 22l31 8l-5 -30
h22l-5 -26h-21zM1034 267h-27l2 18q-16 -20 -39 -20q-27 0 -27 31q0 3 1 9t1 10l12 60h29l-10 -58q0 -2 -1 -7t-1 -6q0 -15 12 -15q9 0 16.5 10t9.5 26l8 50h34l-14 -71q-1 -6 -3.5 -19.5t-2.5 -17.5zM1157 267h-27l2 16q-14 -18 -36 -18q-14 0 -24 11t-10 30q0 29 19.5 50
t48.5 21q10 0 16 -2l7 48h33l-23 -113q-1 -4 -3 -20t-3 -23zM1109 289q8 0 16 8t11 22l4 30q-4 4 -12 4q-15 0 -23.5 -13t-8.5 -30q0 -21 13 -21zM1243 406q0 -8 -6 -13.5t-14 -5.5q-16 0 -16 16q0 7 5.5 12.5t12.5 5.5t12.5 -4.5t5.5 -10.5zM1235 375l-20 -108h-34l22 108
h32zM1289 265q-20 0 -32 12.5t-12 32.5q0 28 18 47.5t45 19.5q21 0 33.5 -12.5t12.5 -31.5q0 -29 -18.5 -48.5t-46.5 -19.5zM1304 353q-12 0 -19.5 -14t-7.5 -29q0 -21 17 -21q13 0 21 13.5t8 30.5q0 20 -19 20zM1381 265q-19 0 -19 18q0 23 21 23q19 0 19 -21
q0 -9 -6 -14.5t-15 -5.5zM1489 351q-15 0 -25 -11.5t-10 -26.5q0 -11 6.5 -17.5t15.5 -6.5q4 0 12.5 3.5t9.5 3.5v-27q-18 -4 -30 -4q-21 0 -33.5 12t-12.5 33q0 28 19.5 47.5t49.5 19.5q11 0 23 -4l-8 -24q-1 0 -6.5 1t-10.5 1zM1562 265q-22 0 -34 12.5t-12 32.5
q0 28 17.5 47.5t45.5 19.5q21 0 33.5 -12.5t12.5 -31.5q0 -29 -18.5 -48.5t-44.5 -19.5zM1576 353q-13 0 -21 -14t-8 -29q0 -21 17 -21q12 0 19.5 14t7.5 30q0 20 -15 20zM1761 267l9 60q2 2 2 12q0 12 -9 12q-8 0 -16 -10t-11 -24l-8 -50h-31l12 60v12q0 12 -10 12
q-17 0 -27 -36l-7 -48h-30l14 72q1 6 2 18.5t2 17.5h27l-2 -17q16 19 37 19q12 0 18.5 -6t6.5 -13q16 19 38 19q26 0 26 -28q0 -3 -1 -10t-1 -10l-12 -62h-29zM147 659q-59 1 -93 30t-34 72q0 31 13.5 44.5t27.5 13.5q24 0 32.5 -19.5t-4.5 -30.5q0 18 -19 21q-22 3 -29 -19
q-2 -6 -2 -14q0 -36 29.5 -56.5t78.5 -20.5q30 0 51.5 13.5t31.5 37t14 46.5t4 50v26.5t-1.5 28t-5.5 31.5t-10 24.5t-17 20t-26 6.5q-10 0 -10 -24v-67v-2v-112q0 -11 4 -17.5t8 -7.5h5v-9h-94v9q14 0 15 21v189q0 29 -23 29q-9 0 -14.5 -4t-5.5 -9q0 -7 4.5 -10.5
t8.5 -3.5h5q0 -27 -25 -27q-12 0 -19 6.5t-8.5 11.5t-1.5 9q0 19 18.5 30.5t37.5 11.5q18 0 45 -7.5t50 -7.5q121 0 121 -146q0 -67 -41.5 -119t-120.5 -49zM423 734v-9h-93v9q14 0 16 21v100q-1 10 -5 15.5t-7 5.5l-4 1v7l75 14v-139q0 -11 4.5 -17.5t8.5 -7.5h5zM378 968
q12 0 19.5 -8.5t7.5 -19.5q0 -12 -7.5 -21t-19.5 -9t-20 9t-8 21q0 11 8 19.5t20 8.5zM521 877q20 23 50 23q22 0 36.5 -14t14.5 -40v-87q0 -25 16 -25v-9h-94v9q14 0 16 21v98q0 18 -16 19t-22 -17q-1 -4 -1 -9v-87q0 -11 4 -17.5t8 -7.5h4v-9h-93v9q13 0 15 21v100
q-1 10 -4.5 15.5t-6.5 5.5l-4 1v7l77 14v-21zM803 910q0 3 0.5 7t5.5 15t14 19t28.5 15t45.5 7q18 0 35 -4.5t21 -5.5t17 5q6 3 12 3v-63l-8 -2q0 2 -1 5.5t-6 12.5t-13 16t-23 12.5t-34 5.5q-21 0 -34 -13.5t-12 -29t16 -21.5q7 -3 37.5 -11.5t51 -16t38.5 -29t17 -51.5
q-2 -27 -28.5 -44t-75.5 -17q-21 0 -38.5 2.5t-24 4.5t-12 0.5t-9.5 -7.5h-9v66h9q0 -20 25.5 -33t56.5 -13t44.5 15t4 32.5t-33.5 24.5q-3 1 -17 5t-20 6t-18.5 7t-19 9t-16 11t-14.5 14.5t-8.5 18t-3.5 22.5zM1115 890h-3.5t-7 -4.5t-6.5 -12.5v-118q1 -9 5 -14.5t8 -6.5
h4v-9h-25q-15 0 -23.5 1.5t-18.5 13t-10 33.5v98q-1 9 -5.5 14t-8.5 5h-4v8q24 0 46 11.5t32 11.5v-23h17v-8zM1132 890v10h89v-10h-3t-5.5 -5t-3.5 -14v-92q0 -19 10 -24t20 3t10 21v88q0 11 -3.5 17t-7.5 6h-3v10h92v-10h-4.5t-8 -5t-6.5 -14v-116q1 -9 6 -14.5t9 -6.5h4
v-9h-44q-14 0 -24 9.5t-10 18.5q-17 -28 -44 -28q-22 0 -39.5 14.5t-17.5 39.5v88q0 23 -16 23zM1585 686q0 -27 -34 -27q-15 0 -32.5 4t-38.5 22t-26 47q-18 -7 -30 -7q-34 0 -59.5 26t-25.5 62t25.5 61.5t59.5 25.5q4 0 28 -6v79l77 -13v-8h-1q-2 0 -4.5 -1t-4.5 -3
t-4 -6.5t-3 -11.5v-181q3 -71 41 -77q-6 6 -6 14q0 7 6 13t15 6q7 0 12 -6t5 -13zM1424 739q28 0 28 74q0 75 -28 75q-26 0 -26 -75q0 -74 26 -74zM1633 734v-9h-94v9q14 0 16 21v100q-1 10 -5 15.5t-8 5.5l-3 1v7l78 14v-139q0 -11 4 -17.5t8 -7.5h4zM1560 940q0 11 8 19.5
t19 8.5q12 0 20 -8.5t8 -19.5q0 -12 -8 -21t-20 -9q-11 0 -19 9t-8 21zM1806 813q0 -36 -25 -62t-61 -26t-60.5 26t-24.5 62t24.5 60.5t60.5 24.5t61 -24.5t25 -60.5zM1720 739q27 0 27 74q0 37 -5 55t-22 18q-16 0 -20.5 -18t-4.5 -55t4.5 -55.5t20.5 -18.5zM33 289v44h322
v-44h-322zM941 1239h-196l148 187h197zM1809 1239h-185l148 187h37v-187zM355 1239h-196l150 187h196zM1233 1239h-195l150 187h195zM212 1426l-151 -187h-28v187h179zM648 1239h-195l149 187h195zM1528 1239h-197l149 187h194zM893 210h197l-149 -187h-196zM1624 23
l148 187h37v-187h-185zM309 210h196l-150 -187h-196zM1188 210h195l-150 -187h-195zM33 210h179l-151 -187h-28v187zM602 210h195l-149 -187h-195zM1480 210h194l-146 -187h-197z" />
    <glyph glyph-name="four" unicode="4" horiz-adv-x="1850" 
d="M61 1106l-10 -46h-26l22 123q10 2 34 2q21 0 34 -8q14 -8 14 -26q0 -20 -18 -36q-13 -9 -40 -9h-10zM71 1162l-5 -35q2 -2 9 -2q26 0 26 24q0 16 -20 16q-8 0 -10 -3zM222 1160h-48l-4 -25h46l-6 -22h-44l-5 -30h49l-3 -23h-78l24 125h73zM262 1110l-9 -50h-27l24 123
q7 2 32 2q18 0 34 -6q14 -11 14 -24q0 -25 -30 -36q10 -6 13 -24q0 -8 1.5 -20.5t1.5 -14.5h-26q0 1 -4 29q0 21 -16 21h-8zM272 1162l-6 -33h10q11 0 18.5 6.5t7.5 15.5q0 14 -20 14q-8 0 -10 -3zM367 1081q21 0 21 14q0 11 -17 18q-25 14 -25 32q0 20 13.5 31t34.5 11
q11 0 29 -6l-8 -22q-18 4 -23 3q-19 0 -19 -11q0 -9 19 -18q25 -13 25 -31q0 -44 -52 -44q-24 0 -35 9l10 20q18 -6 27 -6zM500 1187q24 0 37 -14.5t13 -37.5q0 -39 -23 -60q-19 -17 -44 -17q-23 0 -37.5 15t-14.5 37q0 33 24 59q18 18 45 18zM507 1089q16 16 16 46t-27 30
q-9 0 -21 -10q-14 -14 -14 -43q0 -31 26 -31q11 0 20 8zM590 1104l-9 -44h-25l25 125h31l17 -48q3 -8 6 -22t5 -20q0 17 6 44l8 46h24l-22 -125h-27l-19 50q-4 10 -7.5 25.5t-4.5 17.5q-1 -4 -2 -13t-2.5 -18.5t-3.5 -17.5zM716 1091l-16 -31h-28l59 125h35l15 -125h-29
l-3 31h-33zM735 1139l-13 -26h27l-4 26v26q-7 -14 -10 -26zM820 1185h25l-20 -102h47l-3 -23h-74zM968 1185l-13 -72v-16q0 -16 15 -16q23 0 28 32l14 72h28l-14 -72q-6 -29 -19 -42t-39 -13q-42 0 -42 39q0 13 2 18l13 70h27zM1074 1081q20 0 20 14q0 10 -16 18
q-28 16 -28 32q0 20 14.5 31t35.5 11q18 0 30 -6l-9 -22q-18 5 -23 3q-20 0 -20 -11q0 -6 20 -18q23 -14 23 -31q0 -22 -14 -33t-35 -11q-29 0 -36 9l8 20q24 -6 30 -6zM1227 1160h-48l-4 -25h44l-4 -22h-46l-4 -30h50l-6 -23h-75l23 125h74zM1364 1075q-23 -17 -45 -17
q-23 0 -36.5 14.5t-13.5 37.5q0 38 24 59q13 18 44 18q24 0 37 -14.5t13 -37.5q0 -41 -23 -60zM1296 1112q0 -31 27 -31q15 0 19 8q18 18 18 46q0 12 -7 21t-20 9q-8 0 -20 -10q-17 -15 -17 -43zM1435 1153q0 -6 -9 -49l-8 -44h-26l24 125h32l16 -48q6 -16 14 -42q0 14 5 44
l6 46h27l-25 -125h-27l-18 50q-10 42 -10 43h-1zM1541 1185h27l-21 -102h48l-4 -23h-73zM1649 1112l-8 -52h-28l11 52l-27 73h30l8 -32q2 -10 6 -22q4 6 12 22l17 32h33zM1728 1073q0 18 19 18q14 0 14 -16q0 -7 -5.5 -12t-13.5 -5q-14 0 -14 15zM1778 1185l-19 -83h-21
l13 83h27zM91 588h-44v-34h40v-11h-40v-48h-14v104h58v-11zM172 534q0 -20 -11 -29.5t-26 -9.5q-16 0 -26 10t-10 27q0 19 10 29.5t26 10.5q37 0 37 -38zM113 532q0 -28 22 -28q11 0 17.5 8.5t6.5 21.5q0 28 -24 28q-22 0 -22 -30zM203 495h-15v53v24h13l2 -16q6 16 19 16h4
v-14q0 2 -4 2q-13 0 -17 -17q-2 -3 -2 -7v-41zM268 548q0 24 15.5 38.5t40.5 14.5q16 0 24 -4l-4 -11q-12 6 -20 6q-19 0 -30.5 -12t-11.5 -32q0 -44 42 -44q8 0 20 6l4 -11q-8 -4 -28 -4q-24 0 -38 13.5t-14 39.5zM394 495q-17 0 -28 10t-11 27q0 19 11 29.5t28 10.5
q16 0 26.5 -10t10.5 -28q0 -19 -11 -29t-26 -10zM394 562q-12 0 -18.5 -8.5t-6.5 -21.5q0 -12 7 -20t18 -8q10 0 16.5 8.5t6.5 21.5q0 11 -6 19.5t-17 8.5zM554 495h-14v43q0 24 -15 24q-13 0 -16 -14q-2 -3 -2 -5v-48h-13v48q0 19 -15 19q-13 0 -18 -14v-5v-48h-14v55v22
h12v-14h2q3 14 24 14q11 0 20 -14l10 10q2 4 16 4q23 0 23 -32v-45zM685 540v-45h-13v43q0 24 -16 24q-11 0 -18 -14v-5v-48h-14v48q0 19 -16 19q-9 0 -18 -14v-5v-48h-11v55q0 14 -2 22h11v-14h2q7 14 24 14q18 0 20 -14l10 10q4 4 16 4q25 0 25 -32zM770 538q0 -2 -1 -4.5
t-1 -3.5h-52q0 -26 25 -26q9 0 21 4l2 -9q-8 -4 -25 -4q-37 0 -37 37q0 17 10 28.5t25 11.5q17 0 25 -10.5t8 -23.5zM716 540h40q0 22 -21 22q-19 0 -19 -22zM785 548v24h10l2 -16q6 16 23 16h3v-14q-1 2 -5 2q-15 0 -19 -17v-7v-41h-14v53zM889 499q-8 -4 -22 -4
q-18 0 -28 10t-10 27q0 18 11 29t29 11q12 0 20 -4l-4 -10q-4 4 -16 4t-19 -9t-7 -21t7 -20t19 -8q4 0 10 2t8 2zM911 601q9 0 9 -9q0 -8 -9 -8q-8 0 -8 8q0 9 8 9zM905 495v77h13v-77h-13zM957 495q-10 0 -16.5 5.5t-6.5 13.5q0 31 46 31q0 17 -16 17q-11 0 -19 -4l-4 8
q9 6 23 6q30 0 30 -29v-29v-19h-12l-2 9q-7 -9 -23 -9zM980 534q-31 0 -31 -16q0 -14 12 -14q11 0 19 12v4v14zM1016 495v111h14v-111h-14zM1050 514h18q-3 -8 -16 -38h-10q8 18 8 38zM1117 495v102q14 4 25 4q18 0 29 -9q10 -5 10 -20q0 -16 -8 -24q-12 -12 -31 -12
q-8 0 -12 2v-43h-13zM1130 590v-42h12q25 0 25 22q0 20 -23 20h-14zM1199 495v111h12v-111h-12zM1293 499q-12 -4 -26 -4q-38 0 -38 37q0 17 10 28.5t26 11.5q31 0 31 -34v-8h-53q0 -26 26 -26q12 0 20 4zM1263 562q-20 0 -20 -22h40q0 22 -20 22zM1366 495h-12l-2 9
q-4 -9 -23 -9q-10 0 -16.5 5.5t-6.5 13.5q0 31 46 31q0 17 -15 17q-12 0 -20 -4l-4 8q9 6 24 6q29 0 29 -29v-29v-19zM1352 520v14q-31 0 -31 -16q0 -14 12 -14q15 0 19 12v4zM1432 516q0 -21 -28 -21q-11 0 -21 4l4 11q9 -6 17 -6q14 0 14 10q0 8 -14 14q-19 8 -19 22
q0 22 25 22q12 0 20 -4l-4 -10q-4 4 -16 4t-12 -10q0 -7 14 -14q20 -6 20 -22zM1510 538v-8h-52q0 -26 25 -26q13 0 21 4l4 -9q-12 -4 -28 -4q-36 0 -36 37q0 17 10 28.5t26 11.5q30 0 30 -34zM1458 540h40q0 22 -20 22t-20 -22zM1617 599h14l-38 -104h-16l-34 104h17
l16 -51q5 -23 11 -38q1 6 5.5 19t6.5 19zM1647 601q8 0 8 -9q0 -8 -10 -8q-6 0 -6 8q0 9 8 9zM1639 495v77h14v-77h-14zM1693 504q14 0 14 10q0 8 -14 14q-21 8 -21 22q0 9 7.5 15.5t19.5 6.5q10 0 18 -4l-2 -10q-8 4 -16 4q-14 0 -14 -10q0 -6 16 -14q19 -6 19 -22
q0 -9 -7.5 -15t-19.5 -6q-15 0 -23 4l4 11q12 -6 19 -6zM1744 601q9 0 9 -9q0 -8 -9 -8q-10 0 -10 8q0 9 10 9zM1753 572v-77h-15v77h15zM1811 560h-21v-40q0 -16 10 -16q2 0 5 1t6 1v-9q-5 -2 -15 -2q-7 0 -14 5q-6 6 -6 18v42h-10v12h10v16l14 4v-20h21v-12zM491 267h-28
v16q-13 -18 -34 -18q-33 0 -33 41q0 29 19 50t48 21q10 0 14 -2l10 48h32l-23 -113q-3 -24 -5 -43zM444 289q17 0 23 30l6 30q-4 4 -12 4q-14 0 -24 -13.5t-10 -29.5q0 -21 17 -21zM575 406q0 -19 -19 -19q-16 0 -16 16q0 7 5.5 12.5t12.5 5.5q17 0 17 -15zM569 375
l-21 -108h-33l22 108h32zM640 267l12 60v12q0 12 -10 12q-8 0 -16.5 -9.5t-11.5 -26.5l-10 -48h-29l13 72q1 6 2 18.5t2 17.5h30l-4 -17h2q16 19 38 19q27 0 27 -30q0 -6 -4 -18l-9 -62h-32zM700 313l6 24h56l-4 -24h-58zM823 353q-14 0 -14 -8q0 -6 14 -12q24 -12 24 -29
q0 -39 -50 -39q-19 0 -31 8l8 23q22 -9 25 -9q15 0 15 11q0 6 -13 14q-24 10 -24 27q0 18 13.5 28t34.5 10q19 0 28 -6l-8 -22q-8 4 -22 4zM911 349l-8 -36q0 -1 -1 -6t-1 -7q0 -9 10 -9h9l-4 -24q-5 -2 -19 -2q-28 0 -28 22q0 13 1 21l9 41h-12l2 26h14l6 22l31 8l-5 -30
h22l-5 -26h-21zM1034 267h-27l2 18q-16 -20 -39 -20q-27 0 -27 31q0 3 1 9t1 10l12 60h29l-10 -58q0 -2 -1 -7t-1 -6q0 -15 12 -15q9 0 16.5 10t9.5 26l8 50h34l-14 -71q-1 -6 -3.5 -19.5t-2.5 -17.5zM1157 267h-27l2 16q-14 -18 -36 -18q-14 0 -24 11t-10 30q0 29 19.5 50
t48.5 21q10 0 16 -2l7 48h33l-23 -113q-1 -4 -3 -20t-3 -23zM1109 289q8 0 16 8t11 22l4 30q-4 4 -12 4q-15 0 -23.5 -13t-8.5 -30q0 -21 13 -21zM1243 406q0 -8 -6 -13.5t-14 -5.5q-16 0 -16 16q0 7 5.5 12.5t12.5 5.5t12.5 -4.5t5.5 -10.5zM1235 375l-20 -108h-34l22 108
h32zM1289 265q-20 0 -32 12.5t-12 32.5q0 28 18 47.5t45 19.5q21 0 33.5 -12.5t12.5 -31.5q0 -29 -18.5 -48.5t-46.5 -19.5zM1304 353q-12 0 -19.5 -14t-7.5 -29q0 -21 17 -21q13 0 21 13.5t8 30.5q0 20 -19 20zM1381 265q-19 0 -19 18q0 23 21 23q19 0 19 -21
q0 -9 -6 -14.5t-15 -5.5zM1489 351q-15 0 -25 -11.5t-10 -26.5q0 -11 6.5 -17.5t15.5 -6.5q4 0 12.5 3.5t9.5 3.5v-27q-18 -4 -30 -4q-21 0 -33.5 12t-12.5 33q0 28 19.5 47.5t49.5 19.5q11 0 23 -4l-8 -24q-1 0 -6.5 1t-10.5 1zM1562 265q-22 0 -34 12.5t-12 32.5
q0 28 17.5 47.5t45.5 19.5q21 0 33.5 -12.5t12.5 -31.5q0 -29 -18.5 -48.5t-44.5 -19.5zM1576 353q-13 0 -21 -14t-8 -29q0 -21 17 -21q12 0 19.5 14t7.5 30q0 20 -15 20zM1761 267l9 60q2 2 2 12q0 12 -9 12q-8 0 -16 -10t-11 -24l-8 -50h-31l12 60v12q0 12 -10 12
q-17 0 -27 -36l-7 -48h-30l14 72q1 6 2 18.5t2 17.5h27l-2 -17q16 19 37 19q12 0 18.5 -6t6.5 -13q16 19 38 19q26 0 26 -28q0 -3 -1 -10t-1 -10l-12 -62h-29zM147 659q-59 1 -93 30t-34 72q0 31 13.5 44.5t27.5 13.5q24 0 32.5 -19.5t-4.5 -30.5q0 18 -19 21q-22 3 -29 -19
q-2 -6 -2 -14q0 -36 29.5 -56.5t78.5 -20.5q30 0 51.5 13.5t31.5 37t14 46.5t4 50v26.5t-1.5 28t-5.5 31.5t-10 24.5t-17 20t-26 6.5q-10 0 -10 -24v-67v-2v-112q0 -11 4 -17.5t8 -7.5h5v-9h-94v9q14 0 15 21v189q0 29 -23 29q-9 0 -14.5 -4t-5.5 -9q0 -7 4.5 -10.5
t8.5 -3.5h5q0 -27 -25 -27q-12 0 -19 6.5t-8.5 11.5t-1.5 9q0 19 18.5 30.5t37.5 11.5q18 0 45 -7.5t50 -7.5q121 0 121 -146q0 -67 -41.5 -119t-120.5 -49zM423 734v-9h-93v9q14 0 16 21v100q-1 10 -5 15.5t-7 5.5l-4 1v7l75 14v-139q0 -11 4.5 -17.5t8.5 -7.5h5zM378 968
q12 0 19.5 -8.5t7.5 -19.5q0 -12 -7.5 -21t-19.5 -9t-20 9t-8 21q0 11 8 19.5t20 8.5zM521 877q20 23 50 23q22 0 36.5 -14t14.5 -40v-87q0 -25 16 -25v-9h-94v9q14 0 16 21v98q0 18 -16 19t-22 -17q-1 -4 -1 -9v-87q0 -11 4 -17.5t8 -7.5h4v-9h-93v9q13 0 15 21v100
q-1 10 -4.5 15.5t-6.5 5.5l-4 1v7l77 14v-21zM803 910q0 3 0.5 7t5.5 15t14 19t28.5 15t45.5 7q18 0 35 -4.5t21 -5.5t17 5q6 3 12 3v-63l-8 -2q0 2 -1 5.5t-6 12.5t-13 16t-23 12.5t-34 5.5q-21 0 -34 -13.5t-12 -29t16 -21.5q7 -3 37.5 -11.5t51 -16t38.5 -29t17 -51.5
q-2 -27 -28.5 -44t-75.5 -17q-21 0 -38.5 2.5t-24 4.5t-12 0.5t-9.5 -7.5h-9v66h9q0 -20 25.5 -33t56.5 -13t44.5 15t4 32.5t-33.5 24.5q-3 1 -17 5t-20 6t-18.5 7t-19 9t-16 11t-14.5 14.5t-8.5 18t-3.5 22.5zM1115 890h-3.5t-7 -4.5t-6.5 -12.5v-118q1 -9 5 -14.5t8 -6.5
h4v-9h-25q-15 0 -23.5 1.5t-18.5 13t-10 33.5v98q-1 9 -5.5 14t-8.5 5h-4v8q24 0 46 11.5t32 11.5v-23h17v-8zM1132 890v10h89v-10h-3t-5.5 -5t-3.5 -14v-92q0 -19 10 -24t20 3t10 21v88q0 11 -3.5 17t-7.5 6h-3v10h92v-10h-4.5t-8 -5t-6.5 -14v-116q1 -9 6 -14.5t9 -6.5h4
v-9h-44q-14 0 -24 9.5t-10 18.5q-17 -28 -44 -28q-22 0 -39.5 14.5t-17.5 39.5v88q0 23 -16 23zM1585 686q0 -27 -34 -27q-15 0 -32.5 4t-38.5 22t-26 47q-18 -7 -30 -7q-34 0 -59.5 26t-25.5 62t25.5 61.5t59.5 25.5q4 0 28 -6v79l77 -13v-8h-1q-2 0 -4.5 -1t-4.5 -3
t-4 -6.5t-3 -11.5v-181q3 -71 41 -77q-6 6 -6 14q0 7 6 13t15 6q7 0 12 -6t5 -13zM1424 739q28 0 28 74q0 75 -28 75q-26 0 -26 -75q0 -74 26 -74zM1633 734v-9h-94v9q14 0 16 21v100q-1 10 -5 15.5t-8 5.5l-3 1v7l78 14v-139q0 -11 4 -17.5t8 -7.5h4zM1560 940q0 11 8 19.5
t19 8.5q12 0 20 -8.5t8 -19.5q0 -12 -8 -21t-20 -9q-11 0 -19 9t-8 21zM1806 813q0 -36 -25 -62t-61 -26t-60.5 26t-24.5 62t24.5 60.5t60.5 24.5t61 -24.5t25 -60.5zM1720 739q27 0 27 74q0 37 -5 55t-22 18q-16 0 -20.5 -18t-4.5 -55t4.5 -55.5t20.5 -18.5zM33 289v44h322
v-44h-322zM941 1239h-196l148 187h197zM1809 1239h-185l148 187h37v-187zM355 1239h-196l150 187h196zM1233 1239h-195l150 187h195zM212 1426l-151 -187h-28v187h179zM648 1239h-195l149 187h195zM1528 1239h-197l149 187h194zM893 210h197l-149 -187h-196zM1624 23
l148 187h37v-187h-185zM309 210h196l-150 -187h-196zM1188 210h195l-150 -187h-195zM33 210h179l-151 -187h-28v187zM602 210h195l-149 -187h-195zM1480 210h194l-146 -187h-197z" />
    <glyph glyph-name="five" unicode="5" horiz-adv-x="1850" 
d="M61 1106l-10 -46h-26l22 123q10 2 34 2q21 0 34 -8q14 -8 14 -26q0 -20 -18 -36q-13 -9 -40 -9h-10zM71 1162l-5 -35q2 -2 9 -2q26 0 26 24q0 16 -20 16q-8 0 -10 -3zM222 1160h-48l-4 -25h46l-6 -22h-44l-5 -30h49l-3 -23h-78l24 125h73zM262 1110l-9 -50h-27l24 123
q7 2 32 2q18 0 34 -6q14 -11 14 -24q0 -25 -30 -36q10 -6 13 -24q0 -8 1.5 -20.5t1.5 -14.5h-26q0 1 -4 29q0 21 -16 21h-8zM272 1162l-6 -33h10q11 0 18.5 6.5t7.5 15.5q0 14 -20 14q-8 0 -10 -3zM367 1081q21 0 21 14q0 11 -17 18q-25 14 -25 32q0 20 13.5 31t34.5 11
q11 0 29 -6l-8 -22q-18 4 -23 3q-19 0 -19 -11q0 -9 19 -18q25 -13 25 -31q0 -44 -52 -44q-24 0 -35 9l10 20q18 -6 27 -6zM500 1187q24 0 37 -14.5t13 -37.5q0 -39 -23 -60q-19 -17 -44 -17q-23 0 -37.5 15t-14.5 37q0 33 24 59q18 18 45 18zM507 1089q16 16 16 46t-27 30
q-9 0 -21 -10q-14 -14 -14 -43q0 -31 26 -31q11 0 20 8zM590 1104l-9 -44h-25l25 125h31l17 -48q3 -8 6 -22t5 -20q0 17 6 44l8 46h24l-22 -125h-27l-19 50q-4 10 -7.5 25.5t-4.5 17.5q-1 -4 -2 -13t-2.5 -18.5t-3.5 -17.5zM716 1091l-16 -31h-28l59 125h35l15 -125h-29
l-3 31h-33zM735 1139l-13 -26h27l-4 26v26q-7 -14 -10 -26zM820 1185h25l-20 -102h47l-3 -23h-74zM968 1185l-13 -72v-16q0 -16 15 -16q23 0 28 32l14 72h28l-14 -72q-6 -29 -19 -42t-39 -13q-42 0 -42 39q0 13 2 18l13 70h27zM1074 1081q20 0 20 14q0 10 -16 18
q-28 16 -28 32q0 20 14.5 31t35.5 11q18 0 30 -6l-9 -22q-18 5 -23 3q-20 0 -20 -11q0 -6 20 -18q23 -14 23 -31q0 -22 -14 -33t-35 -11q-29 0 -36 9l8 20q24 -6 30 -6zM1227 1160h-48l-4 -25h44l-4 -22h-46l-4 -30h50l-6 -23h-75l23 125h74zM1364 1075q-23 -17 -45 -17
q-23 0 -36.5 14.5t-13.5 37.5q0 38 24 59q13 18 44 18q24 0 37 -14.5t13 -37.5q0 -41 -23 -60zM1296 1112q0 -31 27 -31q15 0 19 8q18 18 18 46q0 12 -7 21t-20 9q-8 0 -20 -10q-17 -15 -17 -43zM1435 1153q0 -6 -9 -49l-8 -44h-26l24 125h32l16 -48q6 -16 14 -42q0 14 5 44
l6 46h27l-25 -125h-27l-18 50q-10 42 -10 43h-1zM1541 1185h27l-21 -102h48l-4 -23h-73zM1649 1112l-8 -52h-28l11 52l-27 73h30l8 -32q2 -10 6 -22q4 6 12 22l17 32h33zM1728 1073q0 18 19 18q14 0 14 -16q0 -7 -5.5 -12t-13.5 -5q-14 0 -14 15zM1778 1185l-19 -83h-21
l13 83h27zM91 588h-44v-34h40v-11h-40v-48h-14v104h58v-11zM172 534q0 -20 -11 -29.5t-26 -9.5q-16 0 -26 10t-10 27q0 19 10 29.5t26 10.5q37 0 37 -38zM113 532q0 -28 22 -28q11 0 17.5 8.5t6.5 21.5q0 28 -24 28q-22 0 -22 -30zM203 495h-15v53v24h13l2 -16q6 16 19 16h4
v-14q0 2 -4 2q-13 0 -17 -17q-2 -3 -2 -7v-41zM268 548q0 24 15.5 38.5t40.5 14.5q16 0 24 -4l-4 -11q-12 6 -20 6q-19 0 -30.5 -12t-11.5 -32q0 -44 42 -44q8 0 20 6l4 -11q-8 -4 -28 -4q-24 0 -38 13.5t-14 39.5zM394 495q-17 0 -28 10t-11 27q0 19 11 29.5t28 10.5
q16 0 26.5 -10t10.5 -28q0 -19 -11 -29t-26 -10zM394 562q-12 0 -18.5 -8.5t-6.5 -21.5q0 -12 7 -20t18 -8q10 0 16.5 8.5t6.5 21.5q0 11 -6 19.5t-17 8.5zM554 495h-14v43q0 24 -15 24q-13 0 -16 -14q-2 -3 -2 -5v-48h-13v48q0 19 -15 19q-13 0 -18 -14v-5v-48h-14v55v22
h12v-14h2q3 14 24 14q11 0 20 -14l10 10q2 4 16 4q23 0 23 -32v-45zM685 540v-45h-13v43q0 24 -16 24q-11 0 -18 -14v-5v-48h-14v48q0 19 -16 19q-9 0 -18 -14v-5v-48h-11v55q0 14 -2 22h11v-14h2q7 14 24 14q18 0 20 -14l10 10q4 4 16 4q25 0 25 -32zM770 538q0 -2 -1 -4.5
t-1 -3.5h-52q0 -26 25 -26q9 0 21 4l2 -9q-8 -4 -25 -4q-37 0 -37 37q0 17 10 28.5t25 11.5q17 0 25 -10.5t8 -23.5zM716 540h40q0 22 -21 22q-19 0 -19 -22zM785 548v24h10l2 -16q6 16 23 16h3v-14q-1 2 -5 2q-15 0 -19 -17v-7v-41h-14v53zM889 499q-8 -4 -22 -4
q-18 0 -28 10t-10 27q0 18 11 29t29 11q12 0 20 -4l-4 -10q-4 4 -16 4t-19 -9t-7 -21t7 -20t19 -8q4 0 10 2t8 2zM911 601q9 0 9 -9q0 -8 -9 -8q-8 0 -8 8q0 9 8 9zM905 495v77h13v-77h-13zM957 495q-10 0 -16.5 5.5t-6.5 13.5q0 31 46 31q0 17 -16 17q-11 0 -19 -4l-4 8
q9 6 23 6q30 0 30 -29v-29v-19h-12l-2 9q-7 -9 -23 -9zM980 534q-31 0 -31 -16q0 -14 12 -14q11 0 19 12v4v14zM1016 495v111h14v-111h-14zM1050 514h18q-3 -8 -16 -38h-10q8 18 8 38zM1117 495v102q14 4 25 4q18 0 29 -9q10 -5 10 -20q0 -16 -8 -24q-12 -12 -31 -12
q-8 0 -12 2v-43h-13zM1130 590v-42h12q25 0 25 22q0 20 -23 20h-14zM1199 495v111h12v-111h-12zM1293 499q-12 -4 -26 -4q-38 0 -38 37q0 17 10 28.5t26 11.5q31 0 31 -34v-8h-53q0 -26 26 -26q12 0 20 4zM1263 562q-20 0 -20 -22h40q0 22 -20 22zM1366 495h-12l-2 9
q-4 -9 -23 -9q-10 0 -16.5 5.5t-6.5 13.5q0 31 46 31q0 17 -15 17q-12 0 -20 -4l-4 8q9 6 24 6q29 0 29 -29v-29v-19zM1352 520v14q-31 0 -31 -16q0 -14 12 -14q15 0 19 12v4zM1432 516q0 -21 -28 -21q-11 0 -21 4l4 11q9 -6 17 -6q14 0 14 10q0 8 -14 14q-19 8 -19 22
q0 22 25 22q12 0 20 -4l-4 -10q-4 4 -16 4t-12 -10q0 -7 14 -14q20 -6 20 -22zM1510 538v-8h-52q0 -26 25 -26q13 0 21 4l4 -9q-12 -4 -28 -4q-36 0 -36 37q0 17 10 28.5t26 11.5q30 0 30 -34zM1458 540h40q0 22 -20 22t-20 -22zM1617 599h14l-38 -104h-16l-34 104h17
l16 -51q5 -23 11 -38q1 6 5.5 19t6.5 19zM1647 601q8 0 8 -9q0 -8 -10 -8q-6 0 -6 8q0 9 8 9zM1639 495v77h14v-77h-14zM1693 504q14 0 14 10q0 8 -14 14q-21 8 -21 22q0 9 7.5 15.5t19.5 6.5q10 0 18 -4l-2 -10q-8 4 -16 4q-14 0 -14 -10q0 -6 16 -14q19 -6 19 -22
q0 -9 -7.5 -15t-19.5 -6q-15 0 -23 4l4 11q12 -6 19 -6zM1744 601q9 0 9 -9q0 -8 -9 -8q-10 0 -10 8q0 9 10 9zM1753 572v-77h-15v77h15zM1811 560h-21v-40q0 -16 10 -16q2 0 5 1t6 1v-9q-5 -2 -15 -2q-7 0 -14 5q-6 6 -6 18v42h-10v12h10v16l14 4v-20h21v-12zM491 267h-28
v16q-13 -18 -34 -18q-33 0 -33 41q0 29 19 50t48 21q10 0 14 -2l10 48h32l-23 -113q-3 -24 -5 -43zM444 289q17 0 23 30l6 30q-4 4 -12 4q-14 0 -24 -13.5t-10 -29.5q0 -21 17 -21zM575 406q0 -19 -19 -19q-16 0 -16 16q0 7 5.5 12.5t12.5 5.5q17 0 17 -15zM569 375
l-21 -108h-33l22 108h32zM640 267l12 60v12q0 12 -10 12q-8 0 -16.5 -9.5t-11.5 -26.5l-10 -48h-29l13 72q1 6 2 18.5t2 17.5h30l-4 -17h2q16 19 38 19q27 0 27 -30q0 -6 -4 -18l-9 -62h-32zM700 313l6 24h56l-4 -24h-58zM823 353q-14 0 -14 -8q0 -6 14 -12q24 -12 24 -29
q0 -39 -50 -39q-19 0 -31 8l8 23q22 -9 25 -9q15 0 15 11q0 6 -13 14q-24 10 -24 27q0 18 13.5 28t34.5 10q19 0 28 -6l-8 -22q-8 4 -22 4zM911 349l-8 -36q0 -1 -1 -6t-1 -7q0 -9 10 -9h9l-4 -24q-5 -2 -19 -2q-28 0 -28 22q0 13 1 21l9 41h-12l2 26h14l6 22l31 8l-5 -30
h22l-5 -26h-21zM1034 267h-27l2 18q-16 -20 -39 -20q-27 0 -27 31q0 3 1 9t1 10l12 60h29l-10 -58q0 -2 -1 -7t-1 -6q0 -15 12 -15q9 0 16.5 10t9.5 26l8 50h34l-14 -71q-1 -6 -3.5 -19.5t-2.5 -17.5zM1157 267h-27l2 16q-14 -18 -36 -18q-14 0 -24 11t-10 30q0 29 19.5 50
t48.5 21q10 0 16 -2l7 48h33l-23 -113q-1 -4 -3 -20t-3 -23zM1109 289q8 0 16 8t11 22l4 30q-4 4 -12 4q-15 0 -23.5 -13t-8.5 -30q0 -21 13 -21zM1243 406q0 -8 -6 -13.5t-14 -5.5q-16 0 -16 16q0 7 5.5 12.5t12.5 5.5t12.5 -4.5t5.5 -10.5zM1235 375l-20 -108h-34l22 108
h32zM1289 265q-20 0 -32 12.5t-12 32.5q0 28 18 47.5t45 19.5q21 0 33.5 -12.5t12.5 -31.5q0 -29 -18.5 -48.5t-46.5 -19.5zM1304 353q-12 0 -19.5 -14t-7.5 -29q0 -21 17 -21q13 0 21 13.5t8 30.5q0 20 -19 20zM1381 265q-19 0 -19 18q0 23 21 23q19 0 19 -21
q0 -9 -6 -14.5t-15 -5.5zM1489 351q-15 0 -25 -11.5t-10 -26.5q0 -11 6.5 -17.5t15.5 -6.5q4 0 12.5 3.5t9.5 3.5v-27q-18 -4 -30 -4q-21 0 -33.5 12t-12.5 33q0 28 19.5 47.5t49.5 19.5q11 0 23 -4l-8 -24q-1 0 -6.5 1t-10.5 1zM1562 265q-22 0 -34 12.5t-12 32.5
q0 28 17.5 47.5t45.5 19.5q21 0 33.5 -12.5t12.5 -31.5q0 -29 -18.5 -48.5t-44.5 -19.5zM1576 353q-13 0 -21 -14t-8 -29q0 -21 17 -21q12 0 19.5 14t7.5 30q0 20 -15 20zM1761 267l9 60q2 2 2 12q0 12 -9 12q-8 0 -16 -10t-11 -24l-8 -50h-31l12 60v12q0 12 -10 12
q-17 0 -27 -36l-7 -48h-30l14 72q1 6 2 18.5t2 17.5h27l-2 -17q16 19 37 19q12 0 18.5 -6t6.5 -13q16 19 38 19q26 0 26 -28q0 -3 -1 -10t-1 -10l-12 -62h-29zM147 659q-59 1 -93 30t-34 72q0 31 13.5 44.5t27.5 13.5q24 0 32.5 -19.5t-4.5 -30.5q0 18 -19 21q-22 3 -29 -19
q-2 -6 -2 -14q0 -36 29.5 -56.5t78.5 -20.5q30 0 51.5 13.5t31.5 37t14 46.5t4 50v26.5t-1.5 28t-5.5 31.5t-10 24.5t-17 20t-26 6.5q-10 0 -10 -24v-67v-2v-112q0 -11 4 -17.5t8 -7.5h5v-9h-94v9q14 0 15 21v189q0 29 -23 29q-9 0 -14.5 -4t-5.5 -9q0 -7 4.5 -10.5
t8.5 -3.5h5q0 -27 -25 -27q-12 0 -19 6.5t-8.5 11.5t-1.5 9q0 19 18.5 30.5t37.5 11.5q18 0 45 -7.5t50 -7.5q121 0 121 -146q0 -67 -41.5 -119t-120.5 -49zM423 734v-9h-93v9q14 0 16 21v100q-1 10 -5 15.5t-7 5.5l-4 1v7l75 14v-139q0 -11 4.5 -17.5t8.5 -7.5h5zM378 968
q12 0 19.5 -8.5t7.5 -19.5q0 -12 -7.5 -21t-19.5 -9t-20 9t-8 21q0 11 8 19.5t20 8.5zM521 877q20 23 50 23q22 0 36.5 -14t14.5 -40v-87q0 -25 16 -25v-9h-94v9q14 0 16 21v98q0 18 -16 19t-22 -17q-1 -4 -1 -9v-87q0 -11 4 -17.5t8 -7.5h4v-9h-93v9q13 0 15 21v100
q-1 10 -4.5 15.5t-6.5 5.5l-4 1v7l77 14v-21zM803 910q0 3 0.5 7t5.5 15t14 19t28.5 15t45.5 7q18 0 35 -4.5t21 -5.5t17 5q6 3 12 3v-63l-8 -2q0 2 -1 5.5t-6 12.5t-13 16t-23 12.5t-34 5.5q-21 0 -34 -13.5t-12 -29t16 -21.5q7 -3 37.5 -11.5t51 -16t38.5 -29t17 -51.5
q-2 -27 -28.5 -44t-75.5 -17q-21 0 -38.5 2.5t-24 4.5t-12 0.5t-9.5 -7.5h-9v66h9q0 -20 25.5 -33t56.5 -13t44.5 15t4 32.5t-33.5 24.5q-3 1 -17 5t-20 6t-18.5 7t-19 9t-16 11t-14.5 14.5t-8.5 18t-3.5 22.5zM1115 890h-3.5t-7 -4.5t-6.5 -12.5v-118q1 -9 5 -14.5t8 -6.5
h4v-9h-25q-15 0 -23.5 1.5t-18.5 13t-10 33.5v98q-1 9 -5.5 14t-8.5 5h-4v8q24 0 46 11.5t32 11.5v-23h17v-8zM1132 890v10h89v-10h-3t-5.5 -5t-3.5 -14v-92q0 -19 10 -24t20 3t10 21v88q0 11 -3.5 17t-7.5 6h-3v10h92v-10h-4.5t-8 -5t-6.5 -14v-116q1 -9 6 -14.5t9 -6.5h4
v-9h-44q-14 0 -24 9.5t-10 18.5q-17 -28 -44 -28q-22 0 -39.5 14.5t-17.5 39.5v88q0 23 -16 23zM1585 686q0 -27 -34 -27q-15 0 -32.5 4t-38.5 22t-26 47q-18 -7 -30 -7q-34 0 -59.5 26t-25.5 62t25.5 61.5t59.5 25.5q4 0 28 -6v79l77 -13v-8h-1q-2 0 -4.5 -1t-4.5 -3
t-4 -6.5t-3 -11.5v-181q3 -71 41 -77q-6 6 -6 14q0 7 6 13t15 6q7 0 12 -6t5 -13zM1424 739q28 0 28 74q0 75 -28 75q-26 0 -26 -75q0 -74 26 -74zM1633 734v-9h-94v9q14 0 16 21v100q-1 10 -5 15.5t-8 5.5l-3 1v7l78 14v-139q0 -11 4 -17.5t8 -7.5h4zM1560 940q0 11 8 19.5
t19 8.5q12 0 20 -8.5t8 -19.5q0 -12 -8 -21t-20 -9q-11 0 -19 9t-8 21zM1806 813q0 -36 -25 -62t-61 -26t-60.5 26t-24.5 62t24.5 60.5t60.5 24.5t61 -24.5t25 -60.5zM1720 739q27 0 27 74q0 37 -5 55t-22 18q-16 0 -20.5 -18t-4.5 -55t4.5 -55.5t20.5 -18.5zM33 289v44h322
v-44h-322zM941 1239h-196l148 187h197zM1809 1239h-185l148 187h37v-187zM355 1239h-196l150 187h196zM1233 1239h-195l150 187h195zM212 1426l-151 -187h-28v187h179zM648 1239h-195l149 187h195zM1528 1239h-197l149 187h194zM893 210h197l-149 -187h-196zM1624 23
l148 187h37v-187h-185zM309 210h196l-150 -187h-196zM1188 210h195l-150 -187h-195zM33 210h179l-151 -187h-28v187zM602 210h195l-149 -187h-195zM1480 210h194l-146 -187h-197z" />
    <glyph glyph-name="six" unicode="6" horiz-adv-x="1850" 
d="M61 1106l-10 -46h-26l22 123q10 2 34 2q21 0 34 -8q14 -8 14 -26q0 -20 -18 -36q-13 -9 -40 -9h-10zM71 1162l-5 -35q2 -2 9 -2q26 0 26 24q0 16 -20 16q-8 0 -10 -3zM222 1160h-48l-4 -25h46l-6 -22h-44l-5 -30h49l-3 -23h-78l24 125h73zM262 1110l-9 -50h-27l24 123
q7 2 32 2q18 0 34 -6q14 -11 14 -24q0 -25 -30 -36q10 -6 13 -24q0 -8 1.5 -20.5t1.5 -14.5h-26q0 1 -4 29q0 21 -16 21h-8zM272 1162l-6 -33h10q11 0 18.5 6.5t7.5 15.5q0 14 -20 14q-8 0 -10 -3zM367 1081q21 0 21 14q0 11 -17 18q-25 14 -25 32q0 20 13.5 31t34.5 11
q11 0 29 -6l-8 -22q-18 4 -23 3q-19 0 -19 -11q0 -9 19 -18q25 -13 25 -31q0 -44 -52 -44q-24 0 -35 9l10 20q18 -6 27 -6zM500 1187q24 0 37 -14.5t13 -37.5q0 -39 -23 -60q-19 -17 -44 -17q-23 0 -37.5 15t-14.5 37q0 33 24 59q18 18 45 18zM507 1089q16 16 16 46t-27 30
q-9 0 -21 -10q-14 -14 -14 -43q0 -31 26 -31q11 0 20 8zM590 1104l-9 -44h-25l25 125h31l17 -48q3 -8 6 -22t5 -20q0 17 6 44l8 46h24l-22 -125h-27l-19 50q-4 10 -7.5 25.5t-4.5 17.5q-1 -4 -2 -13t-2.5 -18.5t-3.5 -17.5zM716 1091l-16 -31h-28l59 125h35l15 -125h-29
l-3 31h-33zM735 1139l-13 -26h27l-4 26v26q-7 -14 -10 -26zM820 1185h25l-20 -102h47l-3 -23h-74zM968 1185l-13 -72v-16q0 -16 15 -16q23 0 28 32l14 72h28l-14 -72q-6 -29 -19 -42t-39 -13q-42 0 -42 39q0 13 2 18l13 70h27zM1074 1081q20 0 20 14q0 10 -16 18
q-28 16 -28 32q0 20 14.5 31t35.5 11q18 0 30 -6l-9 -22q-18 5 -23 3q-20 0 -20 -11q0 -6 20 -18q23 -14 23 -31q0 -22 -14 -33t-35 -11q-29 0 -36 9l8 20q24 -6 30 -6zM1227 1160h-48l-4 -25h44l-4 -22h-46l-4 -30h50l-6 -23h-75l23 125h74zM1364 1075q-23 -17 -45 -17
q-23 0 -36.5 14.5t-13.5 37.5q0 38 24 59q13 18 44 18q24 0 37 -14.5t13 -37.5q0 -41 -23 -60zM1296 1112q0 -31 27 -31q15 0 19 8q18 18 18 46q0 12 -7 21t-20 9q-8 0 -20 -10q-17 -15 -17 -43zM1435 1153q0 -6 -9 -49l-8 -44h-26l24 125h32l16 -48q6 -16 14 -42q0 14 5 44
l6 46h27l-25 -125h-27l-18 50q-10 42 -10 43h-1zM1541 1185h27l-21 -102h48l-4 -23h-73zM1649 1112l-8 -52h-28l11 52l-27 73h30l8 -32q2 -10 6 -22q4 6 12 22l17 32h33zM1728 1073q0 18 19 18q14 0 14 -16q0 -7 -5.5 -12t-13.5 -5q-14 0 -14 15zM1778 1185l-19 -83h-21
l13 83h27zM91 588h-44v-34h40v-11h-40v-48h-14v104h58v-11zM172 534q0 -20 -11 -29.5t-26 -9.5q-16 0 -26 10t-10 27q0 19 10 29.5t26 10.5q37 0 37 -38zM113 532q0 -28 22 -28q11 0 17.5 8.5t6.5 21.5q0 28 -24 28q-22 0 -22 -30zM203 495h-15v53v24h13l2 -16q6 16 19 16h4
v-14q0 2 -4 2q-13 0 -17 -17q-2 -3 -2 -7v-41zM268 548q0 24 15.5 38.5t40.5 14.5q16 0 24 -4l-4 -11q-12 6 -20 6q-19 0 -30.5 -12t-11.5 -32q0 -44 42 -44q8 0 20 6l4 -11q-8 -4 -28 -4q-24 0 -38 13.5t-14 39.5zM394 495q-17 0 -28 10t-11 27q0 19 11 29.5t28 10.5
q16 0 26.5 -10t10.5 -28q0 -19 -11 -29t-26 -10zM394 562q-12 0 -18.5 -8.5t-6.5 -21.5q0 -12 7 -20t18 -8q10 0 16.5 8.5t6.5 21.5q0 11 -6 19.5t-17 8.5zM554 495h-14v43q0 24 -15 24q-13 0 -16 -14q-2 -3 -2 -5v-48h-13v48q0 19 -15 19q-13 0 -18 -14v-5v-48h-14v55v22
h12v-14h2q3 14 24 14q11 0 20 -14l10 10q2 4 16 4q23 0 23 -32v-45zM685 540v-45h-13v43q0 24 -16 24q-11 0 -18 -14v-5v-48h-14v48q0 19 -16 19q-9 0 -18 -14v-5v-48h-11v55q0 14 -2 22h11v-14h2q7 14 24 14q18 0 20 -14l10 10q4 4 16 4q25 0 25 -32zM770 538q0 -2 -1 -4.5
t-1 -3.5h-52q0 -26 25 -26q9 0 21 4l2 -9q-8 -4 -25 -4q-37 0 -37 37q0 17 10 28.5t25 11.5q17 0 25 -10.5t8 -23.5zM716 540h40q0 22 -21 22q-19 0 -19 -22zM785 548v24h10l2 -16q6 16 23 16h3v-14q-1 2 -5 2q-15 0 -19 -17v-7v-41h-14v53zM889 499q-8 -4 -22 -4
q-18 0 -28 10t-10 27q0 18 11 29t29 11q12 0 20 -4l-4 -10q-4 4 -16 4t-19 -9t-7 -21t7 -20t19 -8q4 0 10 2t8 2zM911 601q9 0 9 -9q0 -8 -9 -8q-8 0 -8 8q0 9 8 9zM905 495v77h13v-77h-13zM957 495q-10 0 -16.5 5.5t-6.5 13.5q0 31 46 31q0 17 -16 17q-11 0 -19 -4l-4 8
q9 6 23 6q30 0 30 -29v-29v-19h-12l-2 9q-7 -9 -23 -9zM980 534q-31 0 -31 -16q0 -14 12 -14q11 0 19 12v4v14zM1016 495v111h14v-111h-14zM1050 514h18q-3 -8 -16 -38h-10q8 18 8 38zM1117 495v102q14 4 25 4q18 0 29 -9q10 -5 10 -20q0 -16 -8 -24q-12 -12 -31 -12
q-8 0 -12 2v-43h-13zM1130 590v-42h12q25 0 25 22q0 20 -23 20h-14zM1199 495v111h12v-111h-12zM1293 499q-12 -4 -26 -4q-38 0 -38 37q0 17 10 28.5t26 11.5q31 0 31 -34v-8h-53q0 -26 26 -26q12 0 20 4zM1263 562q-20 0 -20 -22h40q0 22 -20 22zM1366 495h-12l-2 9
q-4 -9 -23 -9q-10 0 -16.5 5.5t-6.5 13.5q0 31 46 31q0 17 -15 17q-12 0 -20 -4l-4 8q9 6 24 6q29 0 29 -29v-29v-19zM1352 520v14q-31 0 -31 -16q0 -14 12 -14q15 0 19 12v4zM1432 516q0 -21 -28 -21q-11 0 -21 4l4 11q9 -6 17 -6q14 0 14 10q0 8 -14 14q-19 8 -19 22
q0 22 25 22q12 0 20 -4l-4 -10q-4 4 -16 4t-12 -10q0 -7 14 -14q20 -6 20 -22zM1510 538v-8h-52q0 -26 25 -26q13 0 21 4l4 -9q-12 -4 -28 -4q-36 0 -36 37q0 17 10 28.5t26 11.5q30 0 30 -34zM1458 540h40q0 22 -20 22t-20 -22zM1617 599h14l-38 -104h-16l-34 104h17
l16 -51q5 -23 11 -38q1 6 5.5 19t6.5 19zM1647 601q8 0 8 -9q0 -8 -10 -8q-6 0 -6 8q0 9 8 9zM1639 495v77h14v-77h-14zM1693 504q14 0 14 10q0 8 -14 14q-21 8 -21 22q0 9 7.5 15.5t19.5 6.5q10 0 18 -4l-2 -10q-8 4 -16 4q-14 0 -14 -10q0 -6 16 -14q19 -6 19 -22
q0 -9 -7.5 -15t-19.5 -6q-15 0 -23 4l4 11q12 -6 19 -6zM1744 601q9 0 9 -9q0 -8 -9 -8q-10 0 -10 8q0 9 10 9zM1753 572v-77h-15v77h15zM1811 560h-21v-40q0 -16 10 -16q2 0 5 1t6 1v-9q-5 -2 -15 -2q-7 0 -14 5q-6 6 -6 18v42h-10v12h10v16l14 4v-20h21v-12zM491 267h-28
v16q-13 -18 -34 -18q-33 0 -33 41q0 29 19 50t48 21q10 0 14 -2l10 48h32l-23 -113q-3 -24 -5 -43zM444 289q17 0 23 30l6 30q-4 4 -12 4q-14 0 -24 -13.5t-10 -29.5q0 -21 17 -21zM575 406q0 -19 -19 -19q-16 0 -16 16q0 7 5.5 12.5t12.5 5.5q17 0 17 -15zM569 375
l-21 -108h-33l22 108h32zM640 267l12 60v12q0 12 -10 12q-8 0 -16.5 -9.5t-11.5 -26.5l-10 -48h-29l13 72q1 6 2 18.5t2 17.5h30l-4 -17h2q16 19 38 19q27 0 27 -30q0 -6 -4 -18l-9 -62h-32zM700 313l6 24h56l-4 -24h-58zM823 353q-14 0 -14 -8q0 -6 14 -12q24 -12 24 -29
q0 -39 -50 -39q-19 0 -31 8l8 23q22 -9 25 -9q15 0 15 11q0 6 -13 14q-24 10 -24 27q0 18 13.5 28t34.5 10q19 0 28 -6l-8 -22q-8 4 -22 4zM911 349l-8 -36q0 -1 -1 -6t-1 -7q0 -9 10 -9h9l-4 -24q-5 -2 -19 -2q-28 0 -28 22q0 13 1 21l9 41h-12l2 26h14l6 22l31 8l-5 -30
h22l-5 -26h-21zM1034 267h-27l2 18q-16 -20 -39 -20q-27 0 -27 31q0 3 1 9t1 10l12 60h29l-10 -58q0 -2 -1 -7t-1 -6q0 -15 12 -15q9 0 16.5 10t9.5 26l8 50h34l-14 -71q-1 -6 -3.5 -19.5t-2.5 -17.5zM1157 267h-27l2 16q-14 -18 -36 -18q-14 0 -24 11t-10 30q0 29 19.5 50
t48.5 21q10 0 16 -2l7 48h33l-23 -113q-1 -4 -3 -20t-3 -23zM1109 289q8 0 16 8t11 22l4 30q-4 4 -12 4q-15 0 -23.5 -13t-8.5 -30q0 -21 13 -21zM1243 406q0 -8 -6 -13.5t-14 -5.5q-16 0 -16 16q0 7 5.5 12.5t12.5 5.5t12.5 -4.5t5.5 -10.5zM1235 375l-20 -108h-34l22 108
h32zM1289 265q-20 0 -32 12.5t-12 32.5q0 28 18 47.5t45 19.5q21 0 33.5 -12.5t12.5 -31.5q0 -29 -18.5 -48.5t-46.5 -19.5zM1304 353q-12 0 -19.5 -14t-7.5 -29q0 -21 17 -21q13 0 21 13.5t8 30.5q0 20 -19 20zM1381 265q-19 0 -19 18q0 23 21 23q19 0 19 -21
q0 -9 -6 -14.5t-15 -5.5zM1489 351q-15 0 -25 -11.5t-10 -26.5q0 -11 6.5 -17.5t15.5 -6.5q4 0 12.5 3.5t9.5 3.5v-27q-18 -4 -30 -4q-21 0 -33.5 12t-12.5 33q0 28 19.5 47.5t49.5 19.5q11 0 23 -4l-8 -24q-1 0 -6.5 1t-10.5 1zM1562 265q-22 0 -34 12.5t-12 32.5
q0 28 17.5 47.5t45.5 19.5q21 0 33.5 -12.5t12.5 -31.5q0 -29 -18.5 -48.5t-44.5 -19.5zM1576 353q-13 0 -21 -14t-8 -29q0 -21 17 -21q12 0 19.5 14t7.5 30q0 20 -15 20zM1761 267l9 60q2 2 2 12q0 12 -9 12q-8 0 -16 -10t-11 -24l-8 -50h-31l12 60v12q0 12 -10 12
q-17 0 -27 -36l-7 -48h-30l14 72q1 6 2 18.5t2 17.5h27l-2 -17q16 19 37 19q12 0 18.5 -6t6.5 -13q16 19 38 19q26 0 26 -28q0 -3 -1 -10t-1 -10l-12 -62h-29zM147 659q-59 1 -93 30t-34 72q0 31 13.5 44.5t27.5 13.5q24 0 32.5 -19.5t-4.5 -30.5q0 18 -19 21q-22 3 -29 -19
q-2 -6 -2 -14q0 -36 29.5 -56.5t78.5 -20.5q30 0 51.5 13.5t31.5 37t14 46.5t4 50v26.5t-1.5 28t-5.5 31.5t-10 24.5t-17 20t-26 6.5q-10 0 -10 -24v-67v-2v-112q0 -11 4 -17.5t8 -7.5h5v-9h-94v9q14 0 15 21v189q0 29 -23 29q-9 0 -14.5 -4t-5.5 -9q0 -7 4.5 -10.5
t8.5 -3.5h5q0 -27 -25 -27q-12 0 -19 6.5t-8.5 11.5t-1.5 9q0 19 18.5 30.5t37.5 11.5q18 0 45 -7.5t50 -7.5q121 0 121 -146q0 -67 -41.5 -119t-120.5 -49zM423 734v-9h-93v9q14 0 16 21v100q-1 10 -5 15.5t-7 5.5l-4 1v7l75 14v-139q0 -11 4.5 -17.5t8.5 -7.5h5zM378 968
q12 0 19.5 -8.5t7.5 -19.5q0 -12 -7.5 -21t-19.5 -9t-20 9t-8 21q0 11 8 19.5t20 8.5zM521 877q20 23 50 23q22 0 36.5 -14t14.5 -40v-87q0 -25 16 -25v-9h-94v9q14 0 16 21v98q0 18 -16 19t-22 -17q-1 -4 -1 -9v-87q0 -11 4 -17.5t8 -7.5h4v-9h-93v9q13 0 15 21v100
q-1 10 -4.5 15.5t-6.5 5.5l-4 1v7l77 14v-21zM803 910q0 3 0.5 7t5.5 15t14 19t28.5 15t45.5 7q18 0 35 -4.5t21 -5.5t17 5q6 3 12 3v-63l-8 -2q0 2 -1 5.5t-6 12.5t-13 16t-23 12.5t-34 5.5q-21 0 -34 -13.5t-12 -29t16 -21.5q7 -3 37.5 -11.5t51 -16t38.5 -29t17 -51.5
q-2 -27 -28.5 -44t-75.5 -17q-21 0 -38.5 2.5t-24 4.5t-12 0.5t-9.5 -7.5h-9v66h9q0 -20 25.5 -33t56.5 -13t44.5 15t4 32.5t-33.5 24.5q-3 1 -17 5t-20 6t-18.5 7t-19 9t-16 11t-14.5 14.5t-8.5 18t-3.5 22.5zM1115 890h-3.5t-7 -4.5t-6.5 -12.5v-118q1 -9 5 -14.5t8 -6.5
h4v-9h-25q-15 0 -23.5 1.5t-18.5 13t-10 33.5v98q-1 9 -5.5 14t-8.5 5h-4v8q24 0 46 11.5t32 11.5v-23h17v-8zM1132 890v10h89v-10h-3t-5.5 -5t-3.5 -14v-92q0 -19 10 -24t20 3t10 21v88q0 11 -3.5 17t-7.5 6h-3v10h92v-10h-4.5t-8 -5t-6.5 -14v-116q1 -9 6 -14.5t9 -6.5h4
v-9h-44q-14 0 -24 9.5t-10 18.5q-17 -28 -44 -28q-22 0 -39.5 14.5t-17.5 39.5v88q0 23 -16 23zM1585 686q0 -27 -34 -27q-15 0 -32.5 4t-38.5 22t-26 47q-18 -7 -30 -7q-34 0 -59.5 26t-25.5 62t25.5 61.5t59.5 25.5q4 0 28 -6v79l77 -13v-8h-1q-2 0 -4.5 -1t-4.5 -3
t-4 -6.5t-3 -11.5v-181q3 -71 41 -77q-6 6 -6 14q0 7 6 13t15 6q7 0 12 -6t5 -13zM1424 739q28 0 28 74q0 75 -28 75q-26 0 -26 -75q0 -74 26 -74zM1633 734v-9h-94v9q14 0 16 21v100q-1 10 -5 15.5t-8 5.5l-3 1v7l78 14v-139q0 -11 4 -17.5t8 -7.5h4zM1560 940q0 11 8 19.5
t19 8.5q12 0 20 -8.5t8 -19.5q0 -12 -8 -21t-20 -9q-11 0 -19 9t-8 21zM1806 813q0 -36 -25 -62t-61 -26t-60.5 26t-24.5 62t24.5 60.5t60.5 24.5t61 -24.5t25 -60.5zM1720 739q27 0 27 74q0 37 -5 55t-22 18q-16 0 -20.5 -18t-4.5 -55t4.5 -55.5t20.5 -18.5zM33 289v44h322
v-44h-322zM941 1239h-196l148 187h197zM1809 1239h-185l148 187h37v-187zM355 1239h-196l150 187h196zM1233 1239h-195l150 187h195zM212 1426l-151 -187h-28v187h179zM648 1239h-195l149 187h195zM1528 1239h-197l149 187h194zM893 210h197l-149 -187h-196zM1624 23
l148 187h37v-187h-185zM309 210h196l-150 -187h-196zM1188 210h195l-150 -187h-195zM33 210h179l-151 -187h-28v187zM602 210h195l-149 -187h-195zM1480 210h194l-146 -187h-197z" />
    <glyph glyph-name="seven" unicode="7" horiz-adv-x="1850" 
d="M61 1106l-10 -46h-26l22 123q10 2 34 2q21 0 34 -8q14 -8 14 -26q0 -20 -18 -36q-13 -9 -40 -9h-10zM71 1162l-5 -35q2 -2 9 -2q26 0 26 24q0 16 -20 16q-8 0 -10 -3zM222 1160h-48l-4 -25h46l-6 -22h-44l-5 -30h49l-3 -23h-78l24 125h73zM262 1110l-9 -50h-27l24 123
q7 2 32 2q18 0 34 -6q14 -11 14 -24q0 -25 -30 -36q10 -6 13 -24q0 -8 1.5 -20.5t1.5 -14.5h-26q0 1 -4 29q0 21 -16 21h-8zM272 1162l-6 -33h10q11 0 18.5 6.5t7.5 15.5q0 14 -20 14q-8 0 -10 -3zM367 1081q21 0 21 14q0 11 -17 18q-25 14 -25 32q0 20 13.5 31t34.5 11
q11 0 29 -6l-8 -22q-18 4 -23 3q-19 0 -19 -11q0 -9 19 -18q25 -13 25 -31q0 -44 -52 -44q-24 0 -35 9l10 20q18 -6 27 -6zM500 1187q24 0 37 -14.5t13 -37.5q0 -39 -23 -60q-19 -17 -44 -17q-23 0 -37.5 15t-14.5 37q0 33 24 59q18 18 45 18zM507 1089q16 16 16 46t-27 30
q-9 0 -21 -10q-14 -14 -14 -43q0 -31 26 -31q11 0 20 8zM590 1104l-9 -44h-25l25 125h31l17 -48q3 -8 6 -22t5 -20q0 17 6 44l8 46h24l-22 -125h-27l-19 50q-4 10 -7.5 25.5t-4.5 17.5q-1 -4 -2 -13t-2.5 -18.5t-3.5 -17.5zM716 1091l-16 -31h-28l59 125h35l15 -125h-29
l-3 31h-33zM735 1139l-13 -26h27l-4 26v26q-7 -14 -10 -26zM820 1185h25l-20 -102h47l-3 -23h-74zM968 1185l-13 -72v-16q0 -16 15 -16q23 0 28 32l14 72h28l-14 -72q-6 -29 -19 -42t-39 -13q-42 0 -42 39q0 13 2 18l13 70h27zM1074 1081q20 0 20 14q0 10 -16 18
q-28 16 -28 32q0 20 14.5 31t35.5 11q18 0 30 -6l-9 -22q-18 5 -23 3q-20 0 -20 -11q0 -6 20 -18q23 -14 23 -31q0 -22 -14 -33t-35 -11q-29 0 -36 9l8 20q24 -6 30 -6zM1227 1160h-48l-4 -25h44l-4 -22h-46l-4 -30h50l-6 -23h-75l23 125h74zM1364 1075q-23 -17 -45 -17
q-23 0 -36.5 14.5t-13.5 37.5q0 38 24 59q13 18 44 18q24 0 37 -14.5t13 -37.5q0 -41 -23 -60zM1296 1112q0 -31 27 -31q15 0 19 8q18 18 18 46q0 12 -7 21t-20 9q-8 0 -20 -10q-17 -15 -17 -43zM1435 1153q0 -6 -9 -49l-8 -44h-26l24 125h32l16 -48q6 -16 14 -42q0 14 5 44
l6 46h27l-25 -125h-27l-18 50q-10 42 -10 43h-1zM1541 1185h27l-21 -102h48l-4 -23h-73zM1649 1112l-8 -52h-28l11 52l-27 73h30l8 -32q2 -10 6 -22q4 6 12 22l17 32h33zM1728 1073q0 18 19 18q14 0 14 -16q0 -7 -5.5 -12t-13.5 -5q-14 0 -14 15zM1778 1185l-19 -83h-21
l13 83h27zM91 588h-44v-34h40v-11h-40v-48h-14v104h58v-11zM172 534q0 -20 -11 -29.5t-26 -9.5q-16 0 -26 10t-10 27q0 19 10 29.5t26 10.5q37 0 37 -38zM113 532q0 -28 22 -28q11 0 17.5 8.5t6.5 21.5q0 28 -24 28q-22 0 -22 -30zM203 495h-15v53v24h13l2 -16q6 16 19 16h4
v-14q0 2 -4 2q-13 0 -17 -17q-2 -3 -2 -7v-41zM268 548q0 24 15.5 38.5t40.5 14.5q16 0 24 -4l-4 -11q-12 6 -20 6q-19 0 -30.5 -12t-11.5 -32q0 -44 42 -44q8 0 20 6l4 -11q-8 -4 -28 -4q-24 0 -38 13.5t-14 39.5zM394 495q-17 0 -28 10t-11 27q0 19 11 29.5t28 10.5
q16 0 26.5 -10t10.5 -28q0 -19 -11 -29t-26 -10zM394 562q-12 0 -18.5 -8.5t-6.5 -21.5q0 -12 7 -20t18 -8q10 0 16.5 8.5t6.5 21.5q0 11 -6 19.5t-17 8.5zM554 495h-14v43q0 24 -15 24q-13 0 -16 -14q-2 -3 -2 -5v-48h-13v48q0 19 -15 19q-13 0 -18 -14v-5v-48h-14v55v22
h12v-14h2q3 14 24 14q11 0 20 -14l10 10q2 4 16 4q23 0 23 -32v-45zM685 540v-45h-13v43q0 24 -16 24q-11 0 -18 -14v-5v-48h-14v48q0 19 -16 19q-9 0 -18 -14v-5v-48h-11v55q0 14 -2 22h11v-14h2q7 14 24 14q18 0 20 -14l10 10q4 4 16 4q25 0 25 -32zM770 538q0 -2 -1 -4.5
t-1 -3.5h-52q0 -26 25 -26q9 0 21 4l2 -9q-8 -4 -25 -4q-37 0 -37 37q0 17 10 28.5t25 11.5q17 0 25 -10.5t8 -23.5zM716 540h40q0 22 -21 22q-19 0 -19 -22zM785 548v24h10l2 -16q6 16 23 16h3v-14q-1 2 -5 2q-15 0 -19 -17v-7v-41h-14v53zM889 499q-8 -4 -22 -4
q-18 0 -28 10t-10 27q0 18 11 29t29 11q12 0 20 -4l-4 -10q-4 4 -16 4t-19 -9t-7 -21t7 -20t19 -8q4 0 10 2t8 2zM911 601q9 0 9 -9q0 -8 -9 -8q-8 0 -8 8q0 9 8 9zM905 495v77h13v-77h-13zM957 495q-10 0 -16.5 5.5t-6.5 13.5q0 31 46 31q0 17 -16 17q-11 0 -19 -4l-4 8
q9 6 23 6q30 0 30 -29v-29v-19h-12l-2 9q-7 -9 -23 -9zM980 534q-31 0 -31 -16q0 -14 12 -14q11 0 19 12v4v14zM1016 495v111h14v-111h-14zM1050 514h18q-3 -8 -16 -38h-10q8 18 8 38zM1117 495v102q14 4 25 4q18 0 29 -9q10 -5 10 -20q0 -16 -8 -24q-12 -12 -31 -12
q-8 0 -12 2v-43h-13zM1130 590v-42h12q25 0 25 22q0 20 -23 20h-14zM1199 495v111h12v-111h-12zM1293 499q-12 -4 -26 -4q-38 0 -38 37q0 17 10 28.5t26 11.5q31 0 31 -34v-8h-53q0 -26 26 -26q12 0 20 4zM1263 562q-20 0 -20 -22h40q0 22 -20 22zM1366 495h-12l-2 9
q-4 -9 -23 -9q-10 0 -16.5 5.5t-6.5 13.5q0 31 46 31q0 17 -15 17q-12 0 -20 -4l-4 8q9 6 24 6q29 0 29 -29v-29v-19zM1352 520v14q-31 0 -31 -16q0 -14 12 -14q15 0 19 12v4zM1432 516q0 -21 -28 -21q-11 0 -21 4l4 11q9 -6 17 -6q14 0 14 10q0 8 -14 14q-19 8 -19 22
q0 22 25 22q12 0 20 -4l-4 -10q-4 4 -16 4t-12 -10q0 -7 14 -14q20 -6 20 -22zM1510 538v-8h-52q0 -26 25 -26q13 0 21 4l4 -9q-12 -4 -28 -4q-36 0 -36 37q0 17 10 28.5t26 11.5q30 0 30 -34zM1458 540h40q0 22 -20 22t-20 -22zM1617 599h14l-38 -104h-16l-34 104h17
l16 -51q5 -23 11 -38q1 6 5.5 19t6.5 19zM1647 601q8 0 8 -9q0 -8 -10 -8q-6 0 -6 8q0 9 8 9zM1639 495v77h14v-77h-14zM1693 504q14 0 14 10q0 8 -14 14q-21 8 -21 22q0 9 7.5 15.5t19.5 6.5q10 0 18 -4l-2 -10q-8 4 -16 4q-14 0 -14 -10q0 -6 16 -14q19 -6 19 -22
q0 -9 -7.5 -15t-19.5 -6q-15 0 -23 4l4 11q12 -6 19 -6zM1744 601q9 0 9 -9q0 -8 -9 -8q-10 0 -10 8q0 9 10 9zM1753 572v-77h-15v77h15zM1811 560h-21v-40q0 -16 10 -16q2 0 5 1t6 1v-9q-5 -2 -15 -2q-7 0 -14 5q-6 6 -6 18v42h-10v12h10v16l14 4v-20h21v-12zM491 267h-28
v16q-13 -18 -34 -18q-33 0 -33 41q0 29 19 50t48 21q10 0 14 -2l10 48h32l-23 -113q-3 -24 -5 -43zM444 289q17 0 23 30l6 30q-4 4 -12 4q-14 0 -24 -13.5t-10 -29.5q0 -21 17 -21zM575 406q0 -19 -19 -19q-16 0 -16 16q0 7 5.5 12.5t12.5 5.5q17 0 17 -15zM569 375
l-21 -108h-33l22 108h32zM640 267l12 60v12q0 12 -10 12q-8 0 -16.5 -9.5t-11.5 -26.5l-10 -48h-29l13 72q1 6 2 18.5t2 17.5h30l-4 -17h2q16 19 38 19q27 0 27 -30q0 -6 -4 -18l-9 -62h-32zM700 313l6 24h56l-4 -24h-58zM823 353q-14 0 -14 -8q0 -6 14 -12q24 -12 24 -29
q0 -39 -50 -39q-19 0 -31 8l8 23q22 -9 25 -9q15 0 15 11q0 6 -13 14q-24 10 -24 27q0 18 13.5 28t34.5 10q19 0 28 -6l-8 -22q-8 4 -22 4zM911 349l-8 -36q0 -1 -1 -6t-1 -7q0 -9 10 -9h9l-4 -24q-5 -2 -19 -2q-28 0 -28 22q0 13 1 21l9 41h-12l2 26h14l6 22l31 8l-5 -30
h22l-5 -26h-21zM1034 267h-27l2 18q-16 -20 -39 -20q-27 0 -27 31q0 3 1 9t1 10l12 60h29l-10 -58q0 -2 -1 -7t-1 -6q0 -15 12 -15q9 0 16.5 10t9.5 26l8 50h34l-14 -71q-1 -6 -3.5 -19.5t-2.5 -17.5zM1157 267h-27l2 16q-14 -18 -36 -18q-14 0 -24 11t-10 30q0 29 19.5 50
t48.5 21q10 0 16 -2l7 48h33l-23 -113q-1 -4 -3 -20t-3 -23zM1109 289q8 0 16 8t11 22l4 30q-4 4 -12 4q-15 0 -23.5 -13t-8.5 -30q0 -21 13 -21zM1243 406q0 -8 -6 -13.5t-14 -5.5q-16 0 -16 16q0 7 5.5 12.5t12.5 5.5t12.5 -4.5t5.5 -10.5zM1235 375l-20 -108h-34l22 108
h32zM1289 265q-20 0 -32 12.5t-12 32.5q0 28 18 47.5t45 19.5q21 0 33.5 -12.5t12.5 -31.5q0 -29 -18.5 -48.5t-46.5 -19.5zM1304 353q-12 0 -19.5 -14t-7.5 -29q0 -21 17 -21q13 0 21 13.5t8 30.5q0 20 -19 20zM1381 265q-19 0 -19 18q0 23 21 23q19 0 19 -21
q0 -9 -6 -14.5t-15 -5.5zM1489 351q-15 0 -25 -11.5t-10 -26.5q0 -11 6.5 -17.5t15.5 -6.5q4 0 12.5 3.5t9.5 3.5v-27q-18 -4 -30 -4q-21 0 -33.5 12t-12.5 33q0 28 19.5 47.5t49.5 19.5q11 0 23 -4l-8 -24q-1 0 -6.5 1t-10.5 1zM1562 265q-22 0 -34 12.5t-12 32.5
q0 28 17.5 47.5t45.5 19.5q21 0 33.5 -12.5t12.5 -31.5q0 -29 -18.5 -48.5t-44.5 -19.5zM1576 353q-13 0 -21 -14t-8 -29q0 -21 17 -21q12 0 19.5 14t7.5 30q0 20 -15 20zM1761 267l9 60q2 2 2 12q0 12 -9 12q-8 0 -16 -10t-11 -24l-8 -50h-31l12 60v12q0 12 -10 12
q-17 0 -27 -36l-7 -48h-30l14 72q1 6 2 18.5t2 17.5h27l-2 -17q16 19 37 19q12 0 18.5 -6t6.5 -13q16 19 38 19q26 0 26 -28q0 -3 -1 -10t-1 -10l-12 -62h-29zM147 659q-59 1 -93 30t-34 72q0 31 13.5 44.5t27.5 13.5q24 0 32.5 -19.5t-4.5 -30.5q0 18 -19 21q-22 3 -29 -19
q-2 -6 -2 -14q0 -36 29.5 -56.5t78.5 -20.5q30 0 51.5 13.5t31.5 37t14 46.5t4 50v26.5t-1.5 28t-5.5 31.5t-10 24.5t-17 20t-26 6.5q-10 0 -10 -24v-67v-2v-112q0 -11 4 -17.5t8 -7.5h5v-9h-94v9q14 0 15 21v189q0 29 -23 29q-9 0 -14.5 -4t-5.5 -9q0 -7 4.5 -10.5
t8.5 -3.5h5q0 -27 -25 -27q-12 0 -19 6.5t-8.5 11.5t-1.5 9q0 19 18.5 30.5t37.5 11.5q18 0 45 -7.5t50 -7.5q121 0 121 -146q0 -67 -41.5 -119t-120.5 -49zM423 734v-9h-93v9q14 0 16 21v100q-1 10 -5 15.5t-7 5.5l-4 1v7l75 14v-139q0 -11 4.5 -17.5t8.5 -7.5h5zM378 968
q12 0 19.5 -8.5t7.5 -19.5q0 -12 -7.5 -21t-19.5 -9t-20 9t-8 21q0 11 8 19.5t20 8.5zM521 877q20 23 50 23q22 0 36.5 -14t14.5 -40v-87q0 -25 16 -25v-9h-94v9q14 0 16 21v98q0 18 -16 19t-22 -17q-1 -4 -1 -9v-87q0 -11 4 -17.5t8 -7.5h4v-9h-93v9q13 0 15 21v100
q-1 10 -4.5 15.5t-6.5 5.5l-4 1v7l77 14v-21zM803 910q0 3 0.5 7t5.5 15t14 19t28.5 15t45.5 7q18 0 35 -4.5t21 -5.5t17 5q6 3 12 3v-63l-8 -2q0 2 -1 5.5t-6 12.5t-13 16t-23 12.5t-34 5.5q-21 0 -34 -13.5t-12 -29t16 -21.5q7 -3 37.5 -11.5t51 -16t38.5 -29t17 -51.5
q-2 -27 -28.5 -44t-75.5 -17q-21 0 -38.5 2.5t-24 4.5t-12 0.5t-9.5 -7.5h-9v66h9q0 -20 25.5 -33t56.5 -13t44.5 15t4 32.5t-33.5 24.5q-3 1 -17 5t-20 6t-18.5 7t-19 9t-16 11t-14.5 14.5t-8.5 18t-3.5 22.5zM1115 890h-3.5t-7 -4.5t-6.5 -12.5v-118q1 -9 5 -14.5t8 -6.5
h4v-9h-25q-15 0 -23.5 1.5t-18.5 13t-10 33.5v98q-1 9 -5.5 14t-8.5 5h-4v8q24 0 46 11.5t32 11.5v-23h17v-8zM1132 890v10h89v-10h-3t-5.5 -5t-3.5 -14v-92q0 -19 10 -24t20 3t10 21v88q0 11 -3.5 17t-7.5 6h-3v10h92v-10h-4.5t-8 -5t-6.5 -14v-116q1 -9 6 -14.5t9 -6.5h4
v-9h-44q-14 0 -24 9.5t-10 18.5q-17 -28 -44 -28q-22 0 -39.5 14.5t-17.5 39.5v88q0 23 -16 23zM1585 686q0 -27 -34 -27q-15 0 -32.5 4t-38.5 22t-26 47q-18 -7 -30 -7q-34 0 -59.5 26t-25.5 62t25.5 61.5t59.5 25.5q4 0 28 -6v79l77 -13v-8h-1q-2 0 -4.5 -1t-4.5 -3
t-4 -6.5t-3 -11.5v-181q3 -71 41 -77q-6 6 -6 14q0 7 6 13t15 6q7 0 12 -6t5 -13zM1424 739q28 0 28 74q0 75 -28 75q-26 0 -26 -75q0 -74 26 -74zM1633 734v-9h-94v9q14 0 16 21v100q-1 10 -5 15.5t-8 5.5l-3 1v7l78 14v-139q0 -11 4 -17.5t8 -7.5h4zM1560 940q0 11 8 19.5
t19 8.5q12 0 20 -8.5t8 -19.5q0 -12 -8 -21t-20 -9q-11 0 -19 9t-8 21zM1806 813q0 -36 -25 -62t-61 -26t-60.5 26t-24.5 62t24.5 60.5t60.5 24.5t61 -24.5t25 -60.5zM1720 739q27 0 27 74q0 37 -5 55t-22 18q-16 0 -20.5 -18t-4.5 -55t4.5 -55.5t20.5 -18.5zM33 289v44h322
v-44h-322zM941 1239h-196l148 187h197zM1809 1239h-185l148 187h37v-187zM355 1239h-196l150 187h196zM1233 1239h-195l150 187h195zM212 1426l-151 -187h-28v187h179zM648 1239h-195l149 187h195zM1528 1239h-197l149 187h194zM893 210h197l-149 -187h-196zM1624 23
l148 187h37v-187h-185zM309 210h196l-150 -187h-196zM1188 210h195l-150 -187h-195zM33 210h179l-151 -187h-28v187zM602 210h195l-149 -187h-195zM1480 210h194l-146 -187h-197z" />
    <glyph glyph-name="eight" unicode="8" horiz-adv-x="1850" 
d="M61 1106l-10 -46h-26l22 123q10 2 34 2q21 0 34 -8q14 -8 14 -26q0 -20 -18 -36q-13 -9 -40 -9h-10zM71 1162l-5 -35q2 -2 9 -2q26 0 26 24q0 16 -20 16q-8 0 -10 -3zM222 1160h-48l-4 -25h46l-6 -22h-44l-5 -30h49l-3 -23h-78l24 125h73zM262 1110l-9 -50h-27l24 123
q7 2 32 2q18 0 34 -6q14 -11 14 -24q0 -25 -30 -36q10 -6 13 -24q0 -8 1.5 -20.5t1.5 -14.5h-26q0 1 -4 29q0 21 -16 21h-8zM272 1162l-6 -33h10q11 0 18.5 6.5t7.5 15.5q0 14 -20 14q-8 0 -10 -3zM367 1081q21 0 21 14q0 11 -17 18q-25 14 -25 32q0 20 13.5 31t34.5 11
q11 0 29 -6l-8 -22q-18 4 -23 3q-19 0 -19 -11q0 -9 19 -18q25 -13 25 -31q0 -44 -52 -44q-24 0 -35 9l10 20q18 -6 27 -6zM500 1187q24 0 37 -14.5t13 -37.5q0 -39 -23 -60q-19 -17 -44 -17q-23 0 -37.5 15t-14.5 37q0 33 24 59q18 18 45 18zM507 1089q16 16 16 46t-27 30
q-9 0 -21 -10q-14 -14 -14 -43q0 -31 26 -31q11 0 20 8zM590 1104l-9 -44h-25l25 125h31l17 -48q3 -8 6 -22t5 -20q0 17 6 44l8 46h24l-22 -125h-27l-19 50q-4 10 -7.5 25.5t-4.5 17.5q-1 -4 -2 -13t-2.5 -18.5t-3.5 -17.5zM716 1091l-16 -31h-28l59 125h35l15 -125h-29
l-3 31h-33zM735 1139l-13 -26h27l-4 26v26q-7 -14 -10 -26zM820 1185h25l-20 -102h47l-3 -23h-74zM968 1185l-13 -72v-16q0 -16 15 -16q23 0 28 32l14 72h28l-14 -72q-6 -29 -19 -42t-39 -13q-42 0 -42 39q0 13 2 18l13 70h27zM1074 1081q20 0 20 14q0 10 -16 18
q-28 16 -28 32q0 20 14.5 31t35.5 11q18 0 30 -6l-9 -22q-18 5 -23 3q-20 0 -20 -11q0 -6 20 -18q23 -14 23 -31q0 -22 -14 -33t-35 -11q-29 0 -36 9l8 20q24 -6 30 -6zM1227 1160h-48l-4 -25h44l-4 -22h-46l-4 -30h50l-6 -23h-75l23 125h74zM1364 1075q-23 -17 -45 -17
q-23 0 -36.5 14.5t-13.5 37.5q0 38 24 59q13 18 44 18q24 0 37 -14.5t13 -37.5q0 -41 -23 -60zM1296 1112q0 -31 27 -31q15 0 19 8q18 18 18 46q0 12 -7 21t-20 9q-8 0 -20 -10q-17 -15 -17 -43zM1435 1153q0 -6 -9 -49l-8 -44h-26l24 125h32l16 -48q6 -16 14 -42q0 14 5 44
l6 46h27l-25 -125h-27l-18 50q-10 42 -10 43h-1zM1541 1185h27l-21 -102h48l-4 -23h-73zM1649 1112l-8 -52h-28l11 52l-27 73h30l8 -32q2 -10 6 -22q4 6 12 22l17 32h33zM1728 1073q0 18 19 18q14 0 14 -16q0 -7 -5.5 -12t-13.5 -5q-14 0 -14 15zM1778 1185l-19 -83h-21
l13 83h27zM91 588h-44v-34h40v-11h-40v-48h-14v104h58v-11zM172 534q0 -20 -11 -29.5t-26 -9.5q-16 0 -26 10t-10 27q0 19 10 29.5t26 10.5q37 0 37 -38zM113 532q0 -28 22 -28q11 0 17.5 8.5t6.5 21.5q0 28 -24 28q-22 0 -22 -30zM203 495h-15v53v24h13l2 -16q6 16 19 16h4
v-14q0 2 -4 2q-13 0 -17 -17q-2 -3 -2 -7v-41zM268 548q0 24 15.5 38.5t40.5 14.5q16 0 24 -4l-4 -11q-12 6 -20 6q-19 0 -30.5 -12t-11.5 -32q0 -44 42 -44q8 0 20 6l4 -11q-8 -4 -28 -4q-24 0 -38 13.5t-14 39.5zM394 495q-17 0 -28 10t-11 27q0 19 11 29.5t28 10.5
q16 0 26.5 -10t10.5 -28q0 -19 -11 -29t-26 -10zM394 562q-12 0 -18.5 -8.5t-6.5 -21.5q0 -12 7 -20t18 -8q10 0 16.5 8.5t6.5 21.5q0 11 -6 19.5t-17 8.5zM554 495h-14v43q0 24 -15 24q-13 0 -16 -14q-2 -3 -2 -5v-48h-13v48q0 19 -15 19q-13 0 -18 -14v-5v-48h-14v55v22
h12v-14h2q3 14 24 14q11 0 20 -14l10 10q2 4 16 4q23 0 23 -32v-45zM685 540v-45h-13v43q0 24 -16 24q-11 0 -18 -14v-5v-48h-14v48q0 19 -16 19q-9 0 -18 -14v-5v-48h-11v55q0 14 -2 22h11v-14h2q7 14 24 14q18 0 20 -14l10 10q4 4 16 4q25 0 25 -32zM770 538q0 -2 -1 -4.5
t-1 -3.5h-52q0 -26 25 -26q9 0 21 4l2 -9q-8 -4 -25 -4q-37 0 -37 37q0 17 10 28.5t25 11.5q17 0 25 -10.5t8 -23.5zM716 540h40q0 22 -21 22q-19 0 -19 -22zM785 548v24h10l2 -16q6 16 23 16h3v-14q-1 2 -5 2q-15 0 -19 -17v-7v-41h-14v53zM889 499q-8 -4 -22 -4
q-18 0 -28 10t-10 27q0 18 11 29t29 11q12 0 20 -4l-4 -10q-4 4 -16 4t-19 -9t-7 -21t7 -20t19 -8q4 0 10 2t8 2zM911 601q9 0 9 -9q0 -8 -9 -8q-8 0 -8 8q0 9 8 9zM905 495v77h13v-77h-13zM957 495q-10 0 -16.5 5.5t-6.5 13.5q0 31 46 31q0 17 -16 17q-11 0 -19 -4l-4 8
q9 6 23 6q30 0 30 -29v-29v-19h-12l-2 9q-7 -9 -23 -9zM980 534q-31 0 -31 -16q0 -14 12 -14q11 0 19 12v4v14zM1016 495v111h14v-111h-14zM1050 514h18q-3 -8 -16 -38h-10q8 18 8 38zM1117 495v102q14 4 25 4q18 0 29 -9q10 -5 10 -20q0 -16 -8 -24q-12 -12 -31 -12
q-8 0 -12 2v-43h-13zM1130 590v-42h12q25 0 25 22q0 20 -23 20h-14zM1199 495v111h12v-111h-12zM1293 499q-12 -4 -26 -4q-38 0 -38 37q0 17 10 28.5t26 11.5q31 0 31 -34v-8h-53q0 -26 26 -26q12 0 20 4zM1263 562q-20 0 -20 -22h40q0 22 -20 22zM1366 495h-12l-2 9
q-4 -9 -23 -9q-10 0 -16.5 5.5t-6.5 13.5q0 31 46 31q0 17 -15 17q-12 0 -20 -4l-4 8q9 6 24 6q29 0 29 -29v-29v-19zM1352 520v14q-31 0 -31 -16q0 -14 12 -14q15 0 19 12v4zM1432 516q0 -21 -28 -21q-11 0 -21 4l4 11q9 -6 17 -6q14 0 14 10q0 8 -14 14q-19 8 -19 22
q0 22 25 22q12 0 20 -4l-4 -10q-4 4 -16 4t-12 -10q0 -7 14 -14q20 -6 20 -22zM1510 538v-8h-52q0 -26 25 -26q13 0 21 4l4 -9q-12 -4 -28 -4q-36 0 -36 37q0 17 10 28.5t26 11.5q30 0 30 -34zM1458 540h40q0 22 -20 22t-20 -22zM1617 599h14l-38 -104h-16l-34 104h17
l16 -51q5 -23 11 -38q1 6 5.5 19t6.5 19zM1647 601q8 0 8 -9q0 -8 -10 -8q-6 0 -6 8q0 9 8 9zM1639 495v77h14v-77h-14zM1693 504q14 0 14 10q0 8 -14 14q-21 8 -21 22q0 9 7.5 15.5t19.5 6.5q10 0 18 -4l-2 -10q-8 4 -16 4q-14 0 -14 -10q0 -6 16 -14q19 -6 19 -22
q0 -9 -7.5 -15t-19.5 -6q-15 0 -23 4l4 11q12 -6 19 -6zM1744 601q9 0 9 -9q0 -8 -9 -8q-10 0 -10 8q0 9 10 9zM1753 572v-77h-15v77h15zM1811 560h-21v-40q0 -16 10 -16q2 0 5 1t6 1v-9q-5 -2 -15 -2q-7 0 -14 5q-6 6 -6 18v42h-10v12h10v16l14 4v-20h21v-12zM491 267h-28
v16q-13 -18 -34 -18q-33 0 -33 41q0 29 19 50t48 21q10 0 14 -2l10 48h32l-23 -113q-3 -24 -5 -43zM444 289q17 0 23 30l6 30q-4 4 -12 4q-14 0 -24 -13.5t-10 -29.5q0 -21 17 -21zM575 406q0 -19 -19 -19q-16 0 -16 16q0 7 5.5 12.5t12.5 5.5q17 0 17 -15zM569 375
l-21 -108h-33l22 108h32zM640 267l12 60v12q0 12 -10 12q-8 0 -16.5 -9.5t-11.5 -26.5l-10 -48h-29l13 72q1 6 2 18.5t2 17.5h30l-4 -17h2q16 19 38 19q27 0 27 -30q0 -6 -4 -18l-9 -62h-32zM700 313l6 24h56l-4 -24h-58zM823 353q-14 0 -14 -8q0 -6 14 -12q24 -12 24 -29
q0 -39 -50 -39q-19 0 -31 8l8 23q22 -9 25 -9q15 0 15 11q0 6 -13 14q-24 10 -24 27q0 18 13.5 28t34.5 10q19 0 28 -6l-8 -22q-8 4 -22 4zM911 349l-8 -36q0 -1 -1 -6t-1 -7q0 -9 10 -9h9l-4 -24q-5 -2 -19 -2q-28 0 -28 22q0 13 1 21l9 41h-12l2 26h14l6 22l31 8l-5 -30
h22l-5 -26h-21zM1034 267h-27l2 18q-16 -20 -39 -20q-27 0 -27 31q0 3 1 9t1 10l12 60h29l-10 -58q0 -2 -1 -7t-1 -6q0 -15 12 -15q9 0 16.5 10t9.5 26l8 50h34l-14 -71q-1 -6 -3.5 -19.5t-2.5 -17.5zM1157 267h-27l2 16q-14 -18 -36 -18q-14 0 -24 11t-10 30q0 29 19.5 50
t48.5 21q10 0 16 -2l7 48h33l-23 -113q-1 -4 -3 -20t-3 -23zM1109 289q8 0 16 8t11 22l4 30q-4 4 -12 4q-15 0 -23.5 -13t-8.5 -30q0 -21 13 -21zM1243 406q0 -8 -6 -13.5t-14 -5.5q-16 0 -16 16q0 7 5.5 12.5t12.5 5.5t12.5 -4.5t5.5 -10.5zM1235 375l-20 -108h-34l22 108
h32zM1289 265q-20 0 -32 12.5t-12 32.5q0 28 18 47.5t45 19.5q21 0 33.5 -12.5t12.5 -31.5q0 -29 -18.5 -48.5t-46.5 -19.5zM1304 353q-12 0 -19.5 -14t-7.5 -29q0 -21 17 -21q13 0 21 13.5t8 30.5q0 20 -19 20zM1381 265q-19 0 -19 18q0 23 21 23q19 0 19 -21
q0 -9 -6 -14.5t-15 -5.5zM1489 351q-15 0 -25 -11.5t-10 -26.5q0 -11 6.5 -17.5t15.5 -6.5q4 0 12.5 3.5t9.5 3.5v-27q-18 -4 -30 -4q-21 0 -33.5 12t-12.5 33q0 28 19.5 47.5t49.5 19.5q11 0 23 -4l-8 -24q-1 0 -6.5 1t-10.5 1zM1562 265q-22 0 -34 12.5t-12 32.5
q0 28 17.5 47.5t45.5 19.5q21 0 33.5 -12.5t12.5 -31.5q0 -29 -18.5 -48.5t-44.5 -19.5zM1576 353q-13 0 -21 -14t-8 -29q0 -21 17 -21q12 0 19.5 14t7.5 30q0 20 -15 20zM1761 267l9 60q2 2 2 12q0 12 -9 12q-8 0 -16 -10t-11 -24l-8 -50h-31l12 60v12q0 12 -10 12
q-17 0 -27 -36l-7 -48h-30l14 72q1 6 2 18.5t2 17.5h27l-2 -17q16 19 37 19q12 0 18.5 -6t6.5 -13q16 19 38 19q26 0 26 -28q0 -3 -1 -10t-1 -10l-12 -62h-29zM147 659q-59 1 -93 30t-34 72q0 31 13.5 44.5t27.5 13.5q24 0 32.5 -19.5t-4.5 -30.5q0 18 -19 21q-22 3 -29 -19
q-2 -6 -2 -14q0 -36 29.5 -56.5t78.5 -20.5q30 0 51.5 13.5t31.5 37t14 46.5t4 50v26.5t-1.5 28t-5.5 31.5t-10 24.5t-17 20t-26 6.5q-10 0 -10 -24v-67v-2v-112q0 -11 4 -17.5t8 -7.5h5v-9h-94v9q14 0 15 21v189q0 29 -23 29q-9 0 -14.5 -4t-5.5 -9q0 -7 4.5 -10.5
t8.5 -3.5h5q0 -27 -25 -27q-12 0 -19 6.5t-8.5 11.5t-1.5 9q0 19 18.5 30.5t37.5 11.5q18 0 45 -7.5t50 -7.5q121 0 121 -146q0 -67 -41.5 -119t-120.5 -49zM423 734v-9h-93v9q14 0 16 21v100q-1 10 -5 15.5t-7 5.5l-4 1v7l75 14v-139q0 -11 4.5 -17.5t8.5 -7.5h5zM378 968
q12 0 19.5 -8.5t7.5 -19.5q0 -12 -7.5 -21t-19.5 -9t-20 9t-8 21q0 11 8 19.5t20 8.5zM521 877q20 23 50 23q22 0 36.5 -14t14.5 -40v-87q0 -25 16 -25v-9h-94v9q14 0 16 21v98q0 18 -16 19t-22 -17q-1 -4 -1 -9v-87q0 -11 4 -17.5t8 -7.5h4v-9h-93v9q13 0 15 21v100
q-1 10 -4.5 15.5t-6.5 5.5l-4 1v7l77 14v-21zM803 910q0 3 0.5 7t5.5 15t14 19t28.5 15t45.5 7q18 0 35 -4.5t21 -5.5t17 5q6 3 12 3v-63l-8 -2q0 2 -1 5.5t-6 12.5t-13 16t-23 12.5t-34 5.5q-21 0 -34 -13.5t-12 -29t16 -21.5q7 -3 37.5 -11.5t51 -16t38.5 -29t17 -51.5
q-2 -27 -28.5 -44t-75.5 -17q-21 0 -38.5 2.5t-24 4.5t-12 0.5t-9.5 -7.5h-9v66h9q0 -20 25.5 -33t56.5 -13t44.5 15t4 32.5t-33.5 24.5q-3 1 -17 5t-20 6t-18.5 7t-19 9t-16 11t-14.5 14.5t-8.5 18t-3.5 22.5zM1115 890h-3.5t-7 -4.5t-6.5 -12.5v-118q1 -9 5 -14.5t8 -6.5
h4v-9h-25q-15 0 -23.5 1.5t-18.5 13t-10 33.5v98q-1 9 -5.5 14t-8.5 5h-4v8q24 0 46 11.5t32 11.5v-23h17v-8zM1132 890v10h89v-10h-3t-5.5 -5t-3.5 -14v-92q0 -19 10 -24t20 3t10 21v88q0 11 -3.5 17t-7.5 6h-3v10h92v-10h-4.5t-8 -5t-6.5 -14v-116q1 -9 6 -14.5t9 -6.5h4
v-9h-44q-14 0 -24 9.5t-10 18.5q-17 -28 -44 -28q-22 0 -39.5 14.5t-17.5 39.5v88q0 23 -16 23zM1585 686q0 -27 -34 -27q-15 0 -32.5 4t-38.5 22t-26 47q-18 -7 -30 -7q-34 0 -59.5 26t-25.5 62t25.5 61.5t59.5 25.5q4 0 28 -6v79l77 -13v-8h-1q-2 0 -4.5 -1t-4.5 -3
t-4 -6.5t-3 -11.5v-181q3 -71 41 -77q-6 6 -6 14q0 7 6 13t15 6q7 0 12 -6t5 -13zM1424 739q28 0 28 74q0 75 -28 75q-26 0 -26 -75q0 -74 26 -74zM1633 734v-9h-94v9q14 0 16 21v100q-1 10 -5 15.5t-8 5.5l-3 1v7l78 14v-139q0 -11 4 -17.5t8 -7.5h4zM1560 940q0 11 8 19.5
t19 8.5q12 0 20 -8.5t8 -19.5q0 -12 -8 -21t-20 -9q-11 0 -19 9t-8 21zM1806 813q0 -36 -25 -62t-61 -26t-60.5 26t-24.5 62t24.5 60.5t60.5 24.5t61 -24.5t25 -60.5zM1720 739q27 0 27 74q0 37 -5 55t-22 18q-16 0 -20.5 -18t-4.5 -55t4.5 -55.5t20.5 -18.5zM33 289v44h322
v-44h-322zM941 1239h-196l148 187h197zM1809 1239h-185l148 187h37v-187zM355 1239h-196l150 187h196zM1233 1239h-195l150 187h195zM212 1426l-151 -187h-28v187h179zM648 1239h-195l149 187h195zM1528 1239h-197l149 187h194zM893 210h197l-149 -187h-196zM1624 23
l148 187h37v-187h-185zM309 210h196l-150 -187h-196zM1188 210h195l-150 -187h-195zM33 210h179l-151 -187h-28v187zM602 210h195l-149 -187h-195zM1480 210h194l-146 -187h-197z" />
    <glyph glyph-name="nine" unicode="9" horiz-adv-x="1850" 
d="M61 1106l-10 -46h-26l22 123q10 2 34 2q21 0 34 -8q14 -8 14 -26q0 -20 -18 -36q-13 -9 -40 -9h-10zM71 1162l-5 -35q2 -2 9 -2q26 0 26 24q0 16 -20 16q-8 0 -10 -3zM222 1160h-48l-4 -25h46l-6 -22h-44l-5 -30h49l-3 -23h-78l24 125h73zM262 1110l-9 -50h-27l24 123
q7 2 32 2q18 0 34 -6q14 -11 14 -24q0 -25 -30 -36q10 -6 13 -24q0 -8 1.5 -20.5t1.5 -14.5h-26q0 1 -4 29q0 21 -16 21h-8zM272 1162l-6 -33h10q11 0 18.5 6.5t7.5 15.5q0 14 -20 14q-8 0 -10 -3zM367 1081q21 0 21 14q0 11 -17 18q-25 14 -25 32q0 20 13.5 31t34.5 11
q11 0 29 -6l-8 -22q-18 4 -23 3q-19 0 -19 -11q0 -9 19 -18q25 -13 25 -31q0 -44 -52 -44q-24 0 -35 9l10 20q18 -6 27 -6zM500 1187q24 0 37 -14.5t13 -37.5q0 -39 -23 -60q-19 -17 -44 -17q-23 0 -37.5 15t-14.5 37q0 33 24 59q18 18 45 18zM507 1089q16 16 16 46t-27 30
q-9 0 -21 -10q-14 -14 -14 -43q0 -31 26 -31q11 0 20 8zM590 1104l-9 -44h-25l25 125h31l17 -48q3 -8 6 -22t5 -20q0 17 6 44l8 46h24l-22 -125h-27l-19 50q-4 10 -7.5 25.5t-4.5 17.5q-1 -4 -2 -13t-2.5 -18.5t-3.5 -17.5zM716 1091l-16 -31h-28l59 125h35l15 -125h-29
l-3 31h-33zM735 1139l-13 -26h27l-4 26v26q-7 -14 -10 -26zM820 1185h25l-20 -102h47l-3 -23h-74zM968 1185l-13 -72v-16q0 -16 15 -16q23 0 28 32l14 72h28l-14 -72q-6 -29 -19 -42t-39 -13q-42 0 -42 39q0 13 2 18l13 70h27zM1074 1081q20 0 20 14q0 10 -16 18
q-28 16 -28 32q0 20 14.5 31t35.5 11q18 0 30 -6l-9 -22q-18 5 -23 3q-20 0 -20 -11q0 -6 20 -18q23 -14 23 -31q0 -22 -14 -33t-35 -11q-29 0 -36 9l8 20q24 -6 30 -6zM1227 1160h-48l-4 -25h44l-4 -22h-46l-4 -30h50l-6 -23h-75l23 125h74zM1364 1075q-23 -17 -45 -17
q-23 0 -36.5 14.5t-13.5 37.5q0 38 24 59q13 18 44 18q24 0 37 -14.5t13 -37.5q0 -41 -23 -60zM1296 1112q0 -31 27 -31q15 0 19 8q18 18 18 46q0 12 -7 21t-20 9q-8 0 -20 -10q-17 -15 -17 -43zM1435 1153q0 -6 -9 -49l-8 -44h-26l24 125h32l16 -48q6 -16 14 -42q0 14 5 44
l6 46h27l-25 -125h-27l-18 50q-10 42 -10 43h-1zM1541 1185h27l-21 -102h48l-4 -23h-73zM1649 1112l-8 -52h-28l11 52l-27 73h30l8 -32q2 -10 6 -22q4 6 12 22l17 32h33zM1728 1073q0 18 19 18q14 0 14 -16q0 -7 -5.5 -12t-13.5 -5q-14 0 -14 15zM1778 1185l-19 -83h-21
l13 83h27zM91 588h-44v-34h40v-11h-40v-48h-14v104h58v-11zM172 534q0 -20 -11 -29.5t-26 -9.5q-16 0 -26 10t-10 27q0 19 10 29.5t26 10.5q37 0 37 -38zM113 532q0 -28 22 -28q11 0 17.5 8.5t6.5 21.5q0 28 -24 28q-22 0 -22 -30zM203 495h-15v53v24h13l2 -16q6 16 19 16h4
v-14q0 2 -4 2q-13 0 -17 -17q-2 -3 -2 -7v-41zM268 548q0 24 15.5 38.5t40.5 14.5q16 0 24 -4l-4 -11q-12 6 -20 6q-19 0 -30.5 -12t-11.5 -32q0 -44 42 -44q8 0 20 6l4 -11q-8 -4 -28 -4q-24 0 -38 13.5t-14 39.5zM394 495q-17 0 -28 10t-11 27q0 19 11 29.5t28 10.5
q16 0 26.5 -10t10.5 -28q0 -19 -11 -29t-26 -10zM394 562q-12 0 -18.5 -8.5t-6.5 -21.5q0 -12 7 -20t18 -8q10 0 16.5 8.5t6.5 21.5q0 11 -6 19.5t-17 8.5zM554 495h-14v43q0 24 -15 24q-13 0 -16 -14q-2 -3 -2 -5v-48h-13v48q0 19 -15 19q-13 0 -18 -14v-5v-48h-14v55v22
h12v-14h2q3 14 24 14q11 0 20 -14l10 10q2 4 16 4q23 0 23 -32v-45zM685 540v-45h-13v43q0 24 -16 24q-11 0 -18 -14v-5v-48h-14v48q0 19 -16 19q-9 0 -18 -14v-5v-48h-11v55q0 14 -2 22h11v-14h2q7 14 24 14q18 0 20 -14l10 10q4 4 16 4q25 0 25 -32zM770 538q0 -2 -1 -4.5
t-1 -3.5h-52q0 -26 25 -26q9 0 21 4l2 -9q-8 -4 -25 -4q-37 0 -37 37q0 17 10 28.5t25 11.5q17 0 25 -10.5t8 -23.5zM716 540h40q0 22 -21 22q-19 0 -19 -22zM785 548v24h10l2 -16q6 16 23 16h3v-14q-1 2 -5 2q-15 0 -19 -17v-7v-41h-14v53zM889 499q-8 -4 -22 -4
q-18 0 -28 10t-10 27q0 18 11 29t29 11q12 0 20 -4l-4 -10q-4 4 -16 4t-19 -9t-7 -21t7 -20t19 -8q4 0 10 2t8 2zM911 601q9 0 9 -9q0 -8 -9 -8q-8 0 -8 8q0 9 8 9zM905 495v77h13v-77h-13zM957 495q-10 0 -16.5 5.5t-6.5 13.5q0 31 46 31q0 17 -16 17q-11 0 -19 -4l-4 8
q9 6 23 6q30 0 30 -29v-29v-19h-12l-2 9q-7 -9 -23 -9zM980 534q-31 0 -31 -16q0 -14 12 -14q11 0 19 12v4v14zM1016 495v111h14v-111h-14zM1050 514h18q-3 -8 -16 -38h-10q8 18 8 38zM1117 495v102q14 4 25 4q18 0 29 -9q10 -5 10 -20q0 -16 -8 -24q-12 -12 -31 -12
q-8 0 -12 2v-43h-13zM1130 590v-42h12q25 0 25 22q0 20 -23 20h-14zM1199 495v111h12v-111h-12zM1293 499q-12 -4 -26 -4q-38 0 -38 37q0 17 10 28.5t26 11.5q31 0 31 -34v-8h-53q0 -26 26 -26q12 0 20 4zM1263 562q-20 0 -20 -22h40q0 22 -20 22zM1366 495h-12l-2 9
q-4 -9 -23 -9q-10 0 -16.5 5.5t-6.5 13.5q0 31 46 31q0 17 -15 17q-12 0 -20 -4l-4 8q9 6 24 6q29 0 29 -29v-29v-19zM1352 520v14q-31 0 -31 -16q0 -14 12 -14q15 0 19 12v4zM1432 516q0 -21 -28 -21q-11 0 -21 4l4 11q9 -6 17 -6q14 0 14 10q0 8 -14 14q-19 8 -19 22
q0 22 25 22q12 0 20 -4l-4 -10q-4 4 -16 4t-12 -10q0 -7 14 -14q20 -6 20 -22zM1510 538v-8h-52q0 -26 25 -26q13 0 21 4l4 -9q-12 -4 -28 -4q-36 0 -36 37q0 17 10 28.5t26 11.5q30 0 30 -34zM1458 540h40q0 22 -20 22t-20 -22zM1617 599h14l-38 -104h-16l-34 104h17
l16 -51q5 -23 11 -38q1 6 5.5 19t6.5 19zM1647 601q8 0 8 -9q0 -8 -10 -8q-6 0 -6 8q0 9 8 9zM1639 495v77h14v-77h-14zM1693 504q14 0 14 10q0 8 -14 14q-21 8 -21 22q0 9 7.5 15.5t19.5 6.5q10 0 18 -4l-2 -10q-8 4 -16 4q-14 0 -14 -10q0 -6 16 -14q19 -6 19 -22
q0 -9 -7.5 -15t-19.5 -6q-15 0 -23 4l4 11q12 -6 19 -6zM1744 601q9 0 9 -9q0 -8 -9 -8q-10 0 -10 8q0 9 10 9zM1753 572v-77h-15v77h15zM1811 560h-21v-40q0 -16 10 -16q2 0 5 1t6 1v-9q-5 -2 -15 -2q-7 0 -14 5q-6 6 -6 18v42h-10v12h10v16l14 4v-20h21v-12zM491 267h-28
v16q-13 -18 -34 -18q-33 0 -33 41q0 29 19 50t48 21q10 0 14 -2l10 48h32l-23 -113q-3 -24 -5 -43zM444 289q17 0 23 30l6 30q-4 4 -12 4q-14 0 -24 -13.5t-10 -29.5q0 -21 17 -21zM575 406q0 -19 -19 -19q-16 0 -16 16q0 7 5.5 12.5t12.5 5.5q17 0 17 -15zM569 375
l-21 -108h-33l22 108h32zM640 267l12 60v12q0 12 -10 12q-8 0 -16.5 -9.5t-11.5 -26.5l-10 -48h-29l13 72q1 6 2 18.5t2 17.5h30l-4 -17h2q16 19 38 19q27 0 27 -30q0 -6 -4 -18l-9 -62h-32zM700 313l6 24h56l-4 -24h-58zM823 353q-14 0 -14 -8q0 -6 14 -12q24 -12 24 -29
q0 -39 -50 -39q-19 0 -31 8l8 23q22 -9 25 -9q15 0 15 11q0 6 -13 14q-24 10 -24 27q0 18 13.5 28t34.5 10q19 0 28 -6l-8 -22q-8 4 -22 4zM911 349l-8 -36q0 -1 -1 -6t-1 -7q0 -9 10 -9h9l-4 -24q-5 -2 -19 -2q-28 0 -28 22q0 13 1 21l9 41h-12l2 26h14l6 22l31 8l-5 -30
h22l-5 -26h-21zM1034 267h-27l2 18q-16 -20 -39 -20q-27 0 -27 31q0 3 1 9t1 10l12 60h29l-10 -58q0 -2 -1 -7t-1 -6q0 -15 12 -15q9 0 16.5 10t9.5 26l8 50h34l-14 -71q-1 -6 -3.5 -19.5t-2.5 -17.5zM1157 267h-27l2 16q-14 -18 -36 -18q-14 0 -24 11t-10 30q0 29 19.5 50
t48.5 21q10 0 16 -2l7 48h33l-23 -113q-1 -4 -3 -20t-3 -23zM1109 289q8 0 16 8t11 22l4 30q-4 4 -12 4q-15 0 -23.5 -13t-8.5 -30q0 -21 13 -21zM1243 406q0 -8 -6 -13.5t-14 -5.5q-16 0 -16 16q0 7 5.5 12.5t12.5 5.5t12.5 -4.5t5.5 -10.5zM1235 375l-20 -108h-34l22 108
h32zM1289 265q-20 0 -32 12.5t-12 32.5q0 28 18 47.5t45 19.5q21 0 33.5 -12.5t12.5 -31.5q0 -29 -18.5 -48.5t-46.5 -19.5zM1304 353q-12 0 -19.5 -14t-7.5 -29q0 -21 17 -21q13 0 21 13.5t8 30.5q0 20 -19 20zM1381 265q-19 0 -19 18q0 23 21 23q19 0 19 -21
q0 -9 -6 -14.5t-15 -5.5zM1489 351q-15 0 -25 -11.5t-10 -26.5q0 -11 6.5 -17.5t15.5 -6.5q4 0 12.5 3.5t9.5 3.5v-27q-18 -4 -30 -4q-21 0 -33.5 12t-12.5 33q0 28 19.5 47.5t49.5 19.5q11 0 23 -4l-8 -24q-1 0 -6.5 1t-10.5 1zM1562 265q-22 0 -34 12.5t-12 32.5
q0 28 17.5 47.5t45.5 19.5q21 0 33.5 -12.5t12.5 -31.5q0 -29 -18.5 -48.5t-44.5 -19.5zM1576 353q-13 0 -21 -14t-8 -29q0 -21 17 -21q12 0 19.5 14t7.5 30q0 20 -15 20zM1761 267l9 60q2 2 2 12q0 12 -9 12q-8 0 -16 -10t-11 -24l-8 -50h-31l12 60v12q0 12 -10 12
q-17 0 -27 -36l-7 -48h-30l14 72q1 6 2 18.5t2 17.5h27l-2 -17q16 19 37 19q12 0 18.5 -6t6.5 -13q16 19 38 19q26 0 26 -28q0 -3 -1 -10t-1 -10l-12 -62h-29zM147 659q-59 1 -93 30t-34 72q0 31 13.5 44.5t27.5 13.5q24 0 32.5 -19.5t-4.5 -30.5q0 18 -19 21q-22 3 -29 -19
q-2 -6 -2 -14q0 -36 29.5 -56.5t78.5 -20.5q30 0 51.5 13.5t31.5 37t14 46.5t4 50v26.5t-1.5 28t-5.5 31.5t-10 24.5t-17 20t-26 6.5q-10 0 -10 -24v-67v-2v-112q0 -11 4 -17.5t8 -7.5h5v-9h-94v9q14 0 15 21v189q0 29 -23 29q-9 0 -14.5 -4t-5.5 -9q0 -7 4.5 -10.5
t8.5 -3.5h5q0 -27 -25 -27q-12 0 -19 6.5t-8.5 11.5t-1.5 9q0 19 18.5 30.5t37.5 11.5q18 0 45 -7.5t50 -7.5q121 0 121 -146q0 -67 -41.5 -119t-120.5 -49zM423 734v-9h-93v9q14 0 16 21v100q-1 10 -5 15.5t-7 5.5l-4 1v7l75 14v-139q0 -11 4.5 -17.5t8.5 -7.5h5zM378 968
q12 0 19.5 -8.5t7.5 -19.5q0 -12 -7.5 -21t-19.5 -9t-20 9t-8 21q0 11 8 19.5t20 8.5zM521 877q20 23 50 23q22 0 36.5 -14t14.5 -40v-87q0 -25 16 -25v-9h-94v9q14 0 16 21v98q0 18 -16 19t-22 -17q-1 -4 -1 -9v-87q0 -11 4 -17.5t8 -7.5h4v-9h-93v9q13 0 15 21v100
q-1 10 -4.5 15.5t-6.5 5.5l-4 1v7l77 14v-21zM803 910q0 3 0.5 7t5.5 15t14 19t28.5 15t45.5 7q18 0 35 -4.5t21 -5.5t17 5q6 3 12 3v-63l-8 -2q0 2 -1 5.5t-6 12.5t-13 16t-23 12.5t-34 5.5q-21 0 -34 -13.5t-12 -29t16 -21.5q7 -3 37.5 -11.5t51 -16t38.5 -29t17 -51.5
q-2 -27 -28.5 -44t-75.5 -17q-21 0 -38.5 2.5t-24 4.5t-12 0.5t-9.5 -7.5h-9v66h9q0 -20 25.5 -33t56.5 -13t44.5 15t4 32.5t-33.5 24.5q-3 1 -17 5t-20 6t-18.5 7t-19 9t-16 11t-14.5 14.5t-8.5 18t-3.5 22.5zM1115 890h-3.5t-7 -4.5t-6.5 -12.5v-118q1 -9 5 -14.5t8 -6.5
h4v-9h-25q-15 0 -23.5 1.5t-18.5 13t-10 33.5v98q-1 9 -5.5 14t-8.5 5h-4v8q24 0 46 11.5t32 11.5v-23h17v-8zM1132 890v10h89v-10h-3t-5.5 -5t-3.5 -14v-92q0 -19 10 -24t20 3t10 21v88q0 11 -3.5 17t-7.5 6h-3v10h92v-10h-4.5t-8 -5t-6.5 -14v-116q1 -9 6 -14.5t9 -6.5h4
v-9h-44q-14 0 -24 9.5t-10 18.5q-17 -28 -44 -28q-22 0 -39.5 14.5t-17.5 39.5v88q0 23 -16 23zM1585 686q0 -27 -34 -27q-15 0 -32.5 4t-38.5 22t-26 47q-18 -7 -30 -7q-34 0 -59.5 26t-25.5 62t25.5 61.5t59.5 25.5q4 0 28 -6v79l77 -13v-8h-1q-2 0 -4.5 -1t-4.5 -3
t-4 -6.5t-3 -11.5v-181q3 -71 41 -77q-6 6 -6 14q0 7 6 13t15 6q7 0 12 -6t5 -13zM1424 739q28 0 28 74q0 75 -28 75q-26 0 -26 -75q0 -74 26 -74zM1633 734v-9h-94v9q14 0 16 21v100q-1 10 -5 15.5t-8 5.5l-3 1v7l78 14v-139q0 -11 4 -17.5t8 -7.5h4zM1560 940q0 11 8 19.5
t19 8.5q12 0 20 -8.5t8 -19.5q0 -12 -8 -21t-20 -9q-11 0 -19 9t-8 21zM1806 813q0 -36 -25 -62t-61 -26t-60.5 26t-24.5 62t24.5 60.5t60.5 24.5t61 -24.5t25 -60.5zM1720 739q27 0 27 74q0 37 -5 55t-22 18q-16 0 -20.5 -18t-4.5 -55t4.5 -55.5t20.5 -18.5zM33 289v44h322
v-44h-322zM941 1239h-196l148 187h197zM1809 1239h-185l148 187h37v-187zM355 1239h-196l150 187h196zM1233 1239h-195l150 187h195zM212 1426l-151 -187h-28v187h179zM648 1239h-195l149 187h195zM1528 1239h-197l149 187h194zM893 210h197l-149 -187h-196zM1624 23
l148 187h37v-187h-185zM309 210h196l-150 -187h-196zM1188 210h195l-150 -187h-195zM33 210h179l-151 -187h-28v187zM602 210h195l-149 -187h-195zM1480 210h194l-146 -187h-197z" />
    <glyph glyph-name="colon" unicode=":" horiz-adv-x="259" 
d="M155 996q-39 0 -67 27.5t-28 66.5q0 40 28 67.5t67 27.5t66.5 -27.5t27.5 -67.5q0 -39 -27.5 -66.5t-66.5 -27.5zM155 527q39 0 66.5 -27.5t27.5 -66.5t-27.5 -67t-66.5 -28t-67 28t-28 67t28 66.5t67 27.5z" />
    <glyph glyph-name="semicolon" unicode=";" horiz-adv-x="261" 
d="M155 996q-39 0 -67 27.5t-28 66.5q0 40 28 67.5t67 27.5t66.5 -27.5t27.5 -67.5q0 -39 -27.5 -66.5t-66.5 -27.5zM157 527q39 0 66.5 -28t27.5 -67q0 -63 -29.5 -115.5t-82.5 -65.5q1 1 3 3.5t7.5 10.5t7.5 17.5t4 24.5t-4 31q-39 0 -67 27.5t-28 66.5t28 67t67 28z" />
    <glyph glyph-name="less" unicode="&#x3c;" horiz-adv-x="319" 
d="M309 807l-118 -90l118 -89l-65 -50l-184 139l184 139z" />
    <glyph glyph-name="equal" unicode="=" horiz-adv-x="497" 
d="M487 743h-427v70h427v-70zM487 622h-427v70h427v-70z" />
    <glyph glyph-name="greater" unicode="&#x3e;" horiz-adv-x="320" 
d="M126 856l184 -139l-184 -139l-66 50l119 89l-119 90z" />
    <glyph glyph-name="question" unicode="?" horiz-adv-x="991" 
d="M503 1431q97 0 177.5 -22t135 -58.5t93 -84.5t55.5 -98.5t17 -102.5q0 -82 -25 -145.5t-65.5 -105t-89.5 -77.5t-97.5 -74t-89 -84t-65.5 -118.5t-25 -165.5h-65q0 92 22.5 165.5t58 122t79 89t87 76.5t79 74.5t58 92.5t22.5 121q0 175 -93 264.5t-269 89.5
q-78 0 -139.5 -26t-103.5 -74t-70 -104t-49 -129l-81 102q27 47 65.5 91t92.5 87t128.5 68.5t156.5 25.5zM490 212q41 0 70 -29t29 -70t-29 -70t-70 -29t-70 29t-29 70t29 70t70 29z" />
    <glyph glyph-name="at" unicode="@" horiz-adv-x="1132" 
d="M1122 541q0 159 -71 293.5t-193 213t-267 78.5q-144 0 -266.5 -78.5t-193.5 -213t-71 -293.5t71 -293.5t193.5 -213t266.5 -78.5q177 0 318 117l-47 46q-117 -127 -271 -127q-115 0 -212.5 74t-154.5 200.5t-57 276.5t57 276.5t154.5 200.5t212.5 74t213 -74t155 -201
t57 -276q0 -162 -26 -230t-75 -68q-19 0 -36 24.5t-17 70.5v365q0 38 -4.5 67.5t-20.5 60t-42.5 50t-72.5 32t-108 12.5q-97 0 -175 -38t-119 -122l69 -44q20 83 80.5 133t143.5 50q44 0 76 -11.5t50 -29.5t28.5 -46t13.5 -53.5t3 -60.5v-169q0 -100 -65 -171.5t-176 -71.5
q-95 0 -148.5 46.5t-53.5 135.5q0 67 42.5 111.5t104.5 64.5t125 32t111.5 25t55.5 32q-12 -16 -54.5 -26t-95.5 -14.5t-112.5 -19t-108.5 -37t-81.5 -72t-32.5 -120.5q0 -193 232 -193q181 0 257 167v-84q0 -33 10.5 -56t23 -34t34 -17t33.5 -6.5t32 -0.5q29 0 49 3
t46 12.5t43.5 30.5t34 54.5t24.5 87.5t8 126z" />
    <glyph glyph-name="A" unicode="A" horiz-adv-x="1275" 
d="M1060 1q4 2 8 8.5t2 42t-23 88.5l-114 292h-639l-115 -292q-20 -53 -23.5 -87.5t3.5 -42.5l7 -9h-106q2 1 5.5 3t15 12t22 23.5t25.5 40.5t28 60l507 1293l506 -1293q21 -53 45 -87.5t38 -42.5l13 -9h-205zM303 456h621l-311 793z" />
    <glyph glyph-name="B" unicode="B" horiz-adv-x="1150" 
d="M756 866q201 -31 292.5 -141t91.5 -298q0 -127 -67.5 -225.5t-177.5 -149.5t-241 -51h-594q2 1 4.5 3t10 12t13 23.5t10 40.5t4.5 60v1161q0 33 -4.5 59t-10.5 39t-12 21.5t-11 10.5l-4 2h311q104 0 180.5 -4t151 -15t125 -31t90.5 -51t59.5 -77t20.5 -106
q4 -231 -242 -283zM224 1302v-477q116 53 348 53q143 0 221 63.5t78 209.5q1 131 -115 187.5t-356 56.5h-164q-12 -34 -12 -93zM582 45q63 0 123 13t116.5 42.5t98.5 73t67.5 109t25.5 146.5q0 101 -27 177t-72 122t-112.5 74.5t-139 39t-160.5 10.5q-206 0 -278 -77v-635
q0 -62 13 -95h345z" />
    <glyph glyph-name="C" unicode="C" horiz-adv-x="1258" 
d="M1219 222q-168 -221 -528 -221q-131 0 -245.5 48.5t-200.5 138t-135.5 226t-49.5 302.5q0 168 50 304t139 226.5t212.5 139t271.5 48.5q96 0 175 -16.5t125.5 -39t84 -44t69 -32t61.5 -2.5l-68 -184q-99 162 -199.5 220.5t-289.5 58.5q-65 0 -133.5 -25.5t-135 -80.5
t-119 -132.5t-84.5 -191t-32 -246.5q0 -135 26 -246.5t71.5 -190t109 -132t138 -78.5t159.5 -25q178 0 277 53t170 176z" />
    <glyph glyph-name="D" unicode="D" horiz-adv-x="1144" 
d="M379 1433q162 0 291 -37t215 -101.5t142.5 -156t81.5 -196t25 -226.5q0 -120 -27 -225.5t-85.5 -196t-145 -155.5t-211.5 -101.5t-278 -36.5h-327q2 1 4.5 3t10 12t13 23.5t10 40.5t4.5 60v1161q0 33 -4.5 59t-10.5 39t-12 21.5t-11 10.5l-4 2h319zM349 45
q109 0 199.5 18t157.5 50.5t119 80.5t86 104t56 125.5t31 141t9 154.5q0 117 -17.5 213t-63.5 184t-118.5 148t-189 95.5t-269.5 35.5h-113q-12 -34 -12 -93v-1162q0 -61 12 -95h113z" />
    <glyph glyph-name="E" unicode="E" horiz-adv-x="1014" 
d="M586 700l-5.5 11t-21.5 24.5t-42 30.5t-69.5 24t-101.5 11h-122v-661q0 -63 14 -100h243q96 0 176 8.5t132.5 21.5t93.5 29.5t63 32.5t36 29t18 21l4 9l-41 -190h-903q2 1 4.5 3t10 12t13 23.5t10 40.5t4.5 60v1161q0 53 -10.5 86t-21.5 40l-10 7h903l41 -191
q-1 3 -4 8.5t-18 21t-36 30t-62.5 32t-93.5 30t-132.5 21t-176.5 8.5h-245q-12 -33 -12 -92v-467h122q56 0 101.5 10.5t70 25.5t41 29.5t21.5 25.5l6 10v-236z" />
    <glyph glyph-name="F" unicode="F" horiz-adv-x="1014" 
d="M591 700q-2 4 -6 11t-21.5 24.5t-42 30.5t-70 24t-101.5 11h-126v-661q0 -53 10 -87.5t20 -42.5l11 -9h-205q2 1 4.5 3t10 12t13 23.5t10 40.5t4.5 60v1161q0 53 -10.5 86t-21.5 40l-10 7h903l41 -191q-1 3 -4 8.5t-18 21t-36 30t-62.5 32t-93.5 30t-132.5 21t-176.5 8.5
h-245q-12 -33 -12 -92v-467h126q56 0 101.5 10.5t70 25.5t41.5 29.5t23 25.5l5 10v-236z" />
    <glyph glyph-name="G" unicode="G" horiz-adv-x="1289" 
d="M1064 86q-148 -85 -373 -85q-131 0 -245.5 48.5t-200.5 138t-135.5 226t-49.5 302.5q0 168 50 304t139 226.5t212.5 139t271.5 48.5q96 0 175 -16.5t125.5 -39t84 -44t69 -32t61.5 -2.5l-68 -184q-99 162 -199.5 220.5t-289.5 58.5q-65 0 -133.5 -25.5t-135 -80.5
t-119 -132.5t-84.5 -191t-32 -246.5q0 -135 26 -246.5t71.5 -190t109 -132t138 -78.5t159.5 -25q182 0 301.5 63t123.5 164v206q0 53 -10.5 86t-21.5 40l-10 7h205q-2 -1 -4.5 -2.5t-9.5 -10t-12.5 -21.5t-10 -39t-4.5 -59v-341q0 -53 10 -87.5t20 -42.5l11 -9z" />
    <glyph glyph-name="H" unicode="H" horiz-adv-x="1180" 
d="M224 716v-576q0 -53 10 -87.5t20 -42.5l11 -9h-205q2 1 4.5 3t10 12t13 23.5t10 40.5t4.5 60v1161q0 53 -10.5 86t-21.5 40l-10 7h205q-2 -1 -4.5 -2.5t-9.5 -10t-12.5 -21.5t-10 -39t-4.5 -59v-563h783v562q0 53 -10.5 86t-20.5 40l-11 7h205q-2 -1 -4.5 -2.5t-10 -10
t-13 -21.5t-10 -39t-4.5 -59v-1162q0 -53 10.5 -87.5t21.5 -42.5l10 -9h-205q2 1 4.5 3t10 12t13 23.5t10 40.5t4.5 60v576h-783z" />
    <glyph glyph-name="I" unicode="I" 
d="M60 1q2 1 4.5 3t10 12t13 23.5t10 40.5t4.5 60v1161q0 53 -10.5 86t-21.5 40l-10 7h205q-2 -1 -4.5 -2.5t-9.5 -10t-12.5 -21.5t-10 -39t-4.5 -59v-1162q0 -53 10 -87.5t20 -42.5l11 -9h-205z" />
    <glyph glyph-name="J" unicode="J" horiz-adv-x="727" 
d="M64 146q-17 68 25 94q31 20 62 0q24 -15 24 -47q0 -82 45.5 -122.5t113.5 -40.5q41 0 66.5 4.5t53 21t42.5 48t25 87t10 135.5v4v4v4v3v4v4v4v4v4v3v4v4v4v4v4v4v3v4v4v4v4v4v4v3v4v4v4v4v4v4v4v3v4v4v4v4v4v4v4v4v4v3v4v4v4v4v4v4v4v4v4v4v4v3v4v4v4v4v4v4v4v4v4v4v4v4
v4v4v4v4v4v4v4v4v4v4v4v4v4v4v4v4v4v4v4v4v4v4v4v4v4v4v4v4v4v4v4v4v4v4v4v4v5v4v4v4v4v4v4v4v4v4v5v4v4v4v4v4v4v4v5v4v4v4v4v5v4v4v4v4v5v4v4v4v4v5v4v4v4v5v4v4v5v4v4v4v5v4v4v5v4v4v5v4v5v4v4v5v4v5v4v5v4v5v4v4v5v5v4v5v4v5v4v5v5v4v5v5v4v5v5v4v5v5v5v5v5v4v5v5v5v5v5
v5v6v5v5v5v5v6v5v6v5v6v5v6v6v6v6v6v7v6v7v7v7v8v9v10v13v6q0 53 -10.5 86t-20.5 40l-11 7h201q-23 -20 -30.5 -43.5t-7.5 -87.5v-953q0 -102 -25 -173.5t-71 -108.5t-99 -52.5t-120 -15.5q-39 0 -79.5 7.5t-81.5 23t-71.5 45.5t-40.5 70z" />
    <glyph glyph-name="K" unicode="K" horiz-adv-x="1157" 
d="M224 408v-269q0 -53 10 -87.5t20 -43.5l11 -8h-205q2 1 4.5 3t10 12t13 23.5t10 40.5t4.5 60v1161q0 53 -10.5 86t-21.5 40l-10 7h205q-2 -1 -4.5 -2.5t-9.5 -10t-12.5 -21.5t-10 -39t-4.5 -59v-866l716 865q27 33 37.5 66t6.5 50l-3 17h166q-12 -4 -31.5 -13t-68 -43
t-83.5 -76l-366 -442l405 -720q33 -53 65.5 -87.5t47.5 -43.5l16 -8h-205q29 20 -46 139l-353 636z" />
    <glyph glyph-name="L" unicode="L" horiz-adv-x="1045" 
d="M995 1h-935q2 1 4.5 3t10 12t13 23.5t10 40.5t4.5 60v1161q0 53 -10.5 86t-21.5 40l-10 7h205q-2 -1 -4.5 -2.5t-9.5 -10t-12.5 -21.5t-10 -39t-4.5 -59v-1162q0 -63 14 -100h275q96 0 176 7.5t131.5 18.5t92.5 27t62 29.5t35.5 29t18.5 23t6 14.5z" />
    <glyph glyph-name="M" unicode="M" horiz-adv-x="1463" 
d="M1453 1434q-2 -1 -4.5 -2.5t-10 -10t-13 -21.5t-10 -39t-4.5 -59v-1162q0 -53 10.5 -87.5t20.5 -42.5l11 -9h-205q2 1 4.5 3t9.5 12t12.5 23.5t10 40.5t4.5 60v1196l-564 -1335q-577 1323 -582 1333l-1 -1194q0 -53 10.5 -87.5t21.5 -42.5l10 -9h-106q2 1 4.5 3t9.5 12
t12.5 23.5t10 40.5t4.5 60v1161q0 29 -6 53.5t-14.5 38.5t-17.5 24t-15 13l-6 4h163l542 -1268l541 1268h147z" />
    <glyph glyph-name="N" unicode="N" horiz-adv-x="1127" 
d="M1052 166v1135q0 33 -4 59t-10 39t-12.5 21.5t-10.5 10.5l-4 2h106q-2 0 -4.5 -2t-10 -10.5t-13 -21t-10 -38.5t-4.5 -59l-1 -1301h-22q-905 1345 -916 1361q-5 -27 -5 -60v-1162q0 -53 10.5 -87.5t20.5 -42.5l11 -9h-106q2 1 4.5 3t9.5 12t12.5 23.5t10 40.5t4.5 60
v1161q0 45 -12 78t-24 43l-12 11h163z" />
    <glyph glyph-name="O" unicode="O" horiz-adv-x="1332" 
d="M691 1430q128 0 245 -56.5t201.5 -152t134.5 -228t50 -277.5q0 -194 -84.5 -358t-230 -259.5t-316.5 -95.5t-316.5 95.5t-230 259.5t-84.5 358q0 145 50 277.5t134.5 228t201.5 152t245 56.5zM691 47q137 0 253 90t183.5 245t67.5 337t-67.5 337t-183.5 245t-253 90
t-253 -90t-183.5 -245t-67.5 -337t67.5 -337t183.5 -245t253 -90z" />
    <glyph glyph-name="P" unicode="P" horiz-adv-x="1150" 
d="M653 1433q132 0 242 -51t177.5 -149t67.5 -225q0 -225 -132.5 -338.5t-426.5 -113.5h-357v-423q0 -33 4 -59t10 -39t12.5 -21.5t10.5 -10.5l4 -2h-205q2 1 4.5 2.5t10 10.5t13 22t10 39t4.5 59v1160q0 53 -10.5 87.5t-21.5 42.5l-10 9h593zM520 592q90 0 159 9.5
t134 36.5t107 72t67.5 119.5t25.5 175.5q0 81 -25.5 146.5t-67.5 109t-98.5 73t-116.5 42.5t-124 13h-345q-12 -34 -12 -95v-702h296z" />
    <glyph glyph-name="Q" unicode="Q" horiz-adv-x="1332" 
d="M759 7q34 -7 100.5 -22t107.5 -23t88 -14t73 1t31 27q-15 -57 -52.5 -81.5t-84.5 -21t-108 21t-116 40.5t-116 40.5t-102 17.5q-9 0 -28 -3.5t-52 -17.5t-55 -35q26 36 53.5 54t69.5 25q-219 49 -363.5 245.5t-144.5 454.5q0 145 50 277.5t134.5 228t201.5 152t245 56.5
t245 -56.5t201.5 -152t134.5 -228t50 -277.5q0 -181 -74.5 -337t-203.5 -254.5t-285 -117.5zM187 719q0 -182 67.5 -337t183.5 -245t253 -90t253 90t183.5 245t67.5 337t-67.5 337t-183.5 245t-253 90t-253 -90t-183.5 -245t-67.5 -337z" />
    <glyph glyph-name="R" unicode="R" horiz-adv-x="1150" 
d="M962 140q32 -53 64 -87.5t48 -42.5l15 -9h-205q29 20 -43 139l-255 416h-362v-423q0 -33 4 -59t10 -39t12.5 -21.5t10.5 -10.5l4 -2h-205q2 1 4.5 2.5t10 10.5t13 22t10 39t4.5 59v1160q0 53 -10.5 87.5t-21.5 42.5l-10 9h593q132 0 242 -51t177.5 -149t67.5 -225
q0 -200 -103.5 -311.5t-331.5 -134.5zM519 592q90 0 159 9.5t134.5 36.5t107.5 72t67.5 119.5t25.5 175.5q0 81 -25.5 146.5t-67.5 109t-98.5 73t-116.5 42.5t-124 13h-345q-12 -34 -12 -95v-702h295z" />
    <glyph glyph-name="S" unicode="S" horiz-adv-x="1160" 
d="M990 388q0 67 -29.5 118t-79 83.5t-114 57.5t-135.5 46t-142 43t-135.5 53.5t-114 72.5t-79 105.5t-29.5 146.5q0 23 8.5 55.5t38 80.5t76.5 87t135 67.5t201 28.5q70 0 142 -10.5t124 -26t94 -31t63 -25.5l22 -11l-40 -220q-1 6 -4 16.5t-16 40t-30.5 57t-51.5 60.5
t-75.5 56.5t-105 40t-137.5 16.5q-44 0 -86.5 -8.5t-84.5 -29.5t-74 -52t-52 -80.5t-20 -110.5q0 -64 30.5 -113t82 -81t118.5 -57t141 -46t147.5 -43t140.5 -53t118.5 -71.5t82 -103t30.5 -142.5q0 -405 -568 -405q-99 0 -185.5 20t-141 48t-99 64t-64.5 61t-32 47l85 138
q7 -25 23 -60.5t53 -87t83.5 -93.5t120.5 -72t158 -30q203 0 305 93.5t102 259.5z" />
    <glyph glyph-name="T" unicode="T" horiz-adv-x="1140" 
d="M1089 1434l41 -191q-1 3 -3.5 8t-16 19.5t-32 28t-55 30.5t-82 30t-116 23t-153.5 12q-14 -37 -14 -100v-1162q0 -33 4 -59t10 -39t12.5 -21t10.5 -10l4 -2h-205q2 1 4.5 2.5t10 10t13 21.5t10 39t4.5 59v1161q0 61 -15 100q-84 -2 -154.5 -11.5t-116.5 -23t-82.5 -29.5
t-56 -31t-32 -28t-15.5 -21l-4 -7l41 191h988z" />
    <glyph glyph-name="U" unicode="U" horiz-adv-x="1101" 
d="M102 475v819q0 53 -10.5 88t-21.5 44l-10 8h205q-2 -1 -4.5 -3t-9.5 -12t-12.5 -24t-10 -41t-4.5 -60v0v0v0v0v0v0v0v0v0v0v0v0v0v0v0v0v0v0v0v0v0v0v0v0v0v0v0v0v0v0v0v0v0v0v0v1v0v0v0v0v0v0v0v0v0v0v0v0v0v0v0v-1v0v0v0v0v0v0v0v0v0v0v0v0v0v0v0v0v0v0v0v0v0v0v0v-1v0
v0v0v0v0v0v0v0v0v0v0v-1v0v0v0v0v0v0v0v-1v0v0v0v0v0v0v-1v0v0v0v0v0v-1v0v0v0v0v-1v0v0v0v0v-1v0v0v0v0v-1v0v0v0v-1v0v0v0v-1v0v0v0v-1v0v0v0v-1v0v0v0v-1v0v0v0v-1v0v0v-1v0v0v-1v0v0v-1v0v0v-1v0v0v-1v0v0v-1v0v0v-1v0v0v-1v0v0v-1v0v-1v0v0v-1v0v0v-1v0v-1v0v-1v0v0v-1
v0v-1v0v-1v0v-1v0v-1v0v-1v0v-1v0v-1v0v-1v0v-1v0v-1v0v-1v0v-1v0v-1v0v-1v0v-1v0v-1v0v-1v0v-1v0v-1v0v-1v0v-1v0v-1v0v-1v0v-1v0v-1v0v-1v0v-1v0v-1v0v-1v0v-1v0v-1v0v-1v0v-1v0v-1v0v-1v-1v0v-1v0v-1v0v-1v0v-1v-1v0v-1v0v-1v-1v0v-1v0v-1v-1v0v-1v-1v0v-1v0v-1v-1v0v-1
v-1v0v-1v-1v0v-1v-1v0v-1v-1v-1v0v-1v-1v0v-1v-1v-1v0v-1v-1v-1v0v-1v-1v-1v-1v0v-1v-1v-1v-1v0v-1v-1v-1v-1v-1v0v-1v-1v-1v-1v-1v-1v-1v0v-1v-1v-1v-1v-1v-1v-1v-1v-1v-1v-1v-1v-1v-1v-1v-1v-1v-1v-1v-1v-1v-1v-1v-1v-1v-1v-1v-1v-1v-1v-1v-1v-1v-1v-1v-1v-1v-1v-1v-1v-1
v-1v-1v-1v-1v-1v-1v-1v-1v-1v-1v-1v-1v-1v-1v-1v-1v-1v-1v-1v-1v-1v-1v-1v-1v-1v-1v-1v-1v-1v-1v-1v-1v-1v-1v-1v-1v-1v-1v-1v-1v-1v-1v-1v-1v-1v-1v-1v-1v-1v-1v-1v-1v-1v-1v-1v-1v-1v-1v-1v-1v-1v-1v-1v-1v-1v-1v-1v-1v-1v-1v-1v-1v-1v-1v-1v-1v-1v-1v-1v-1v-1v-1v-1v-1
v-1v-1v-1v-1v-1v-1v-1v-1v-1v-1v-1v-1v-1v-1v-1v-1v-1v-1v-1v-1v-1v-1v-1v-1v-1v-1v-1v-1v-1v-1v-1v-1v-1v-1v-1v-1v-1v-1v-1v-1v-1v-1v-1v-1v-1v-1v-1v-1v-1v-1v-1v-1v-1v-1v-1v-1v-1v-1v-1v-1v-1v-1v-1v-1v-1v-1v-1v-1v-1v-1v-1v-1v-1v-1v-1v-1v-1v-1v-1v-1v-1v-1v-1v-1
v-1v-1v-1v-1v-1v-1v-1v-1v-1v-1v-1v-1v-1v-1v-1v-1v-1v-1v-1v-1v-1v-1v-1v-1v-1v-1v-1v-1v-1v-1v-1v-1v-1v-1v-1v-1v-1v-1v-1v-1v-1v-1v-1v-1v-1v-1v-1v-1v-1v-1v-1v-1v-1v-1v-1v-1v-1v-1v-1v-1v-1v-1v-1v-1v-1v-1v-1v-1v-1v-1v-1v-1v-1v-1v-1v-1v-1v-1v-1v-1v-1v-1v-1v-1
v-1v-1v-1v-1v-1v-1v-1v-1v-1v-1v-1v-1v-1v-1v-1v-1v-1v-1v-1v-1v-1v-1v-1v-1v-1v-1v-1v-1v-1v-1v-1v-1v-1v-1v-1v-1v-1v-1v-1v-1v-1v-1v-1v-1v-1v-1v-1v-1v-1v-1v-1v-1v-1v-1v-1v-1v-1v-1v-1v-1v-1v-1v-1v-1v-1v-1v-1v-1v-1v-1v-1v-1v-1v-1v-1v-1v-1v-1v-1v-1v-1v-1v-1v-1
v-1v-1v-1v-1v-1v-1v-1v-1v-1v-1v-1v-1v-1v-1v-1v-1v-1v-1v-1v-1v-1v-1v-1v-1v-1v-1v-1v-1v-1v-1v-1v-1v-1v-1v-1v-1v-1v-1v-1v-1v-1v-1v-1v-1v-1v-1v-1v-1v-1v-1v-1v-1v-1v-1v-1v-1v-1v-1v-1v-1v-1v-1v-1v-1v-1v-1v-1v-1v-1v-1v-1v-1v-1v-1v-1v-1v-1v-1v-1v-1v-1v-1v-1v-1
v-1v-1v-1v-1v-1v-1v-1v-1v-1v-1v-1v-1v-1v-1v-1v-1v-1v-1v-1v-1v-1v-1v-1v-1v-1v-1v-1v-1v-1v-1v-1v-1v-1v-1v-1v-1v-1v-1v-1v-1v-1v-1v-1v-1v-1v-1v-1v-1v-1v-1v-1v-1v-1v-1v-1v-1v-1v-1v-1v-1v-1v-1v-1v-1v-1v-1v-1v-1v-1v-1v-1v-1v-1v-1v-1v-1v-1v-1v-1v-1v-1v-1v-1v-1
v-1v-1v-1v-1v-1v-1v-1v-1v-1v-1v-1v-1v-1v-1v-1v-1v-1v-1v-1v-1v-1v-1v-1v-1v-1v-1v-1v-1v-1v-1v-1v-1v-1v-1v-1v-1v-1v-1v-1v-1v-1v-1v-1v-1v-1v-1v-1v-1v-1v-1v-1v-1v-1v-1v-1v-1v-1v-1v-1v-1v-1v-1v-1v-1v-1v-1v-1v-1v-1v-1v-1v-1v-1v-1v-1v-1v-1v-1v-1v-1v-1v-1v-1v-1
v-1v-1v-1v-1v-1v-1v-1v-1v-1v-1v-1v-1v-1v-1v-1v-1v-1v-1v-1v-1v-1v-10q0 -217 100 -342.5t302 -125.5q94 0 165.5 26.5t125.5 84t81.5 155t27.5 233.5v754q0 33 -4 59t-10 39.5t-12.5 22t-10.5 10.5l-4 2h106q-2 -1 -4.5 -2.5t-10 -10t-13 -21.5t-10 -39t-4.5 -59v-767
q-1 -286 -101 -410.5t-322 -124.5q-518 0 -524 475z" />
    <glyph glyph-name="V" unicode="V" horiz-adv-x="1275" 
d="M663 1l-507 1293q-13 33 -27.5 60t-26 41t-21.5 23.5t-15 12.5l-6 3h205l-3 -3t-5.5 -12t-3.5 -24t6 -41t19 -60l434 -1109l434 1109q21 53 24 88t-4 44l-7 8h106q-5 -2 -14.5 -9t-35 -42.5t-46.5 -88.5z" />
    <glyph glyph-name="W" unicode="W" horiz-adv-x="1986" 
d="M1018 908l-355 -907l-506 1293q-13 33 -28 60t-26.5 41t-21.5 23.5t-15 12.5l-6 3h205l-3 -3t-5.5 -12t-3.5 -24t6 -41t19 -60l434 -1109l295 752l-140 357q-21 53 -45 88t-38 44l-13 8h205q-4 -2 -8 -9t-2 -42.5t23 -88.5l434 -1109l434 1109q20 53 23.5 88t-3.5 44
l-7 8h106q-2 -1 -5.5 -3t-15 -12t-22 -24t-25.5 -41t-28 -60l-507 -1293z" />
    <glyph glyph-name="X" unicode="X" horiz-adv-x="1147" 
d="M572 661l-385 633q-32 53 -64 88t-47 44l-16 8h205q-3 -2 -6 -9t7.5 -42.5t42.5 -88.5l324 -533l328 540q32 53 42 86t4 40l-6 7h105q-2 -1 -5.5 -2.5t-16 -10t-26 -21.5t-33.5 -39t-40 -59l-341 -560l371 -609q32 -53 62.5 -86t44.5 -39l15 -7h-205q34 12 -38 132
l-311 509l-305 -502q-32 -53 -43 -87.5t-5 -42.5l5 -9h-106q6 2 17 8.5t44 42t65 88.5z" />
    <glyph glyph-name="Y" unicode="Y" horiz-adv-x="1212" 
d="M572 662l-385 632q-32 53 -64 88t-47 44l-16 8h205q-3 -2 -6 -9t7.5 -42.5t42.5 -88.5l372 -611l376 618q32 53 41.5 86t3.5 40l-6 7h106q-2 -1 -5.5 -2.5t-16 -10t-26 -21.5t-34 -39t-40.5 -59l-387 -636v-534q0 -53 10.5 -85.5t20.5 -38.5l11 -7h-205q2 1 4.5 2.5
t10 10t13 21.5t10 39t4.5 59v529z" />
    <glyph glyph-name="Z" unicode="Z" horiz-adv-x="1110" 
d="M124 1434h976l-6 -3t-17 -12t-26.5 -24t-33.5 -41t-39 -60q-714 -1234 -719 -1254h262q96 0 176 7.5t131.5 18.5t92.5 27t62 29.5t35.5 29t18.5 23t6 14.5v2v-2l-40 -188h-943q2 1 6 2.5t16 10t25 21.5t33 39t39 60q716 1239 721 1260h-293q-96 0 -176 -7.5t-132 -18.5
t-93 -27t-62 -29.5t-35.5 -29t-18.5 -23t-6 -14.5v-2v2z" />
    <glyph glyph-name="bracketleft" unicode="[" horiz-adv-x="495" 
d="M415 1394q-41 0 -74 -9.5t-56.5 -24.5t-41 -42t-28.5 -53.5t-18 -68t-10 -77t-3.5 -89.5t0.5 -95t2 -104.5t1 -108.5t-1 -108.5t-2 -104.5t0 -95t3.5 -89t9.5 -77.5t18 -68.5t29 -53t41.5 -42t56.5 -24.5t74 -9.5h69v-44h-73q-73 0 -129 21t-93 50t-62.5 88t-38.5 107
t-20 136t-8 146.5t-1 165.5q0 80 0.5 129t4.5 119t10.5 113t19 98t30.5 88t45 68.5t61.5 54.5t81.5 31.5t104 12.5h68v-40h-70z" />
    <glyph glyph-name="backslash" unicode="\" horiz-adv-x="660" 
d="M178 1437l472 -1437h-118l-472 1437h118z" />
    <glyph glyph-name="bracketright" unicode="]" horiz-adv-x="495" 
d="M128 1434q57 0 104 -12.5t81.5 -31.5t61.5 -54.5t45 -68.5t30.5 -88t19 -98t10.5 -113t4.5 -119t0.5 -129q0 -107 -1 -165.5t-8 -146.5t-20 -136t-38.5 -107t-62.5 -88t-93 -50t-129 -21h-73v44h69q41 0 74 9.5t56.5 24.5t41.5 42t29 53t18 68.5t9.5 77.5t3.5 89t0 95
t-2 104.5t-1 108.5q0 51 2 148q5 113 0 208.5t-23 166t-69 110t-138 39.5h-70v40h68z" />
    <glyph glyph-name="asciicircum" unicode="^" horiz-adv-x="357" 
d="M203 1690l144 -290h-85l-58 203l-59 -203h-85z" />
    <glyph glyph-name="underscore" unicode="_" horiz-adv-x="716" 
d="M60 81h646l-1 -83h-644z" />
    <glyph glyph-name="grave" unicode="`" horiz-adv-x="238" 
d="M163 1683l65 -117h-37l-131 117h103z" />
    <glyph glyph-name="a" unicode="a" horiz-adv-x="1051" 
d="M878 445v271q0 39 -2 69.5t-9 65t-18.5 60.5t-32 51t-48 41t-67 25.5t-89.5 9.5q-130 0 -224.5 -80t-125.5 -213l-107 71q64 134 185.5 194.5t272.5 60.5q98 0 169.5 -20t112.5 -51.5t65.5 -79.5t32 -95t7.5 -108v-585q0 -53 10.5 -86t20.5 -40l10 -6q-38 0 -63 4
t-50 16.5t-37.5 41t-12.5 71.5v134q-118 -267 -401 -267q-94 0 -169 22t-120 55t-75 76t-41.5 81.5t-11.5 74.5q0 87 31.5 153.5t83.5 106t119.5 67.5t139.5 41t144 23.5t131 17t103.5 20t59.5 33.5q-7 -20 -41.5 -35.5t-83.5 -25t-110 -23t-123 -27.5t-121 -40.5
t-105 -60.5t-73.5 -88.5t-27.5 -123.5q0 -142 84 -216t232 -74q116 0 203 55.5t129.5 142.5t42.5 190z" />
    <glyph glyph-name="b" unicode="b" horiz-adv-x="1087" 
d="M223 1530l1 -1103q0 -173 90 -279t268 -106q53 0 103.5 16.5t99 54t85 93t58.5 140.5t22 189q0 141 -34.5 246t-91.5 158t-127 78.5t-143.5 13t-138.5 -44.5t-114.5 -89.5t-69.5 -125.5q-1 128 114 216q110 85 264 90q178 5 302 -103q166 -143 166 -436
q0 -244 -139.5 -391t-365.5 -147q-115 0 -206 45t-142 123v-50q0 -69 -38.5 -93.5t-125.5 -24.5q2 1 4.5 2.5t10 10.5t13 22t10 39t4.5 59v1194q0 53 -10.5 88t-21.5 43l-10 9z" />
    <glyph glyph-name="c" unicode="c" horiz-adv-x="1006" 
d="M965 281q-22 -78 -65 -135t-98 -88t-111.5 -45t-116.5 -14q-143 0 -258.5 62.5t-185.5 186t-70 286.5q0 145 69 268.5t187.5 195t257.5 71.5q136 0 254.5 -56t167.5 -141l-80 -103q-38 128 -130.5 191.5t-211.5 63.5q-105 0 -194.5 -65t-141.5 -176.5t-52 -243.5
q0 -126 38 -224t100 -152.5t138.5 -85.5t156.5 -25.5t150 30.5t123 78t73 121z" />
    <glyph glyph-name="d" unicode="d" horiz-adv-x="1087" 
d="M914 425v1105l163 -63q-2 -1 -4.5 -3t-10 -12t-13 -24t-10 -41t-4.5 -60v-1194q0 -53 10.5 -86t20.5 -40l11 -7q-87 0 -125.5 24.5t-38.5 93.5v50q-51 -78 -142 -123t-205 -45q-226 0 -366 147t-140 391q0 275 162 430q121 116 288 128q155 11 267 -72q122 -91 129 -253
q-27 130 -143 210q-114 78 -246 63q-151 -17 -240 -149q-90 -134 -90 -360q0 -104 22 -189t58.5 -140.5t85 -93t99.5 -54t104 -16.5q89 0 159.5 32.5t112.5 87.5t64 122t22 141z" />
    <glyph glyph-name="e" unicode="e" horiz-adv-x="1083" 
d="M186 559q2 -182 84 -303t201 -157t240.5 -27t215.5 75t114 161q-13 -123 -134 -216t-285 -93q-125 0 -232 45.5t-178.5 121.5t-111.5 177t-40 211q0 108 42 204.5t113 164.5t167.5 107.5t201.5 39.5q109 0 196 -27.5t154 -85.5t103 -155.5t36 -229.5h-887v-13zM584 1024
q-154 0 -269 -119.5t-128 -301.5h772q0 190 -94 305.5t-281 115.5z" />
    <glyph glyph-name="f" unicode="f" horiz-adv-x="579" 
d="M203 1070q0 163 89 264t246 101q86 0 147 -28.5t83 -79.5q17 -37 -23 -56q-38 -18 -72 -2q-17 9 -24 25q-39 96 -127 101q-22 1 -45 -4.5t-51.5 -26t-50 -54.5t-36.5 -96t-15 -144h244v-39h-244v-899q0 -33 4.5 -59t10.5 -39t12 -21.5t11 -10.5l4 -2h-205q2 1 4.5 2.5
t10 10.5t13 22t10 39t4.5 59v898h-143v39h143z" />
    <glyph glyph-name="g" unicode="g" horiz-adv-x="997" 
d="M331 102q39 0 84 -5.5t107 -25.5t110 -51.5t82 -90t34 -135.5q0 -160 -136.5 -255t-371.5 -95q-278 0 -407 138q-84 89 -78 199q5 90 64 134q55 42 131 16q-42 -10 -65 -76q-32 -90 3 -183q49 -130 210 -172q66 -17 148 -17q166 0 267 83t101 220q0 133 -94 207t-236 70
q-72 -2 -147.5 -26t-142.5 -47t-120 -23q-56 0 -91 31t-35 76q0 46 34 79t80.5 47t97.5 15q-88 66 -139 166t-51 216q0 195 134.5 334t322.5 139q129 0 243 -74q73 160 207 120q47 -14 44 -56q-2 -34 -32 -50q-25 -13 -51 1q-27 15 -52.5 20.5t-55 -4t-49.5 -40.5
q92 -64 145.5 -167t53.5 -223q0 -128 -60.5 -237t-165 -172t-227.5 -63q-138 0 -255 80q-35 -3 -65.5 -13.5t-53 -32.5t-22.5 -53q0 -29 19 -50t58 -21q60 0 194 33.5t229 33.5zM-108 602q0 -117 44 -217t121 -159.5t170 -59.5q140 0 235.5 125t95.5 303q0 117 -43 217
t-119.5 159.5t-168.5 59.5q-141 0 -238 -125t-97 -303z" />
    <glyph glyph-name="h" unicode="h" horiz-adv-x="980" 
d="M223 1530l1 -1412q0 -69 -38.5 -93.5t-125.5 -24.5q2 1 4.5 2.5t10 10.5t13 22t10 39t4.5 59v1194q0 53 -10.5 88t-21.5 43l-10 9zM765 0q5 2 11.5 7.5t18 39t11.5 86.5v636q0 56 -16.5 103t-45 78t-65.5 52t-80 26t-87.5 0.5t-87.5 -25.5t-80.5 -51.5t-67 -77.5
t-45.5 -103q13 92 58.5 159t108 98t135 41.5t142 -8.5t126.5 -52.5t92 -91.5t35 -125v-660q0 -33 4.5 -59t10.5 -39t12 -21.5t11 -10.5l4 -2h-205z" />
    <glyph glyph-name="i" unicode="i" horiz-adv-x="285" 
d="M161 1342q42 0 71.5 -30t29.5 -72q0 -41 -29.5 -70.5t-71.5 -29.5q-41 0 -71 29.5t-30 70.5q0 42 30 72t71 30zM70 0q2 1 4.5 2.5t10 10.5t13 22t10 39t4.5 59v736q0 53 -10.5 87.5t-21.5 43.5l-10 8l163 63l1 -939q0 -33 4 -59t10 -39t12.5 -21.5t10.5 -10.5l4 -2h-205z
" />
    <glyph glyph-name="j" unicode="j" horiz-adv-x="285" 
d="M12 1342q42 0 71.5 -30t29.5 -72q0 -41 -29.5 -70.5t-71.5 -29.5t-71.5 29.5t-29.5 70.5q0 42 29.5 72t71.5 30zM83 1071l1 -1126q0 -64 -17 -112t-44 -72.5t-53.5 -35.5t-51.5 -11q-57 0 -98.5 26t-59.5 65q7 -3 15 -6t29.5 -8.5t40 -6t41 7t38.5 23.5t27 49.5t11 81.5
v923q0 53 -10 87.5t-20 43.5l-11 8z" />
    <glyph glyph-name="k" unicode="k" horiz-adv-x="973" 
d="M224 368l520 568q30 33 43 66t11 50l-1 17h166q-12 -4 -32.5 -13t-72.5 -43t-90 -76l-283 -309l325 -496q35 -53 67 -86t47 -40l14 -6h-205q33 14 -45 133l-274 418l-190 -208v-211q0 -33 4 -59t10 -39t12.5 -21.5t10.5 -10.5l4 -2h-205q2 1 4.5 2.5t10 10.5t13 22t10 39
t4.5 59v1194q0 53 -10.5 88t-21.5 43l-10 9l163 63z" />
    <glyph glyph-name="l" unicode="l" 
d="M102 1327q0 53 -10.5 88t-21.5 43l-10 9l163 63l1 -1398q0 -33 4 -59t10 -39t12.5 -21.5t10.5 -10.5l4 -2h-205q2 1 4.5 2.5t10 10.5t13 22t10 39t4.5 59v1194z" />
    <glyph glyph-name="m" unicode="m" horiz-adv-x="1449" 
d="M224 1070v-952q0 -69 -38.5 -93.5t-125.5 -24.5q2 1 4.5 2.5t10 10.5t13 22t10 39t4.5 59v734q0 34 -4 60.5t-10.5 41t-12.5 23.5t-10 12l-4 3zM1234 0q2 1 4.5 2.5t10 10.5t13 22t10 39t4.5 59v684q0 126 -89 178q-78 46 -176 12q-104 -37 -160 -141q-23 -44 -33 -95
q8 182 132 258q99 61 224 32q116 -27 179 -114q44 -63 44 -140l1 -675q0 -33 4 -59t10 -39t12.5 -21.5t10.5 -10.5l4 -2h-205zM647 0q2 1 4.5 2.5t10 10.5t13 22t10 39t4.5 59v684q0 126 -89 178q-78 46 -176 12q-104 -37 -160 -141q-23 -44 -33 -95q7 182 132 258
q98 60 222 32q117 -26 179 -113q46 -63 46 -141v-675q0 -33 4.5 -59t10.5 -39t12 -21.5t11 -10.5l4 -2h-205z" />
    <glyph glyph-name="n" unicode="n" horiz-adv-x="980" 
d="M60 1007l164 63v-952q0 -69 -38.5 -93.5t-125.5 -24.5q2 1 4.5 2.5t10 10.5t13 22t10 39t4.5 59v734q0 53 -10.5 88t-21.5 43zM765 0q5 2 11.5 7.5t18 39t11.5 86.5v636q0 56 -16.5 103t-45 78t-65.5 52t-80 26t-87.5 0.5t-87.5 -25.5t-80.5 -51.5t-67 -77.5t-45.5 -103
q13 92 58.5 159t108 98t135 41.5t142 -8.5t126.5 -52.5t92 -91.5t35 -125v-660q0 -33 4.5 -59t10.5 -39t12 -21.5t11 -10.5l4 -2h-205z" />
    <glyph glyph-name="o" unicode="o" horiz-adv-x="1098" 
d="M574 1070q105 0 200 -42.5t164 -114.5t109.5 -171t40.5 -208t-40.5 -208t-109.5 -170.5t-164 -114t-200 -42.5t-200 42.5t-164 114t-109.5 170.5t-40.5 208t40.5 208t109.5 171t164 114.5t200 42.5zM574 45q105 0 194.5 67t141.5 181t52 246t-52 243.5t-141.5 176.5
t-194.5 65t-194.5 -65t-141.5 -176.5t-52 -243.5t52 -246t141.5 -181t194.5 -67z" />
    <glyph glyph-name="p" unicode="p" horiz-adv-x="1087" 
d="M223 1069l1 -643q0 -59 13 -114t41.5 -104t69.5 -86t101 -58.5t132 -21.5q53 0 104 16.5t99.5 54t85 93t58.5 140.5t22 189q0 141 -34.5 246t-91.5 158t-127 78.5t-143.5 13t-138.5 -44.5t-114.5 -89.5t-69.5 -125.5q-1 128 114 216q110 85 264 90q178 5 302 -103
q166 -143 166 -436q0 -244 -140 -391t-366 -147q-114 0 -205 45t-142 123v-497q0 -33 4 -59t10 -39t12.5 -21t10.5 -10l4 -2h-205q2 1 4.5 2.5t10 10t13 21.5t10 39t4.5 59v1195q0 53 -10.5 87.5t-21.5 43.5l-10 8z" />
    <glyph glyph-name="q" unicode="q" horiz-adv-x="1087" 
d="M914 420v649l163 -63q-2 -1 -4.5 -3t-10 -12t-13 -23.5t-10 -40.5t-4.5 -60v-1195q0 -37 4.5 -64t10.5 -39.5t12 -19.5t10 -8l5 -1q-7 -1 -18 -1.5t-39 4t-50 16t-39.5 40.5t-17.5 72l1 497q-52 -78 -143 -123t-205 -45q-230 0 -368 134t-138 375q0 302 176 451
q127 107 303 104q153 -3 260 -86q108 -83 107 -207q-34 119 -150 190q-119 75 -252 55q-153 -22 -238 -164q-79 -132 -79 -346q0 -87 15.5 -159t43 -121.5t62.5 -86t77 -57.5t84 -30.5t87 -9.5q89 0 159.5 32t112.5 86t64 120.5t22 139.5z" />
    <glyph glyph-name="r" unicode="r" horiz-adv-x="872" 
d="M229 771q3 70 28.5 126t66 91.5t92.5 56.5t106.5 24t109.5 -9.5t101 -39t80.5 -70t48.5 -98.5l-108 -26q-19 69 -62.5 114.5t-96 62t-112 9.5t-110.5 -36t-90.5 -82.5t-53.5 -122.5zM60 0q2 1 4.5 2.5t10 10.5t13 22t10 39t4.5 59v736q0 53 -10.5 87.5t-21.5 43.5l-10 8
l163 63l1 -939q0 -33 4 -59t10 -39t12.5 -21.5t10.5 -10.5l4 -2h-205z" />
    <glyph glyph-name="s" unicode="s" horiz-adv-x="1036" 
d="M867 283q0 60 -41.5 100t-108 61.5t-146.5 38t-160 37t-146.5 51t-108 88.5t-41.5 141q0 13 2 28.5t11 43t25 52t47.5 52.5t74 47.5t110 32.5t149.5 13q112 0 210.5 -22.5t141.5 -44.5l42 -22l-39 -164q0 5 -1 13t-8.5 31.5t-20.5 44.5t-41 47t-65.5 44.5t-98.5 31.5
t-135 13q-112 0 -194.5 -64t-82.5 -176q0 -60 43 -101.5t112.5 -63t153 -38.5t167 -37t153 -48t112.5 -81t43 -128q0 -140 -119 -222t-370 -82q-99 0 -181 15.5t-128.5 34t-87 49t-52.5 44t-28 35.5l85 103q6 -16 11.5 -29.5t21.5 -41.5t35 -50t51 -48t69 -44t91 -30
t115 -12q79 0 140.5 19.5t95.5 47.5t56 65t29 67t7 58z" />
    <glyph glyph-name="t" unicode="t" horiz-adv-x="511" 
d="M326 1070h175v-34h-175l1 -880q-1 -31 10.5 -51.5t29 -26t36 -4t33.5 11t20 22.5q0 -48 -35 -78t-85 -30q-16 0 -34.5 6t-42 21t-39 49t-15.5 81v879h-145v34h145v79q0 53 -10.5 87.5t-20.5 43.5l-11 8l163 63v-281z" />
    <glyph glyph-name="u" unicode="u" horiz-adv-x="980" 
d="M224 303q0 -56 16.5 -103t45 -78t65.5 -52t80 -26t87.5 -0.5t88 25.5t80.5 51.5t67 77.5t46 103q-14 -92 -59.5 -159t-108 -98t-135 -41.5t-142 8.5t-126.5 52.5t-92 91.5t-35 125v596q0 33 -4.5 59t-10.5 39t-12 21.5t-11 10.5l-4 2l164 64v-133v-636zM765 0
q2 1 4.5 2.5t10 10.5t13 22t10 39t4.5 59v736q0 53 -10.5 87.5t-20.5 43.5l-11 8l163 63l1 -939q0 -53 10.5 -86t20.5 -40l10 -6h-205z" />
    <glyph glyph-name="v" unicode="v" horiz-adv-x="992" 
d="M521 0l-364 930q-13 33 -28 60t-26.5 41t-21.5 23.5t-15 12.5l-6 3h205l-3 -3t-5.5 -12t-3.5 -24t6 -41t19 -60l292 -746l293 746q20 53 23.5 88t-3.5 44l-7 8h106q-2 -1 -5.5 -3t-15 -12t-22.5 -24t-26 -41t-28 -60z" />
    <glyph glyph-name="w" unicode="w" horiz-adv-x="1531" 
d="M790 688l-269 -688l-365 930q-13 33 -27.5 60t-26 41t-21.5 23.5t-15 12.5l-6 3h205l-3 -3t-5.5 -12t-3.5 -24t6 -41t19 -60l292 -746l209 533l-83 213q-13 33 -28 60t-26.5 41t-21.5 23.5t-16 12.5l-5 3h205l-3 -3t-5.5 -12t-3.5 -24t6 -41t19 -60l292 -746l293 746
q20 53 23.5 88t-3.5 44l-7 8h106q-2 -1 -5.5 -3t-15 -12t-22 -24t-25.5 -41t-28 -60l-365 -930z" />
    <glyph glyph-name="x" unicode="x" horiz-adv-x="981" 
d="M483 491l-289 439q-35 53 -68.5 88t-49.5 44l-16 8h205q-3 -2 -5.5 -9t9.5 -42.5t47 -88.5l231 -351l259 358q39 53 52.5 86t7.5 40l-5 7h106q-6 -1 -16.5 -6.5t-46.5 -39t-74 -86.5l-272 -375l283 -430q35 -53 67.5 -86t47.5 -40l15 -7h-205q33 13 -46 132l-226 343
l-243 -336q-39 -53 -54 -87.5t-11 -43.5l5 -8h-106q6 2 18 8.5t49.5 42t75.5 88.5z" />
    <glyph glyph-name="y" unicode="y" horiz-adv-x="939" 
d="M224 303q0 -56 16.5 -103t45 -78t65.5 -52t80 -26t87.5 -0.5t88 25.5t80.5 51.5t67 77.5t46 103q-14 -92 -59.5 -159t-108 -98t-135 -41.5t-142 8.5t-126.5 52.5t-92 91.5t-35 125v596q0 33 -4.5 59t-10.5 39t-12 21.5t-11 10.5l-4 2l164 64v-769zM928 1071l1 -968
q0 -44 -1 -73.5t-5 -75t-12 -77t-23 -71t-36 -67t-53.5 -56t-73.5 -45t-97 -27.5t-124 -11q-84 0 -155 29.5t-115 76t-68.5 100t-24.5 105.5q1 -5 4 -14.5t15.5 -35.5t28.5 -50t46 -53.5t65.5 -50.5t89.5 -35.5t116 -14.5q49 0 89.5 11t70 27t52.5 44t37.5 52.5t25 62
t15.5 63.5t7.5 66.5t3 60.5t0.5 56v4v767q0 33 -4.5 59t-10.5 40t-12.5 23t-10.5 12l-4 3z" />
    <glyph glyph-name="z" unicode="z" horiz-adv-x="902" 
d="M134 1070l743 1q-612 -1012 -617 -1032h109q96 0 176 7.5t132 19t93 27t62 29.5t35.5 29.5t18.5 23t6 14.5v2v-2l-41 -189h-791q6 2 16 7.5t42.5 39t64.5 86.5q528 877 533 898h-100q-96 0 -176 -7.5t-132 -19t-93 -27t-62 -29.5t-36 -29.5t-18.5 -23t-5.5 -13.5v-3v3z
" />
    <glyph glyph-name="braceleft" unicode="{" horiz-adv-x="581" 
d="M501 1394q-41 0 -74 -9.5t-56.5 -24.5t-41 -42t-28.5 -53.5t-17.5 -68t-9.5 -77t-3.5 -89.5t0.5 -95t2 -104.5t1 -108.5t-1 -108.5t-2 -104.5t0 -95t3.5 -89t9.5 -77.5t18 -68.5t29 -53t41.5 -42t56.5 -24.5t74 -9.5h68v-44h-73q-67 0 -120 17t-89.5 44.5t-62.5 74.5
t-41 94t-23.5 117t-11 130.5t-3.5 146.5l-87 87l87 87q1 74 3 129t8 118t17.5 108.5t29.5 92t44.5 77.5t62 56t83.5 37t108 12h68v-40h-70z" />
    <glyph glyph-name="bar" unicode="|" horiz-adv-x="188" 
d="M178 0h-118v1437h118v-1437z" />
    <glyph glyph-name="braceright" unicode="}" horiz-adv-x="581" 
d="M484 804l87 -87l-87 -87q0 -85 -3 -146t-11.5 -131t-23.5 -117.5t-41 -94t-62.5 -74t-89.5 -44.5t-120 -17h-73v44h69q41 0 74 9.5t56.5 24.5t41.5 42t29 53t18 68.5t9.5 77.5t3.5 89t0 95t-2 104.5t-1 108.5q0 51 2 148q5 113 0 208.5t-23 166t-69 110t-138 39.5h-70v40
h68q60 0 108 -12t83.5 -37t62.5 -56.5t44.5 -77.5t29 -91.5t17.5 -108.5t8.5 -118t2.5 -129z" />
    <glyph glyph-name="asciitilde" unicode="~" horiz-adv-x="598" 
d="M532 788l56 -57q-4 -5 -12 -12t-38 -19.5t-67 -13.5q-39 -1 -114 16t-128 17q-32 0 -59.5 -10t-39.5 -20l-11 -10l-59 54q1 2 4.5 5.5t16 13t28 16.5t43 13t59.5 6q56 0 135 -15.5t110 -15.5q19 0 38 8t28 16z" />
    <glyph glyph-name="exclamdown" unicode="&#xa1;" horiz-adv-x="281" 
d="M224 147q0 -33 4 -59t10 -39.5t12.5 -22t10.5 -10.5l4 -2h-205q2 1 4.5 2.5t10 10t13 21.5t10 39t4.5 59l51 1059h41zM172 1235q-41 0 -70 29t-29 70t29 70t70 29t70 -29t29 -70t-29 -70t-70 -29z" />
    <glyph glyph-name="cent" unicode="&#xa2;" horiz-adv-x="1006" 
d="M565 54q135 -14 251 49t149 178q-22 -78 -65 -135t-98 -88t-111.5 -45t-116.5 -14h-8q4 -44 25 -73t39 -36l19 -8h-222q3 1 8.5 3t20 10.5t25.5 20.5t21.5 35t13.5 51q-199 19 -327.5 161.5t-128.5 370.5q0 205 131.5 357t325.5 175q-1 31 -8.5 55.5t-18 37t-21 20.5
t-17.5 10l-7 2h189q-3 0 -7 -1.5t-15.5 -9.5t-20.5 -20t-17 -36t-9 -55h9q135 0 254 -56t168 -142l-80 -102q-38 128 -130.5 191.5t-211.5 63.5h-9v-970zM517 61v958q-141 -26 -236 -162t-95 -318q0 -206 94 -327t237 -151z" />
    <glyph glyph-name="sterling" unicode="&#xa3;" horiz-adv-x="1060" 
d="M521 39q96 0 176 7.5t131.5 19t92.5 27t62 29.5t36 29.5t18.5 23t5.5 13.5l-40 -188h-943q6 2 16 7.5t41 39t62 86.5l103 178h-218v46h244l152 263q-12 8 -45.5 28.5t-47.5 29.5t-44 30.5t-45 34.5t-39 37t-36.5 43.5t-29 48t-24.5 57t-13.5 64.5t-5.5 75q0 52 17 102.5
t55.5 98t93 84t135 58.5t177.5 22q82 0 156.5 -25.5t128.5 -68t92 -86.5t65 -91l-80 -102q-22 73 -49.5 128.5t-70 104t-103.5 74.5t-139 26q-176 0 -269 -89.5t-93 -264.5q0 -53 20.5 -103t53 -87t71.5 -69.5t78 -54.5t71.5 -38t53.5 -23l20 -7q-86 -149 -173 -300h213v-46
h-239q-154 -266 -156 -272h262z" />
    <glyph glyph-name="currency" unicode="&#xa4;" horiz-adv-x="1332" 
d="M1322 724q0 -119 -49.5 -226.5t-137.5 -187.5l128 -76l-114 -104l-74 131q-169 -121 -384 -121t-385 122l-75 -132l-114 104l129 76q-88 81 -137 188t-49 226t49.5 226t137.5 188l-130 77l114 103l75 -132q169 121 385 121q215 0 384 -120l74 131l114 -103l-128 -77
q88 -80 137.5 -187.5t49.5 -226.5zM691 176q137 0 253 73.5t183.5 200.5t67.5 276t-67.5 275.5t-183.5 200t-253 73.5t-253 -73.5t-183.5 -200t-67.5 -275.5t67.5 -276t183.5 -200.5t253 -73.5z" />
    <glyph glyph-name="yen" unicode="&#xa5;" horiz-adv-x="1212" 
d="M1096 1433h106q-2 -1 -5.5 -2.5t-16 -10t-26 -21.5t-34 -39t-40.5 -59l-386 -635v-172h125v-38h-125v-34h125v-38h-125v-252q0 -33 4 -59t10 -39t12.5 -21.5t10.5 -10.5l4 -2h-205q2 1 4.5 2.5t10 10.5t13 22t10 39t4.5 59v251h-124v38h124v34h-124v38h124v167l-385 633
q-32 53 -64 87.5t-47 42.5l-16 9h205q-29 -20 44 -139l372 -612l376 618q32 53 41.5 86t3.5 40z" />
    <glyph glyph-name="brokenbar" unicode="&#xa6;" horiz-adv-x="188" 
d="M60 818v619h118v-619h-118zM178 650v-650h-118v650h118z" />
    <glyph glyph-name="section" unicode="&#xa7;" horiz-adv-x="1160" 
d="M938 465q100 -33 156 -81.5t56 -121.5q0 -265 -568 -265q-122 0 -222.5 18.5t-160.5 47t-91.5 50.5t-47.5 41l85 91q7 -16 23 -39.5t53 -57.5t83.5 -61.5t120.5 -47t159 -19.5q202 0 304 61t102 170q0 55 -47.5 94t-123 61.5t-167 40t-183 38t-167 48t-123 76.5
t-47.5 118q0 14 7.5 33.5t32.5 48.5t64 54t112.5 45.5t168.5 26.5q-68 15 -117.5 29t-103 37t-87 50t-55.5 67t-22 89q0 16 8.5 39t38 57.5t76.5 62t135 47.5t201 20q112 0 223 -18.5t166 -36.5l56 -19l-40 -155q-1 4 -4 11.5t-16 28.5t-30.5 40t-51.5 42t-75.5 40
t-105 28.5t-137.5 11.5q-56 0 -108.5 -10.5t-101 -32t-78 -61.5t-29.5 -93q0 -51 38.5 -89t101 -59.5t142.5 -42t163.5 -34.5t163.5 -37.5t142.5 -52t101 -76.5t38.5 -111q0 -174 -212 -242zM846 490q144 63 144 205q0 32 -13 59t-40.5 47.5t-56.5 36t-77 30t-84.5 23.5
t-94.5 21q-74 -1 -136.5 -11.5t-115.5 -31t-83 -57t-30 -84.5q0 -29 15 -53.5t40 -42t63.5 -33.5t78 -26.5t92 -22t97.5 -19.5t102 -19.5t99 -21.5z" />
    <glyph glyph-name="dieresis" unicode="&#xa8;" horiz-adv-x="361" 
d="M116 1680q23 0 39 -16.5t16 -39.5q0 -22 -16.5 -38.5t-38.5 -16.5q-23 0 -39.5 16t-16.5 39t16.5 39.5t39.5 16.5zM295 1569q-23 0 -39 16.5t-16 38.5q0 23 16 39.5t39 16.5t39.5 -16.5t16.5 -39.5t-16.5 -39t-39.5 -16z" />
    <glyph glyph-name="copyright" unicode="&#xa9;" horiz-adv-x="887" 
d="M458 995q-36 0 -74 -18.5t-71.5 -53.5t-55 -94.5t-21.5 -131.5q0 -145 62.5 -220.5t159.5 -75.5q78 0 121.5 23.5t75.5 77.5l35 -24q-74 -97 -232 -97q-119 0 -198.5 85t-79.5 230q0 147 82 231.5t214 84.5q52 0 93 -11t60.5 -23.5t38.5 -20.5t35 -4l-30 -81
q-44 71 -88 97t-127 26zM469 1108q169 0 288.5 -119.5t119.5 -288.5t-119.5 -288.5t-288.5 -119.5t-289 119.5t-120 288.5t120 288.5t289 119.5zM469 339q149 0 255 106t106 255t-106 255t-255 106t-255 -106t-106 -255t106 -255t255 -106z" />
    <glyph glyph-name="ordfeminine" unicode="&#xaa;" horiz-adv-x="414" 
d="M346 1217v97q0 54 -18 84t-75 30q-45 0 -78 -28.5t-44 -75.5l-37 26q42 90 160 90q80 0 108 -34t27 -92v-208q0 -19 3.5 -30.5t7.5 -13.5l4 -3q-18 0 -29 2.5t-20 13.5t-9 31v48q-40 -95 -140 -95q-77 0 -111.5 35.5t-34.5 74.5q0 48 26.5 78.5t65.5 42t79 17t73 11
t40 16.5q-4 -13 -43 -22.5t-82 -17.5t-78.5 -36.5t-35.5 -74.5q0 -51 29.5 -77.5t80.5 -26.5q61 0 96 40.5t35 97.5z" />
    <glyph glyph-name="guillemotleft" unicode="&#xab;" horiz-adv-x="512" 
d="M309 807l-118 -90l118 -89l-65 -50l-184 139l184 139zM502 807l-118 -90l118 -89l-65 -50l-184 139l184 139z" />
    <glyph glyph-name="logicalnot" unicode="&#xac;" horiz-adv-x="747" 
d="M737 608h-82v137h-594l-1 83h677v-220z" />
    <glyph glyph-name="registered" unicode="&#xae;" horiz-adv-x="475" 
d="M379 1131q0 -79 -84 -87l50 -82q6 -10 12.5 -16.5t9.5 -8.5l3 -2h-40q5 5 -8 27l-50 81h-70v-82q0 -10 2 -16.5t4 -8.5l2 -1h-40q8 3 8 27v224q0 10 -2 17t-4 9l-2 1h115q39 0 66.5 -22.5t27.5 -59.5zM259 1050q46 0 71 17t25 63q0 38 -25 56.5t-59 18.5h-67
q-2 -8 -2 -19v-136h57zM262 1275q84 0 143.5 -59.5t59.5 -142.5t-59.5 -142.5t-143.5 -59.5q-83 0 -142.5 59.5t-59.5 142.5t59.5 142.5t142.5 59.5zM262 894q74 0 126.5 52.5t52.5 126.5t-52.5 126.5t-126.5 52.5q-73 0 -125.5 -52.5t-52.5 -126.5t52 -126.5t126 -52.5z
" />
    <glyph glyph-name="macron" unicode="&#xaf;" horiz-adv-x="420" 
d="M60 1649h350v-83h-350v83z" />
    <glyph glyph-name="degree" unicode="&#xb0;" horiz-adv-x="499" 
d="M274 1452q89 0 152 -66t63 -158t-63 -157.5t-152 -65.5t-151.5 65.5t-62.5 157.5t63 158t151 66zM274 1025q67 0 114.5 60.5t47.5 144.5t-47.5 143.5t-114.5 59.5t-114 -59.5t-47 -143.5t47.5 -144.5t113.5 -60.5z" />
    <glyph glyph-name="plusminus" unicode="&#xb1;" horiz-adv-x="497" 
d="M320 752h167v-70h-167v-126h-93v126h-167v70h167v127h93v-127zM487 451h-427v70h427v-70z" />
    <glyph glyph-name="twosuperior" unicode="&#xb2;" horiz-adv-x="532" 
d="M251 738q62 0 111 6.5t75 15.5t43 20t22 17.5t6 10.5l-19 -89h-385q8 4 21 11.5t50.5 32.5t72 51.5t76 67.5t72 82t51 93t20.5 103q0 218 -186 218q-71 0 -116.5 -43.5t-66.5 -113.5l-38 48q28 49 87.5 88.5t133.5 39.5q107 0 174 -55.5t67 -167.5q0 -72 -33 -143.5
t-78 -121t-95 -90.5t-80 -59.5t-37 -21.5h52z" />
    <glyph glyph-name="threesuperior" unicode="&#xb3;" horiz-adv-x="534" 
d="M316 1099q82 3 145 -43t63 -139q0 -103 -71 -150.5t-193 -47.5q-64 0 -120.5 20t-79.5 51l38 37q18 -46 62 -69t100 -23q54 0 98 16.5t75 58t31 104.5q0 66 -32 106.5t-75.5 50.5t-82 8t-58.5 -12q0 8 9.5 18.5t25.5 15.5q5 1 30.5 9t34 11.5t29.5 12.5t30 18t21.5 23.5
t17.5 33t5 41.5q0 63 -46.5 96.5t-119.5 33.5q-50 0 -89.5 -21t-55.5 -63l-34 34q20 28 70.5 46t108.5 18q95 0 157.5 -38t62.5 -108q0 -117 -157 -149z" />
    <glyph glyph-name="acute" unicode="&#xb4;" horiz-adv-x="238" 
d="M125 1683h103l-130 -117h-38z" />
    <glyph glyph-name="mu" unicode="&#xb5;" horiz-adv-x="777" 
d="M676 1309h91v-1098h-91v228q-34 -54 -103 -92t-163 -38q-67 0 -144.5 27t-108.5 84v-425h-97v1314h97v-645q0 -145 68.5 -216t187.5 -71q12 0 26 1t41.5 8t51.5 18t51.5 34.5t47 54.5t32.5 80t13 110v626z" />
    <glyph glyph-name="paragraph" unicode="&#xb6;" horiz-adv-x="889" 
d="M388 1295l491 1v-1259h-97v540h-283v-540h-99v540q-30 0 -67.5 7.5t-87.5 32t-89.5 61.5t-67.5 104t-28 152q0 86 34.5 158t86 114.5t106.5 65.5t101 23z" />
    <glyph glyph-name="periodcentered" unicode="&#xb7;" horiz-adv-x="259" 
d="M155 689q39 0 66.5 -27.5t27.5 -66.5t-27.5 -66.5t-66.5 -27.5t-67 27.5t-28 66.5t28 66.5t67 27.5z" />
    <glyph glyph-name="periodcentered" unicode="&#x2219;" horiz-adv-x="259" 
d="M155 689q39 0 66.5 -27.5t27.5 -66.5t-27.5 -66.5t-66.5 -27.5t-67 27.5t-28 66.5t28 66.5t67 27.5z" />
    <glyph glyph-name="cedilla" unicode="&#xb8;" horiz-adv-x="178" 
d="M68 93q28 0 64 -28t36 -75q0 -41 -27 -62t-54 -22l-27 -1v61q15 -14 37 -4.5t22 31.5q0 31 -14.5 52.5t-28.5 28.5l-15 6z" />
    <glyph glyph-name="onesuperior" unicode="&#xb9;" horiz-adv-x="172" 
d="M66 719q19 7 19 63v496q0 33 -25 33l83 84v-614q0 -25 4.5 -40.5t9.5 -18.5l5 -3h-96z" />
    <glyph glyph-name="ordmasculine" unicode="&#xba;" horiz-adv-x="556" 
d="M303 1398q100 0 171.5 -100t71.5 -240t-71 -239.5t-172 -99.5t-172 99.5t-71 239.5t71.5 240t171.5 100zM303 737q75 0 129 95t54 223q0 129 -54 227t-129 98t-129 -98t-54 -227q0 -128 54 -223t129 -95z" />
    <glyph glyph-name="guillemotright" unicode="&#xbb;" horiz-adv-x="512" 
d="M253 807l66 49l183 -139l-183 -139l-66 50l119 89zM60 807l66 49l183 -139l-183 -139l-66 50l119 89z" />
    <glyph glyph-name="onequarter" unicode="&#xbc;" horiz-adv-x="660" 
d="M106 1178q0 18 -5.5 25.5t-19.5 7.5l83 85v-614q0 -25 5 -41t9 -19l5 -3h-96q19 7 19 63v496zM650 364h-53v-106q0 -25 4.5 -41t9.5 -19l5 -3h-97q20 7 20 63v106h-313l342 509h28l1 -491h53v-18zM539 382v420l-284 -420h284zM455 1134h60l-395 -893h-60z" />
    <glyph glyph-name="onehalf" unicode="&#xbd;" horiz-adv-x="866" 
d="M66 619q19 7 19 63v496q0 18 -5.5 25.5t-19.5 7.5l83 85v-614q0 -25 4.5 -41t9.5 -19l5 -3h-96zM585 215q62 0 111.5 7t75.5 16t43 20t22 17.5t6 10.5l-19 -89h-385q15 8 39.5 22.5t86.5 61t110 95t87 120.5t39 142q0 218 -185 218q-71 0 -116.5 -44t-66.5 -114l-38 49
q28 49 87.5 88.5t133.5 39.5q107 0 173.5 -55.5t66.5 -167.5q0 -73 -33.5 -144.5t-77 -120t-95.5 -91.5t-78.5 -59.5t-37.5 -21.5h51zM461 1134h60l-395 -893h-60z" />
    <glyph glyph-name="threequarters" unicode="&#xbe;" horiz-adv-x="937" 
d="M927 364h-54v-106q0 -25 5 -41t10 -19l5 -3h-97q20 7 20 63v106h-313l342 509h28v-491h54v-18zM816 382v420l-284 -420h284zM524 814q0 -103 -71 -150.5t-193 -47.5q-64 0 -120.5 20t-79.5 51l38 38q18 -47 62 -70t100 -23q85 0 144.5 44t59.5 135q0 54 -21.5 91
t-52.5 52.5t-66.5 20.5t-64 1.5t-43.5 -11.5q0 7 9.5 17.5t25.5 15.5q5 1 30.5 9t34 11.5t29.5 12.5t30 18t21.5 23.5t17.5 33t5 41.5q0 63 -46.5 96.5t-119.5 33.5q-50 0 -89.5 -21t-55.5 -62l-34 33q20 28 71 46.5t108 18.5q95 0 157.5 -38.5t62.5 -107.5
q0 -118 -157 -150q82 3 145 -43t63 -139zM732 1134h60l-395 -893h-60z" />
    <glyph glyph-name="questiondown" unicode="&#xbf;" horiz-adv-x="991" 
d="M538 14q-96 0 -177 22t-135.5 58.5t-92.5 84.5t-55.5 98.5t-17.5 102.5q0 82 25.5 145.5t65.5 105t89 77.5t98 74t89 84t65.5 118.5t25.5 165.5h64q0 -92 -22.5 -165.5t-58 -122t-79 -89t-87 -76.5t-79 -74.5t-58 -92.5t-22.5 -121q0 -175 93 -265t269 -90q78 0 139.5 26
t103.5 74.5t70.5 104.5t49.5 129l80 -103q-21 -37 -48.5 -72t-69 -72t-88.5 -64.5t-109 -45t-128 -17.5zM551 1233q-41 0 -70 29t-29 70q0 40 29 69.5t70 29.5t70.5 -29t29.5 -70t-29.5 -70t-70.5 -29z" />
    <glyph glyph-name="Agrave" unicode="&#xc0;" horiz-adv-x="1275" 
d="M1060 1q4 2 8 8.5t2 42t-23 88.5l-114 292h-639l-115 -292q-20 -53 -23.5 -87.5t3.5 -42.5l7 -9h-106q2 1 5.5 3t15 12t22 23.5t25.5 40.5t28 60l507 1293l506 -1293q21 -53 45 -87.5t38 -42.5l13 -9h-205zM303 456h621l-311 793zM654 1683l65 -117h-37l-131 117h103z
" />
    <glyph glyph-name="Aacute" unicode="&#xc1;" horiz-adv-x="1275" 
d="M1060 1q4 2 8 8.5t2 42t-23 88.5l-114 292h-639l-115 -292q-20 -53 -23.5 -87.5t3.5 -42.5l7 -9h-106q2 1 5.5 3t15 12t22 23.5t25.5 40.5t28 60l507 1293l506 -1293q21 -53 45 -87.5t38 -42.5l13 -9h-205zM303 456h621l-311 793zM672 1683h103l-130 -117h-38z" />
    </font>
</defs>
</svg>
